<?xml version="1.0" encoding="UTF-8" standalone="no"?>
<svg
   width="611"
   height="1038"
   viewBox="0 0 610.99998 1038"
   version="1.1"
   id="svg5735"
   xmlns="http://www.w3.org/2000/svg">
  <defs
     id="defs5663">
    <style
       id="style5652">
      .cls-1 {
        fill: #edb9a3;
      }

      .cls-2 {
        fill: #e8b29b;
      }

      .cls-3 {
        fill: #7b6c53;
      }

      .cls-4 {
        fill: #6c5f48;
      }

      .cls-5 {
        fill: #ddd5d2;
      }

      .cls-6 {
        fill: #18a65a;
      }

      .cls-7 {
        fill: #11743f;
      }

      .cls-8 {
        fill: #9ad3e4;
      }

      .cls-9 {
        fill: #7fc8d8;
      }

      .cls-10 {
        fill: #333d63;
      }

      .cls-11 {
        fill: #e8a68a;
      }

      .cls-12 {
        fill: #e19e82;
      }

      .cls-13 {
        fill: #fff;
      }

      .cls-14 {
        fill: #322a28;
      }

      .cls-15 {
        fill: #b57e67;
      }

      .cls-16 {
        fill: #3d3533;
      }

      .cls-17 {
        fill: #52311e;
      }

      .cls-18 {
        fill: #3d2517;
      }

      .cls-19 {
        fill: #e69674;
      }

      .cls-20 {
        filter: url(#Path_6714);
      }
    </style>
  </defs>
  <g
     id="Group_8613"
     data-name="Group 8613"
     transform="matrix(4.7759001,0,0,4.8527965,0.00477714,-0.01108543)">
    <g
       id="Group_7848"
       data-name="Group 7848"
       transform="translate(-911.662,-580.916)">
      <g
         id="Group_5089"
         data-name="Group 5089"
         transform="translate(911.662,691.103)">
        <g
           id="Group_5088"
           data-name="Group 5088"
           transform="rotate(-90,65.0925,-21.1145)">
          <g
             id="Group_5086"
             data-name="Group 5086">
            <g
               id="Group_5084"
               data-name="Group 5084"
               transform="rotate(90,21.989,21.989)">
              <path
                 id="Path_3678"
                 data-name="Path 3678"
                 class="cls-1"
                 d="M 29.536,25.323 C 24.668,20.96 19.7,9.427 13.608,7 7.516,4.573 7.523,0 7.523,0 L 0,6.267 a 11.787,11.787 0 0 1 5.515,7.373 c 1.51,5.445 14.233,13.339 17.649,18.3 0.617,0.9 0.431,4.76 1.382,5.847 3.19,0.081 10.463,-8.052 10.687,-11.06 0.081,-0.894 -4.49,-0.322 -5.697,-1.404 z" />
              <circle
                 id="Ellipse_565"
                 data-name="Ellipse 565"
                 class="cls-1"
                 cx="8.9390001"
                 cy="8.9390001"
                 r="8.9390001"
                 transform="translate(23.848,26.101)" />
            </g>
          </g>
          <g
             id="Group_5085"
             data-name="Group 5085"
             transform="translate(0.876,3.54)">
            <path
               id="Path_3678-2"
               data-name="Path 3678"
               class="cls-2"
               d="M 26,25.323 C 21.128,20.96 16.163,9.427 10.068,7 3.973,4.573 3.983,0 3.983,0 L 0,4.386 c 0,0 10.175,5.643 12.6,7.992 4.259,4.128 9.922,13.318 10.982,15.038 2.276,-0.554 7.886,2.323 8.11,-0.685 C 31.774,25.833 27.2,26.405 26,25.323 Z"
               transform="rotate(90,21.551,21.551)" />
            <path
               id="Path_3686"
               data-name="Path 3686"
               class="cls-2"
               d="m 7.046,0.124 a 8.939,8.939 0 0 1 8.939,8.939 9.053,9.053 0 0 1 -5.075,8.063 C 13.17,13.385 14.016,9.945 11.543,5.885 10.084,3.485 6.127,2.699 3.643,3.147 2.144,3.416 -0.7,4.176 0.157,2.879 A 15.024,15.024 0 0 1 1.6,0.688 C 2.9,-0.394 4.884,0.124 7.046,0.124 Z"
               transform="rotate(90,-2.5375,19.6625)" />
          </g>
        </g>
        <g
           id="Group_5087"
           data-name="Group 5087"
           transform="translate(0,2.253)">
          <g
             id="Group_5086-2"
             data-name="Group 5086">
            <g
               id="Group_5084-2"
               data-name="Group 5084"
               transform="rotate(90,21.989,21.989)">
              <path
                 id="Path_3678-3"
                 data-name="Path 3678"
                 class="cls-1"
                 d="M 29.536,25.323 C 24.668,20.96 19.7,9.427 13.608,7 7.516,4.573 7.523,0 7.523,0 L 0,6.267 a 11.787,11.787 0 0 1 5.515,7.373 c 1.51,5.445 14.233,13.339 17.649,18.3 0.617,0.9 0.431,4.76 1.382,5.847 3.19,0.081 10.463,-8.052 10.687,-11.06 0.081,-0.894 -4.49,-0.322 -5.697,-1.404 z" />
              <circle
                 id="Ellipse_565-2"
                 data-name="Ellipse 565"
                 class="cls-1"
                 cx="8.9390001"
                 cy="8.9390001"
                 r="8.9390001"
                 transform="translate(23.848,26.101)" />
            </g>
          </g>
          <g
             id="Group_5085-2"
             data-name="Group 5085"
             transform="translate(0.876,3.54)">
            <path
               id="Path_3678-4"
               data-name="Path 3678"
               class="cls-2"
               d="M 26,25.323 C 21.128,20.96 16.163,9.427 10.068,7 3.973,4.573 3.983,0 3.983,0 L 0,4.386 c 0,0 10.175,5.643 12.6,7.992 4.259,4.128 9.922,13.318 10.982,15.038 2.276,-0.554 7.886,2.323 8.11,-0.685 C 31.774,25.833 27.2,26.405 26,25.323 Z"
               transform="rotate(90,21.551,21.551)" />
            <path
               id="Path_3686-2"
               data-name="Path 3686"
               class="cls-2"
               d="m 7.046,0.124 a 8.939,8.939 0 0 1 8.939,8.939 9.053,9.053 0 0 1 -5.075,8.063 C 13.17,13.385 14.016,9.945 11.543,5.885 10.084,3.485 6.127,2.699 3.643,3.147 2.144,3.416 -0.7,4.176 0.157,2.879 A 15.024,15.024 0 0 1 1.6,0.688 C 2.9,-0.394 4.884,0.124 7.046,0.124 Z"
               transform="rotate(90,-2.5375,19.6625)" />
          </g>
        </g>
      </g>
      <g
         id="Group_5075"
         data-name="Group 5075"
         transform="translate(939.907,670.225)">
        <path
           id="Path_3668"
           data-name="Path 3668"
           class="cls-8"
           d="M 11.162,0.063 C 5.627,3.306 -4.114,14.871 -8.27,16.186 c -4.156,1.315 5.741,14.547 12.057,14.868 6.316,0.321 6,-2.682 6.9,-5.17 C 14.2,16.242 16.7,-3.179 11.162,0.063 Z"
           transform="translate(9.259,4.135)" />
        <path
           id="Path_3682"
           data-name="Path 3682"
           class="cls-9"
           d="m -0.819,29.159 a 9.393,9.393 0 0 0 4.663,1.934 c 6.316,0.321 6,-2.682 6.9,-5.17 A 70.6,70.6 0 0 0 14.463,6.041 C 14.552,1.691 2.712,25.475 -0.819,29.159 Z"
           transform="translate(9.201,4.095)" />
        <path
           id="Path_3669"
           data-name="Path 3669"
           class="cls-8"
           d="M -6.015,0.063 C -0.48,3.306 9.262,14.871 13.418,16.186 17.574,17.501 7.676,30.733 1.36,31.054 c -6.316,0.321 -6,-2.682 -6.9,-5.17 -3.515,-9.642 -6.01,-29.063 -0.475,-25.821 z"
           transform="translate(58.918,4.135)" />
        <path
           id="Path_3667"
           data-name="Path 3667"
           class="cls-8"
           d="m 11.225,0.037 c 0,0 8.271,-4.2 16.237,-4.2 7.966,0 16.233,4.2 16.233,4.2 A 125.7,125.7 0 0 0 48.588,22.1 c 3.563,10.66 7.725,30.519 6.266,33.379 -1.459,2.86 -13.735,6.967 -27.391,6.967 C 13.807,62.446 1.626,58.389 0.229,55.477 -1.168,52.565 3.014,31.741 6.527,22.1 10.04,12.459 11.225,0.037 11.225,0.037 Z"
           transform="translate(9.244,4.161)" />
        <path
           id="Path_3680"
           data-name="Path 3680"
           class="cls-9"
           d="m 46.611,14.17 c 0.3,1.244 0.654,2.615 1.142,4.333 0.288,1.016 0.7,2.37 1.15,3.713 3.563,10.66 7.725,30.519 6.266,33.379 -0.657,1.287 -3.5,2.826 -7.961,4.217 C 50.4,46.034 44.733,6.348 46.611,14.17 Z"
           transform="translate(8.928,4.043)" />
        <path
           id="Path_3681"
           data-name="Path 3681"
           class="cls-9"
           d="M -6.029,0.056 C -0.493,3.3 9.248,14.864 13.4,16.179 c 1.633,0.517 1.1,2.874 -0.695,5.813 C 3.881,18.939 -10.272,3.517 -11.206,0.67 c -0.772,-3.437 3.141,-1.807 5.177,-0.614 z"
           transform="translate(58.932,4.142)" />
      </g>
      <g
         id="Group_5079"
         data-name="Group 5079"
         transform="translate(962.656,670.225)">
        <path
           id="Path_3667-2"
           data-name="Path 3667"
           class="cls-10"
           d="m 14.03,-1.162 a 38.352,38.352 0 0 1 13.525,-3 38.344,38.344 0 0 1 13.245,2.888 C 41.645,-0.947 42.884,7.27 27.559,7.334 12.234,7.398 13.11,-0.786 14.03,-1.162 Z"
           transform="translate(-13.598,4.161)" />
      </g>
    </g>
  </g>
</svg>
