<?xml version="1.0" encoding="UTF-8" standalone="no"?>
<svg
   id="Laag_1"
   data-name="Laag 1"
   viewBox="0 0 373424.86 1078111.3"
   version="1.1"
   width="373424.88"
   height="1078111.2"
   xmlns="http://www.w3.org/2000/svg">
  <defs
     id="defs93">
    <style
       id="style91">
      .cls-1 {
        fill: #fff;
      }

      .cls-2 {
        fill: #e19e82;
      }

      .cls-3 {
        fill: #028151;
      }

      .cls-4 {
        fill: #e69674;
      }

      .cls-5 {
        fill: #ddd5d2;
      }

      .cls-6 {
        fill: #cf1915;
      }

      .cls-7 {
        fill: #3d3533;
      }

      .cls-8 {
        fill: #e5a451;
      }

      .cls-9 {
        fill: #333d63;
      }

      .cls-10 {
        fill: #039960;
      }

      .cls-11 {
        fill: #e8b29b;
      }

      .cls-12 {
        fill: #b57e67;
      }

      .cls-13 {
        fill: #edb9a3;
      }

      .cls-14 {
        fill: #ecac5a;
      }

      .cls-15 {
        fill: #df1a16;
      }

      .cls-16 {
        fill: #263056;
      }

      .cls-17 {
        fill: #322a28;
      }

      .cls-18 {
        fill: #ccb050;
      }

      .cls-19 {
        fill: #e8a68a;
      }
    </style>
  </defs>
  <g
     id="karakter-man_3"
     data-name="karakter-man 3">
    <g
       id="Group_8271"
       data-name="Group 8271"
       transform="translate(0,-0.00666604)">
      <g
         id="Group_5088"
         data-name="Group 5088">
        <g
           id="Group_5086"
           data-name="Group 5086">
          <g
             id="Group_5084"
             data-name="Group 5084">
            <path
               id="Path_3678"
               data-name="Path 3678"
               class="cls-13"
               d="M 552.86,663.9 C 529.61,643.06 505.9,587.97 476.78,576.38 447.66,564.79 447.72,542.95 447.72,542.95 l -35.94,29.93 c 0,0 19.12,9.2 26.34,35.22 7.22,26.02 67.99,63.71 84.3,87.43 2.95,4.28 2.06,22.74 6.6,27.93 15.24,0.39 49.98,-38.46 51.05,-52.83 0.39,-4.29 -21.44,-1.56 -27.21,-6.72 z" />
            <circle
               id="Ellipse_565"
               data-name="Ellipse 565"
               class="cls-13"
               cx="568.38"
               cy="710.31"
               r="42.700001" />
          </g>
        </g>
        <g
           id="Group_5085"
           data-name="Group 5085">
          <path
             id="Path_3678-2"
             data-name="Path 3678-2"
             class="cls-11"
             d="m 552.87,663.9 c -23.25,-20.84 -46.96,-75.93 -76.08,-87.52 -29.12,-11.59 -29.07,-33.43 -29.07,-33.43 l -19.03,20.95 c 0,0 48.6,26.95 60.19,38.17 20.33,19.72 47.39,63.61 52.46,71.83 10.87,-2.65 37.67,11.1 38.73,-3.27 0.4,-4.29 -21.44,-1.56 -27.19,-6.72 z" />
          <path
             id="Path_3686"
             data-name="Path 3686"
             class="cls-11"
             d="m 568.38,667.61 c 23.58,0 42.7,19.11 42.71,42.69 v 0 c -0.13,16.4 -9.51,31.32 -24.24,38.52 10.79,-17.87 14.83,-34.3 3.03,-53.7 -6.97,-11.44 -25.87,-15.22 -37.72,-13.08 -7.17,1.29 -20.75,4.93 -16.66,-1.27 4.09,-6.2 5.17,-9.04 6.9,-10.46 6.21,-5.17 15.68,-2.69 26,-2.69 z" />
        </g>
      </g>
      <g
         id="Group_5087"
         data-name="Group 5087">
        <g
           id="Group_5086-2"
           data-name="Group 5086-2">
          <g
             id="Group_5084-2"
             data-name="Group 5084-2">
            <path
               id="Path_3678-3"
               data-name="Path 3678-3"
               class="cls-13"
               d="m 89.11,694.78 c 20.84,-23.25 75.93,-46.96 87.52,-76.08 11.59,-29.12 33.43,-29.07 33.43,-29.07 l -29.93,-35.94 c 0,0 -9.2,19.12 -35.22,26.34 -26.02,7.22 -63.71,67.99 -87.43,84.3 -4.28,2.95 -22.74,2.06 -27.93,6.6 -0.39,15.24 38.46,49.98 52.83,51.05 4.29,0.39 1.56,-21.44 6.72,-27.21 z" />
            <circle
               id="Ellipse_565-2"
               data-name="Ellipse 565-2"
               class="cls-13"
               cx="42.700001"
               cy="710.31"
               r="42.700001" />
          </g>
        </g>
        <g
           id="Group_5085-2"
           data-name="Group 5085-2">
          <path
             id="Path_3678-4"
             data-name="Path 3678-4"
             class="cls-11"
             d="m 89.11,694.79 c 20.84,-23.25 75.93,-46.96 87.52,-76.08 11.59,-29.12 33.43,-29.07 33.43,-29.07 l -20.95,-19.03 c 0,0 -26.95,48.6 -38.17,60.19 -19.72,20.33 -63.61,47.39 -71.83,52.46 2.65,10.87 -11.1,37.67 3.27,38.73 4.29,0.4 1.56,-21.44 6.72,-27.19 z" />
          <path
             id="Path_3686-2"
             data-name="Path 3686-2"
             class="cls-11"
             d="m 85.39,710.3 c 0,23.58 -19.11,42.7 -42.69,42.71 v 0 C 26.31,752.88 11.39,743.5 4.19,728.77 c 17.87,10.79 34.3,14.83 53.7,3.03 11.44,-6.97 15.22,-25.87 13.08,-37.72 -1.29,-7.17 -4.93,-20.75 1.27,-16.66 6.2,4.09 9.04,5.17 10.46,6.9 5.17,6.21 2.69,15.68 2.69,26 z" />
        </g>
      </g>
    </g>
    <g
       id="Group_8273"
       data-name="Group 8273"
       transform="translate(0,-0.00666604)">
      <path
         id="Path_3668"
         data-name="Path 3668"
         class="cls-10"
         d="m 232.46,463.27 c -26.44,15.49 -72.97,70.73 -92.82,77.01 -19.85,6.28 27.43,69.47 57.6,71.02 30.17,1.54 28.64,-12.81 32.97,-24.69 16.78,-46.06 28.69,-138.83 2.25,-123.34 z" />
      <path
         id="Path_3682"
         data-name="Path 3682"
         class="cls-3"
         d="m 174.96,602.06 c 6.88,4.98 15.06,8.87 22.27,9.24 30.17,1.53 28.65,-12.81 32.97,-24.69 10.44,-30.64 16.42,-62.63 17.74,-94.97 0.44,-20.77 -56.12,92.82 -72.98,110.43 z" />
      <path
         id="Path_3669"
         data-name="Path 3669"
         class="cls-10"
         d="m 387.61,463.27 c 26.44,15.49 72.97,70.73 92.82,77.01 19.85,6.28 -27.42,69.48 -57.58,71.02 -30.16,1.54 -28.64,-12.81 -32.97,-24.69 -16.79,-46.06 -28.71,-138.83 -2.27,-123.34 z" />
      <path
         id="Path_3667"
         data-name="Path 3667"
         class="cls-10"
         d="m 232.69,463.27 c 0,0 39.51,-20.05 77.56,-20.05 38.05,0 77.53,20.05 77.53,20.05 0,0 6.35,54.47 23.37,105.38 17.02,50.91 36.9,145.78 29.93,159.44 -6.97,13.66 -65.6,33.28 -130.84,33.28 C 245,761.37 186.82,742 180.15,728.09 173.48,714.18 193.46,614.71 210.23,568.65 227,522.59 232.67,463.27 232.67,463.27 Z" />
      <path
         id="Path_3680"
         data-name="Path 3680"
         class="cls-3"
         d="m 400.2,530.21 c 1.43,5.94 3.12,12.49 5.46,20.7 1.37,4.84 3.35,11.32 5.49,17.74 17.02,50.92 36.9,145.78 29.93,159.45 -3.15,6.15 -16.74,13.5 -38.02,20.14 15.24,-65.82 -11.83,-255.39 -2.85,-218.02 z" />
      <path
         id="Path_3681"
         data-name="Path 3681"
         class="cls-3"
         d="m 387.61,463.27 c 26.44,15.49 72.97,70.73 92.82,77.01 7.8,2.47 5.24,13.73 -3.32,27.77 -42.17,-14.58 -109.77,-88.24 -114.23,-101.84 -3.69,-16.41 15,-8.63 24.73,-2.93 z" />
    </g>
    <g
       id="Group_8276"
       data-name="Group 8276"
       transform="translate(0,-0.00666604)">
      <path
         id="Path_3667-2"
         data-name="Path 3667-2"
         class="cls-18"
         d="m 245.72,457.54 c 13.12,-5.38 39.18,-14.33 64.6,-14.33 23.17,0 46.88,7.44 63.25,13.8 4.04,1.56 9.95,40.81 -63.25,41.12 -73.2,0.31 -69,-38.79 -64.6,-40.59 z" />
    </g>
  </g>
</svg>
