<?xml version="1.0" encoding="UTF-8" standalone="no"?>
<svg
   id="karakter-vrouw"
   width="615.13403"
   height="1038.323"
   viewBox="0 0 615.13402 1038.323"
   version="1.1"
   xmlns="http://www.w3.org/2000/svg">
  <defs
     id="defs638" />
  <g
     id="Group_5093"
     data-name="Group 5093"
     transform="matrix(2.4357691,0,0,2.4570526,2.2300132e-6,-0.00378831)">
    <g
       id="Group_5089"
       data-name="Group 5089"
       transform="translate(0,217.87)">
      <g
         id="Group_5088"
         data-name="Group 5088"
         transform="rotate(-90,128.494,-41.682)">
        <g
           id="Group_5086"
           data-name="Group 5086">
          <g
             id="Group_5084"
             data-name="Group 5084"
             transform="rotate(90,43.406,43.406)">
            <path
               id="Path_3678"
               data-name="Path 3678"
               d="M 58.305,49.988 C 48.7,41.375 38.9,18.608 26.863,13.818 14.826,9.028 14.852,0 14.852,0 L 0,12.371 c 0,0 7.906,3.8 10.886,14.554 2.98,10.754 28.1,26.331 34.84,36.132 1.217,1.769 0.85,9.4 2.728,11.542 6.3,0.161 20.655,-15.894 21.1,-21.832 0.157,-1.773 -8.866,-0.643 -11.249,-2.779 z"
               fill="#edb9a3" />
            <circle
               id="Ellipse_565"
               data-name="Ellipse 565"
               cx="17.645"
               cy="17.645"
               transform="translate(47.076,51.523)"
               fill="#edb9a3"
               r="17.645" />
          </g>
        </g>
        <g
           id="Group_5085"
           data-name="Group 5085"
           transform="translate(1.728,6.989)">
          <path
             id="Path_3678-2"
             data-name="Path 3678"
             d="M 51.317,49.988 C 41.708,41.374 31.907,18.608 19.875,13.817 7.843,9.026 7.863,0 7.863,0 L 0,8.657 c 0,0 20.086,11.143 24.874,15.776 8.408,8.149 19.586,26.289 21.679,29.686 4.494,-1.094 15.567,4.586 16.01,-1.353 0.16,-1.772 -8.863,-0.642 -11.246,-2.778 z"
             transform="rotate(90,42.542,42.542)"
             fill="#e8b29b" />
          <path
             id="Path_3686"
             data-name="Path 3686"
             d="M 13.909,0.245 A 17.645,17.645 0 0 1 31.554,17.89 17.871,17.871 0 0 1 21.537,33.805 C 25.998,26.42 27.668,19.629 22.787,11.614 19.908,6.886 12.1,5.326 7.2,6.209 4.232,6.743 -1.378,8.244 0.311,5.682 2,3.12 2.449,1.944 3.161,1.357 5.729,-0.778 9.641,0.245 13.909,0.245 Z"
             transform="rotate(90,-5.009,38.814)"
             fill="#e8b29b" />
        </g>
      </g>
      <g
         id="Group_5087"
         data-name="Group 5087"
         transform="translate(0,4.447)">
        <g
           id="Group_5086-2"
           data-name="Group 5086">
          <g
             id="Group_5084-2"
             data-name="Group 5084"
             transform="rotate(90,43.4065,43.4065)">
            <path
               id="Path_3678-3"
               data-name="Path 3678"
               d="M 58.3,49.989 C 48.691,41.375 38.89,18.609 26.858,13.818 14.826,9.027 14.851,0 14.851,0 L 0,12.371 c 0,0 7.906,3.8 10.886,14.554 2.98,10.754 28.1,26.331 34.84,36.133 1.217,1.769 0.85,9.4 2.728,11.542 6.3,0.161 20.654,-15.894 21.1,-21.833 0.157,-1.773 -8.866,-0.642 -11.254,-2.778 z"
               fill="#edb9a3" />
            <circle
               id="Ellipse_565-2"
               data-name="Ellipse 565"
               cx="17.645"
               cy="17.645"
               transform="translate(47.076,51.523)"
               fill="#edb9a3"
               r="17.645" />
          </g>
        </g>
        <g
           id="Group_5085-2"
           data-name="Group 5085"
           transform="translate(1.728,6.988)">
          <path
             id="Path_3678-4"
             data-name="Path 3678"
             d="M 51.316,49.989 C 41.707,41.375 31.906,18.609 19.874,13.818 7.842,9.027 7.863,0 7.863,0 L 0,8.657 c 0,0 20.086,11.143 24.874,15.776 8.408,8.149 19.586,26.289 21.679,29.686 4.494,-1.094 15.567,4.586 16.01,-1.353 0.159,-1.772 -8.863,-0.641 -11.247,-2.777 z"
             transform="rotate(90,42.542,42.542)"
             fill="#e8b29b" />
          <path
             id="Path_3686-2"
             data-name="Path 3686"
             d="M 13.909,0.245 A 17.645,17.645 0 0 1 31.554,17.89 17.871,17.871 0 0 1 21.537,33.806 C 25.998,26.421 27.668,19.63 22.787,11.615 19.908,6.886 12.1,5.326 7.2,6.209 4.232,6.743 -1.378,8.244 0.311,5.682 2,3.12 2.449,1.944 3.161,1.357 5.728,-0.778 9.641,0.245 13.909,0.245 Z"
             transform="rotate(90,-5.0085,38.8145)"
             fill="#e8b29b" />
        </g>
      </g>
    </g>
    <g
       id="Group_5075"
       data-name="Group 5075"
       transform="translate(55.757,176.657)">
      <path
         id="Path_3668"
         data-name="Path 3668"
         d="M 31.053,0.415 C 20.127,6.816 0.9,29.646 -7.308,32.241 -15.516,34.836 4.026,60.956 16.492,61.59 28.958,62.224 28.332,56.3 30.121,51.386 37.056,32.351 41.98,-5.986 31.053,0.415 Z"
         transform="translate(9.259,7.872)"
         fill="#df1a16" />
      <path
         id="Path_3682"
         data-name="Path 3682"
         d="m -0.819,52.192 c 2.842,2.06 6.226,3.667 9.206,3.819 12.468,0.634 11.837,-5.294 13.626,-10.205 A 139.357,139.357 0 0 0 29.346,6.556 C 29.524,-2.029 6.151,44.92 -0.819,52.192 Z"
         transform="translate(17.367,13.452)"
         fill="#cf1915" />
      <path
         id="Path_3669"
         data-name="Path 3669"
         d="M -2.854,0.415 C 8.072,6.816 27.3,29.646 35.506,32.242 43.712,34.838 24.171,60.957 11.7,61.591 -0.771,62.225 -0.133,56.3 -1.922,51.386 -8.856,32.351 -13.781,-5.986 -2.854,0.415 Z"
         transform="translate(107.286,7.872)"
         fill="#df1a16" />
      <path
         id="Path_3667"
         data-name="Path 3667"
         d="m 22.205,4.126 c 0,0 16.327,-8.287 32.053,-8.287 15.726,0 32.042,8.287 32.042,8.287 0,0 2.625,22.507 9.659,43.55 7.034,21.043 15.25,60.246 12.369,65.89 -2.881,5.644 -27.113,13.754 -54.07,13.754 -26.957,0 -51,-8.006 -53.76,-13.754 C -2.262,107.818 6,66.71 12.931,47.676 19.862,28.642 22.205,4.126 22.205,4.126 Z"
         transform="translate(18.201,4.161)"
         fill="#df1a16" />
      <path
         id="Path_3680"
         data-name="Path 3680"
         d="m 46.992,15.155 c 0.589,2.456 1.291,5.163 2.255,8.554 0.568,2 1.385,4.679 2.271,7.33 7.034,21.042 15.25,60.246 12.369,65.89 -1.3,2.54 -6.917,5.579 -15.715,8.324 6.296,-27.197 -4.887,-105.538 -1.18,-90.098 z"
         transform="translate(62.643,20.798)"
         fill="#cf1915" />
      <path
         id="Path_3681"
         data-name="Path 3681"
         d="m -0.889,1.468 c 10.926,6.4 30.156,29.231 38.36,31.827 3.224,1.02 2.164,5.673 -1.371,11.474 C 18.673,38.743 -9.265,8.3 -11.109,2.681 -12.633,-4.105 -4.91,-0.888 -0.889,1.468 Z"
         transform="translate(105.321,6.82)"
         fill="#cf1915" />
    </g>
    <g
       id="Group_5079"
       data-name="Group 5079"
       transform="translate(100.662,176.657)">
      <path
         id="Path_3667-2"
         data-name="Path 3667"
         d="m 14.451,1.759 c 5.421,-2.222 16.194,-5.92 26.7,-5.92 9.577,0 19.373,3.074 26.139,5.7 1.667,0.646 4.114,16.866 -26.139,16.993 C 10.898,18.659 12.635,2.5 14.451,1.759 Z"
         transform="translate(-13.598,4.161)"
         fill="#780847" />
    </g>
  </g>
</svg>
