<?xml version="1.0" encoding="UTF-8" standalone="no"?>
<svg
   id="Laag_1"
   data-name="Laag 1"
   viewBox="0 0 373424.86 1078111.2"
   version="1.1"
   width="373424.88"
   height="1078111.1"
   xmlns="http://www.w3.org/2000/svg">
  <defs
     id="defs254">
    <style
       id="style252">
      .cls-1 {
        fill: #fff;
      }

      .cls-2 {
        fill: #e19e82;
      }

      .cls-3 {
        fill: #028151;
      }

      .cls-4 {
        fill: #e69674;
      }

      .cls-5 {
        fill: #ddd5d2;
      }

      .cls-6 {
        fill: #cf1915;
      }

      .cls-7 {
        fill: #3d3533;
      }

      .cls-8 {
        fill: #e5a451;
      }

      .cls-9 {
        fill: #333d63;
      }

      .cls-10 {
        fill: #039960;
      }

      .cls-11 {
        fill: #e8b29b;
      }

      .cls-12 {
        fill: #b57e67;
      }

      .cls-13 {
        fill: #edb9a3;
      }

      .cls-14 {
        fill: #ecac5a;
      }

      .cls-15 {
        fill: #df1a16;
      }

      .cls-16 {
        fill: #263056;
      }

      .cls-17 {
        fill: #322a28;
      }

      .cls-18 {
        fill: #ccb050;
      }

      .cls-19 {
        fill: #e8a68a;
      }
    </style>
  </defs>
  <g
     id="karakter-man_3"
     data-name="karakter-man 3"
     transform="translate(0,-6.9214784)">
    <g
       id="Group_8274"
       data-name="Group 8274">
      <path
         id="Path_3650"
         data-name="Path 3650"
         class="cls-19"
         d="m 310.05,483.26 c -30.97,-0.27 -50.46,-15.95 -48.52,-25.34 5.52,-9.15 5.43,-18.48 5.43,-29.05 0,-34.31 2.18,-62.45 43.09,-62.66 40.91,-0.2 43.26,28.35 43.26,62.66 0,9.09 -0.73,19.48 5.21,28.65 2.58,9.39 -15.58,26.03 -48.46,25.74 z" />
      <path
         id="Path_3694"
         data-name="Path 3694"
         class="cls-2"
         d="m 353.31,428.86 c 0,9.09 -0.73,19.48 5.21,28.65 1.45,5.29 -3.67,12.87 -15.6,19.1 -6.94,3.67 10.39,-82.06 10.39,-47.75 z" />
      <path
         id="Path_3624"
         data-name="Path 3624"
         class="cls-19"
         d="m 546.29,229.98 -20.67,119.44 c 0,0 47.3,0.02 56.56,-53.5 9.26,-53.51 -35.89,-65.95 -35.89,-65.95 z" />
      <path
         id="Path_3623"
         data-name="Path 3623"
         class="cls-19"
         d="m 73.76,229.98 20.67,119.44 c 0,0 -47.3,0.02 -56.56,-53.5 -9.26,-53.51 35.89,-65.95 35.89,-65.95 z" />
      <path
         id="Path_3620"
         data-name="Path 3620"
         class="cls-13"
         d="M 310.03,451.53 C 102.3,450.18 70.46,380.69 70.46,262.79 70.46,144.89 120.08,50.02 310.03,49.32 499.98,48.61 549.6,144.9 549.6,262.8 c 0,117.9 -31.83,190.09 -239.57,188.74 z" />
      <ellipse
         id="Ellipse_555"
         data-name="Ellipse 555"
         class="cls-1"
         cx="193.8"
         cy="285.56"
         rx="59.299999"
         ry="80.650002" />
      <ellipse
         id="Ellipse_556"
         data-name="Ellipse 556"
         class="cls-17"
         cx="205.66"
         cy="290.29999"
         rx="37.950001"
         ry="52.18" />
      <circle
         id="Ellipse_557"
         data-name="Ellipse 557"
         class="cls-1"
         cx="186.67999"
         cy="261.84"
         r="4.7399998" />
      <ellipse
         id="Ellipse_558"
         data-name="Ellipse 558"
         class="cls-1"
         cx="426.25"
         cy="285.56"
         ry="80.650002"
         rx="59.299999" />
      <ellipse
         id="Ellipse_559"
         data-name="Ellipse 559"
         class="cls-17"
         cx="414.39001"
         cy="290.29999"
         rx="37.950001"
         ry="52.18" />
      <circle
         id="Ellipse_560"
         data-name="Ellipse 560"
         class="cls-1"
         cx="395.42001"
         cy="261.84"
         r="4.7399998" />
      <path
         id="Path_3621"
         data-name="Path 3621"
         class="cls-12"
         d="m 286.3,376.45 h 47.45 c 0,0 0.71,43.69 -23.2,43.69 -23.91,0 -24.25,-43.69 -24.25,-43.69 z" />
      <path
         id="Path_3622"
         data-name="Path 3622"
         class="cls-1"
         d="m 298.83,376.45 h 22.38 c 0,0 -0.01,9 -11.3,9 -11.29,0 -11.09,-9 -11.09,-9 z" />
      <path
         id="Path_3648"
         data-name="Path 3648"
         class="cls-19"
         d="m 310.03,349.42 c -16.43,-0.11 -18.95,-5.6 -18.95,-14.93 0,-9.33 3.92,-16.83 18.95,-16.88 15.03,-0.05 18.95,7.56 18.95,16.88 0,9.32 -2.52,15.03 -18.95,14.92 z" />
      <path
         id="Path_3685"
         data-name="Path 3685"
         class="cls-11"
         d="m 512.52,125.4 c 27.17,36.31 37.08,84.69 37.08,137.39 0,101.04 -23.38,168.51 -162.27,185.06 76.41,-34.86 152.34,-36.04 125.19,-322.45 z" />
      <path
         id="Path_3649"
         data-name="Path 3649"
         class="cls-14"
         d="m 100.59,196.34 c 0,0 -13.49,78.27 -22.72,82.12 -9.23,3.85 -14.19,-41.61 -14.19,-66.72 -20.78,1.74 7.33,-63.42 7.33,-63.42 0,0 -51.95,-6.77 63.18,-87.19 C 112.1,50.96 138.16,21.3 217.99,27.11 204.28,7 244.1,-4.6 310.03,16.63 c -10.54,-18.54 43.12,-28.57 94.49,8.38 31.37,-3.31 108.11,14.27 81.6,32.05 28.53,18.92 94.39,65.19 57.99,74.82 8.56,23.33 28.83,78.94 12.25,79.88 0,22.63 -1.87,81.49 -17.46,66.72 -15.59,-14.77 -44.91,-125.8 -44.91,-125.8 -2.47,18.95 -16.19,34.51 -34.68,39.33 -32.22,9.07 -91.59,-61.21 -91.59,-61.21 0,0 -88.51,59.4 -112.78,50.7 -14.95,-5.65 -27.84,-15.7 -36.96,-28.83 0,0 -57.76,62.68 -83.8,73.59 -26.04,10.91 -33.6,-29.92 -33.6,-29.92 z" />
      <ellipse
         id="Ellipse_561"
         data-name="Ellipse 561"
         class="cls-4"
         cx="139.98"
         cy="376.45001"
         rx="11.86"
         ry="16.6"
         transform="rotate(-48,139.97954,376.44741)" />
      <ellipse
         id="Ellipse_562"
         data-name="Ellipse 562"
         class="cls-4"
         cx="480.07001"
         cy="376.45001"
         rx="16.6"
         ry="11.86"
         transform="rotate(-42,480.06941,376.44118)" />
      <path
         id="Path_3688"
         data-name="Path 3688"
         class="cls-8"
         d="m 494,152.67 c 0,0 -6.67,37.56 -30.22,39.87 -23.55,2.31 -32.09,-3.39 -45.35,-14.35 51.81,6.08 75.58,-25.52 75.58,-25.52 z" />
      <path
         id="Path_3689"
         data-name="Path 3689"
         class="cls-8"
         d="m 367.72,130.79 c 0,0 -83.39,62.75 -117.76,49.93 -7.21,-2.32 -17.73,-11.63 -22.03,-16.42 41.41,10.93 139.79,-33.51 139.79,-33.51 z" />
      <path
         id="Path_3690"
         data-name="Path 3690"
         class="cls-8"
         d="m 217.99,152.67 c 0,0 -57.76,62.68 -83.8,73.6 -13.34,5.59 -21.82,-2.39 -27.62,-12.77 31.42,0.53 111.42,-60.82 111.42,-60.82 z" />
      <path
         id="Path_3691"
         data-name="Path 3691"
         class="cls-8"
         d="m 100.59,196.34 c 0,0 -13.49,78.27 -22.72,82.12 -3.69,1.54 -6.7,-4.81 -9.3,-16.01 12.97,-7.93 32.02,-66.12 32.02,-66.12 z" />
      <path
         id="Path_3692"
         data-name="Path 3692"
         class="cls-7"
         d="m 440.31,252.18 c 7.02,8.43 12.04,22.47 12.04,38.12 0,28.82 -16.99,52.18 -37.95,52.18 -9.31,0 -17.83,-4.6 -25.37,-13.37 56.87,10.32 62.52,-47.65 51.28,-76.94 z" />
      <path
         id="Path_3693"
         data-name="Path 3693"
         class="cls-7"
         d="m 231.57,252.18 c 7.02,8.43 12.04,22.47 12.04,38.12 0,28.82 -16.99,52.18 -37.95,52.18 -9.31,0 -17.83,-4.6 -25.37,-13.37 56.87,10.32 62.52,-47.65 51.28,-76.94 z" />
      <path
         id="Path_7444"
         data-name="Path 7444"
         class="cls-8"
         d="m 556.37,211.75 c 0,22.63 -1.87,81.49 -17.46,66.72 -2.7,-2.56 -5.81,-7.99 -9.68,-16.54 11.24,-4.43 21.31,-22.97 27.14,-50.18 z" />
      <path
         id="Path_7445"
         data-name="Path 7445"
         class="cls-8"
         d="m 559.34,178.85 c 4.27,16.73 5.77,32.41 -2.97,32.9 2.18,-7.97 2.45,-17.86 2.97,-32.9 z" />
      <path
         id="Path_7446"
         data-name="Path 7446"
         class="cls-8"
         d="m 516.43,78.69 c 36.83,28.44 48.79,47.59 27.69,53.17 4.13,-9.98 -11.3,-31.91 -27.69,-53.17 z" />
      <path
         id="Path_7447"
         data-name="Path 7447"
         class="cls-8"
         d="M 424.66,25.1 C 458.8,28.2 508.51,42 486.08,57.12 482.3,47 451.14,29.48 424.66,25.1 Z" />
      <path
         id="Path_7448"
         data-name="Path 7448"
         class="cls-8"
         d="M 387.23,14.23 C 361.41,-3.38 298.68,-6.78 310.07,16.52 315.91,7.2 362.49,4.09 387.23,14.23 Z" />
      <path
         id="Path_7449"
         data-name="Path 7449"
         class="cls-8"
         d="M 288.07,10.57 C 250.64,0.54 203.1,3.61 217.85,27.04 223.69,17.72 260.5,6.85 288.07,10.58 Z" />
      <path
         id="Path_7450"
         data-name="Path 7450"
         class="cls-8"
         d="m 198.27,26.42 c -44.48,-2.68 -90.81,19.56 -64.13,34.71 -2.2,-12.46 37.12,-30.71 64.13,-34.71 z" />
      <path
         id="Path_7451"
         data-name="Path 7451"
         class="cls-8"
         d="m 110.81,78.17 c -39.06,28.99 -69.17,62.91 -39.65,70.3 -2.2,-12.46 16.17,-44.79 39.65,-70.3 z" />
      <path
         id="Path_7452"
         data-name="Path 7452"
         class="cls-8"
         d="M 67.85,156.19 C 49.18,204 56.5,212.77 63.67,211.76 56.22,201.52 59.93,192.32 67.85,156.19 Z" />
    </g>
  </g>
</svg>
