<?xml version="1.0" encoding="UTF-8" standalone="no"?>
<svg
   id="Laag_1"
   data-name="Laag 1"
   viewBox="0 0 373424.86 1078111.2"
   version="1.1"
   width="373424.88"
   height="1078111.1"
   xmlns="http://www.w3.org/2000/svg">
  <defs
     id="defs254">
    <style
       id="style252">
      .cls-1 {
        fill: #fff;
      }

      .cls-2 {
        fill: #e19e82;
      }

      .cls-3 {
        fill: #028151;
      }

      .cls-4 {
        fill: #e69674;
      }

      .cls-5 {
        fill: #ddd5d2;
      }

      .cls-6 {
        fill: #cf1915;
      }

      .cls-7 {
        fill: #3d3533;
      }

      .cls-8 {
        fill: #e5a451;
      }

      .cls-9 {
        fill: #333d63;
      }

      .cls-10 {
        fill: #039960;
      }

      .cls-11 {
        fill: #e8b29b;
      }

      .cls-12 {
        fill: #b57e67;
      }

      .cls-13 {
        fill: #edb9a3;
      }

      .cls-14 {
        fill: #ecac5a;
      }

      .cls-15 {
        fill: #df1a16;
      }

      .cls-16 {
        fill: #263056;
      }

      .cls-17 {
        fill: #322a28;
      }

      .cls-18 {
        fill: #ccb050;
      }

      .cls-19 {
        fill: #e8a68a;
      }
    </style>
  </defs>
  <g
     id="karakter-man_3"
     data-name="karakter-man 3"
     transform="translate(0,-6.9214784)">
    <g
       id="Group_8274"
       data-name="Group 8274">
      <ellipse
         id="Ellipse_555"
         data-name="Ellipse 555"
         class="cls-1"
         cx="193.8"
         cy="285.56"
         rx="59.299999"
         ry="80.650002" />
      <ellipse
         id="Ellipse_556"
         data-name="Ellipse 556"
         class="cls-17"
         cx="205.66"
         cy="290.29999"
         rx="37.950001"
         ry="52.18" />
      <circle
         id="Ellipse_557"
         data-name="Ellipse 557"
         class="cls-1"
         cx="186.67999"
         cy="261.84"
         r="4.7399998" />
      <ellipse
         id="Ellipse_558"
         data-name="Ellipse 558"
         class="cls-1"
         cx="426.25"
         cy="285.56"
         ry="80.650002"
         rx="59.299999" />
      <ellipse
         id="Ellipse_559"
         data-name="Ellipse 559"
         class="cls-17"
         cx="414.39001"
         cy="290.29999"
         rx="37.950001"
         ry="52.18" />
      <circle
         id="Ellipse_560"
         data-name="Ellipse 560"
         class="cls-1"
         cx="395.42001"
         cy="261.84"
         r="4.7399998" />
      <path
         id="Path_3692"
         data-name="Path 3692"
         class="cls-7"
         d="m 440.31,252.18 c 7.02,8.43 12.04,22.47 12.04,38.12 0,28.82 -16.99,52.18 -37.95,52.18 -9.31,0 -17.83,-4.6 -25.37,-13.37 56.87,10.32 62.52,-47.65 51.28,-76.94 z" />
      <path
         id="Path_3693"
         data-name="Path 3693"
         class="cls-7"
         d="m 231.57,252.18 c 7.02,8.43 12.04,22.47 12.04,38.12 0,28.82 -16.99,52.18 -37.95,52.18 -9.31,0 -17.83,-4.6 -25.37,-13.37 56.87,10.32 62.52,-47.65 51.28,-76.94 z" />
    </g>
  </g>
</svg>
