<?xml version="1.0" encoding="UTF-8" standalone="no"?>
<svg
   id="karakter-vrouw"
   width="615.13403"
   height="1038.323"
   viewBox="0 0 615.13402 1038.323"
   version="1.1"
   xmlns="http://www.w3.org/2000/svg">
  <defs
     id="defs638" />
  <path
     id="Path_3709"
     data-name="Path 3709"
     d="m 51.509212,184.32184 c -4.114014,113.81805 -39.281649,199.56919 -8.671338,258.47457 30.61031,58.90538 164.209806,57.21247 264.151846,57.21247 130.92747,0 225.27942,-4.37356 264.98002,-49.30322 39.7006,-44.92966 -0.0171,-147.60744 0,-227.39776 C 500.93784,186.36611 55.62079,70.50625 51.509212,184.32184 Z"
     fill="#ecac5a"
     style="stroke-width:2.44639" />
  <path
     id="Path_3710"
     data-name="Path 3710"
     d="m 522.88168,480.86107 c 20.23394,-6.77901 37.13574,-16.62934 49.08562,-30.15295 39.70304,-44.92967 8.07214,-130.96091 3.32726,-174.03304 9.81615,92.35815 4.76193,133.57767 -52.41288,204.18599 z"
     fill="#e5a451"
     style="stroke-width:2.44639" />
  <g
     id="Group_5093"
     data-name="Group 5093"
     transform="matrix(2.4357691,0,0,2.4570526,2.2300132e-6,-0.00378831)">
    <g
       id="Group_5064"
       data-name="Group 5064"
       transform="translate(21.079)">
      <path
         id="Path_3708"
         data-name="Path 3708"
         d="M 80.46,73.893 C 46.421,79.587 -2.28,80.448 -2.2,74.9 0.624,35.1 28.238,0.448 104.048,0.2 c 81.34,-0.268 107.605,36.441 107.605,80.975 0.424,22.444 -2.8,32 -9.995,28.469 -29.386,-15.034 -59.823,-61.92 -59.823,-61.92 0,0 -27.335,20.476 -61.375,26.169 z"
         fill="#ecac5a"
         transform="translate(2.201,-0.197)" />
      <path
         id="Path_3711"
         data-name="Path 3711"
         d="m 94.489,4.4 c 39.943,12.416 54.325,41.086 54.325,74.041 0.37,19.571 -2.036,29.341 -7.936,29.138 -0.051,0 -3.5,-0.886 -9.1,-5.024 C 142.246,91.628 139.7,34.336 94.489,4.4 Z"
         fill="#e5a451"
         transform="translate(65.04,2.895)" />
      <path
         id="Path_3712"
         data-name="Path 3712"
         d="M 80.46,55.173 C 46.421,60.867 -2.28,61.729 -2.2,56.18 A 90.022,90.022 0 0 1 -0.538,44.19 C 55.531,59.152 141.835,29 141.835,29 c 0,0 -27.335,20.48 -61.375,26.173 z"
         fill="#e5a451"
         transform="translate(2.201,18.883)" />
    </g>
  </g>
</svg>
