<?xml version="1.0" encoding="UTF-8" standalone="no"?>
<svg
   id="Laag_1"
   data-name="Laag 1"
   viewBox="0 0 373424.86 1078111.2"
   version="1.1"
   width="373424.88"
   height="1078111.1"
   xmlns="http://www.w3.org/2000/svg">
  <defs
     id="defs3094">
    <style
       id="style3092">
      .cls-1 {
        fill: #fff;
      }

      .cls-2 {
        fill: #e19e82;
      }

      .cls-3 {
        fill: #028151;
      }

      .cls-4 {
        fill: #e69674;
      }

      .cls-5 {
        fill: #ddd5d2;
      }

      .cls-6 {
        fill: #cf1915;
      }

      .cls-7 {
        fill: #3d3533;
      }

      .cls-8 {
        fill: #e5a451;
      }

      .cls-9 {
        fill: #333d63;
      }

      .cls-10 {
        fill: #039960;
      }

      .cls-11 {
        fill: #e8b29b;
      }

      .cls-12 {
        fill: #b57e67;
      }

      .cls-13 {
        fill: #edb9a3;
      }

      .cls-14 {
        fill: #ecac5a;
      }

      .cls-15 {
        fill: #df1a16;
      }

      .cls-16 {
        fill: #263056;
      }

      .cls-17 {
        fill: #322a28;
      }

      .cls-18 {
        fill: #ccb050;
      }

      .cls-19 {
        fill: #e8a68a;
      }
    </style>
  </defs>
  <g
     id="karakter-man_3"
     data-name="karakter-man 3"
     transform="translate(0,-6.9214784)">
    <g
       id="Group_8274"
       data-name="Group 8274">
      <path
         id="Path_3649"
         data-name="Path 3649"
         class="cls-14"
         d="m 100.59,196.34 c 0,0 -13.49,78.27 -22.72,82.12 -9.23,3.85 -14.19,-41.61 -14.19,-66.72 -20.78,1.74 7.33,-63.42 7.33,-63.42 0,0 -51.95,-6.77 63.18,-87.19 C 112.1,50.96 138.16,21.3 217.99,27.11 204.28,7 244.1,-4.6 310.03,16.63 c -10.54,-18.54 43.12,-28.57 94.49,8.38 31.37,-3.31 108.11,14.27 81.6,32.05 28.53,18.92 94.39,65.19 57.99,74.82 8.56,23.33 28.83,78.94 12.25,79.88 0,22.63 -1.87,81.49 -17.46,66.72 -15.59,-14.77 -44.91,-125.8 -44.91,-125.8 -2.47,18.95 -16.19,34.51 -34.68,39.33 -32.22,9.07 -91.59,-61.21 -91.59,-61.21 0,0 -88.51,59.4 -112.78,50.7 -14.95,-5.65 -27.84,-15.7 -36.96,-28.83 0,0 -57.76,62.68 -83.8,73.59 -26.04,10.91 -33.6,-29.92 -33.6,-29.92 z" />
      <path
         id="Path_3688"
         data-name="Path 3688"
         class="cls-8"
         d="m 494,152.67 c 0,0 -6.67,37.56 -30.22,39.87 -23.55,2.31 -32.09,-3.39 -45.35,-14.35 51.81,6.08 75.58,-25.52 75.58,-25.52 z" />
      <path
         id="Path_3689"
         data-name="Path 3689"
         class="cls-8"
         d="m 367.72,130.79 c 0,0 -83.39,62.75 -117.76,49.93 -7.21,-2.32 -17.73,-11.63 -22.03,-16.42 41.41,10.93 139.79,-33.51 139.79,-33.51 z" />
      <path
         id="Path_3690"
         data-name="Path 3690"
         class="cls-8"
         d="m 217.99,152.67 c 0,0 -57.76,62.68 -83.8,73.6 -13.34,5.59 -21.82,-2.39 -27.62,-12.77 31.42,0.53 111.42,-60.82 111.42,-60.82 z" />
      <path
         id="Path_3691"
         data-name="Path 3691"
         class="cls-8"
         d="m 100.59,196.34 c 0,0 -13.49,78.27 -22.72,82.12 -3.69,1.54 -6.7,-4.81 -9.3,-16.01 12.97,-7.93 32.02,-66.12 32.02,-66.12 z" />
      <path
         id="Path_7444"
         data-name="Path 7444"
         class="cls-8"
         d="m 556.37,211.75 c 0,22.63 -1.87,81.49 -17.46,66.72 -2.7,-2.56 -5.81,-7.99 -9.68,-16.54 11.24,-4.43 21.31,-22.97 27.14,-50.18 z" />
      <path
         id="Path_7445"
         data-name="Path 7445"
         class="cls-8"
         d="m 559.34,178.85 c 4.27,16.73 5.77,32.41 -2.97,32.9 2.18,-7.97 2.45,-17.86 2.97,-32.9 z" />
      <path
         id="Path_7446"
         data-name="Path 7446"
         class="cls-8"
         d="m 516.43,78.69 c 36.83,28.44 48.79,47.59 27.69,53.17 4.13,-9.98 -11.3,-31.91 -27.69,-53.17 z" />
      <path
         id="Path_7447"
         data-name="Path 7447"
         class="cls-8"
         d="M 424.66,25.1 C 458.8,28.2 508.51,42 486.08,57.12 482.3,47 451.14,29.48 424.66,25.1 Z" />
      <path
         id="Path_7448"
         data-name="Path 7448"
         class="cls-8"
         d="M 387.23,14.23 C 361.41,-3.38 298.68,-6.78 310.07,16.52 315.91,7.2 362.49,4.09 387.23,14.23 Z" />
      <path
         id="Path_7449"
         data-name="Path 7449"
         class="cls-8"
         d="M 288.07,10.57 C 250.64,0.54 203.1,3.61 217.85,27.04 223.69,17.72 260.5,6.85 288.07,10.58 Z" />
      <path
         id="Path_7450"
         data-name="Path 7450"
         class="cls-8"
         d="m 198.27,26.42 c -44.48,-2.68 -90.81,19.56 -64.13,34.71 -2.2,-12.46 37.12,-30.71 64.13,-34.71 z" />
      <path
         id="Path_7451"
         data-name="Path 7451"
         class="cls-8"
         d="m 110.81,78.17 c -39.06,28.99 -69.17,62.91 -39.65,70.3 -2.2,-12.46 16.17,-44.79 39.65,-70.3 z" />
      <path
         id="Path_7452"
         data-name="Path 7452"
         class="cls-8"
         d="M 67.85,156.19 C 49.18,204 56.5,212.77 63.67,211.76 56.22,201.52 59.93,192.32 67.85,156.19 Z" />
    </g>
  </g>
</svg>
