<?xml version="1.0" encoding="UTF-8" standalone="no"?>
<svg
   id="Laag_1"
   data-name="Laag 1"
   viewBox="0 0 373424.86 1078111.2"
   version="1.1"
   width="373424.88"
   height="1078111.1"
   xmlns="http://www.w3.org/2000/svg">
  <defs
     id="defs3094">
    <style
       id="style3092">
      .cls-1 {
        fill: #fff;
      }

      .cls-2 {
        fill: #e19e82;
      }

      .cls-3 {
        fill: #028151;
      }

      .cls-4 {
        fill: #e69674;
      }

      .cls-5 {
        fill: #ddd5d2;
      }

      .cls-6 {
        fill: #cf1915;
      }

      .cls-7 {
        fill: #3d3533;
      }

      .cls-8 {
        fill: #e5a451;
      }

      .cls-9 {
        fill: #333d63;
      }

      .cls-10 {
        fill: #039960;
      }

      .cls-11 {
        fill: #e8b29b;
      }

      .cls-12 {
        fill: #b57e67;
      }

      .cls-13 {
        fill: #edb9a3;
      }

      .cls-14 {
        fill: #ecac5a;
      }

      .cls-15 {
        fill: #df1a16;
      }

      .cls-16 {
        fill: #263056;
      }

      .cls-17 {
        fill: #322a28;
      }

      .cls-18 {
        fill: #ccb050;
      }

      .cls-19 {
        fill: #e8a68a;
      }
    </style>
  </defs>
  <g
     id="karakter-man_3"
     data-name="karakter-man 3"
     transform="translate(0,-6.9214784)">
    <g
       id="Group_8274"
       data-name="Group 8274">
      <path
         id="Path_3649-0"
         data-name="Path 3649"
         class="cls-17"
         d="m 166.53941,111.2877 c 0,0 -55.70927,152.03932 -81.551428,168.25691 C 59.145824,295.7622 57.197322,238.80519 57.197322,212.13626 57.197322,97.623293 109.75749,5.4799616 310.9593,4.8048533 512.16111,4.1297595 564.72128,97.638517 564.72128,212.15149 c 0,24.04975 -1.92391,86.59535 -17.98423,70.90058 -16.06032,-15.69477 -34.12327,-95.062 -34.12327,-95.062 a 25.14838,25.943073 0 0 1 -16.85251,21.37473 c -15.74541,5.75612 -57.20998,-46.95233 -57.20998,-46.95233 0,0 5.03361,23.79087 -24.77935,25.5573 -29.81295,1.76642 -72.74874,-33.1712 -72.74874,-33.1712 0,0 22.84562,32.79558 -38.14327,35.26755 -60.98888,2.47199 -136.34052,-78.77842 -136.34052,-78.77842 z"
         style="fill:#52311e;stroke-width:4.99759" />
      <path
         id="Path_3687"
         data-name="Path 3687"
         class="cls-18"
         d="m 422.62874,17.083529 c 109.78983,28.39475 142.09745,105.274771 142.09745,195.052731 0,24.04975 -1.92389,86.59535 -17.98421,70.90059 C 530.68166,267.34207 583.09912,113.51603 422.62874,17.083529 Z"
         style="fill:#3d2517;stroke-width:4.99759" />
      <path
         id="Path_6708"
         data-name="Path 6708"
         class="cls-18"
         d="m 512.64331,187.97484 a 25.14838,25.943073 0 0 1 -16.85744,21.39504 c -3.4443,1.25375 -8.09412,-0.26902 -14.32832,-4.06073 a 82.87993,85.498949 0 0 0 31.18576,-17.33431 z"
         style="fill:#3d2517;stroke-width:4.99759" />
      <path
         id="Path_6709"
         data-name="Path 6709"
         class="cls-18"
         d="m 438.55621,162.41754 c 0,0 5.03361,23.79088 -24.77935,25.5573 -9.24058,0.5482 -31.49083,-5.13684 -47.86606,-16.20744 33.91169,3.81202 57.20506,3.12678 72.64541,-9.34986 z"
         style="fill:#3d2517;stroke-width:4.99759" />
      <path
         id="Path_6710"
         data-name="Path 6710"
         class="cls-18"
         d="m 341.02813,154.80365 c 0,0 22.8456,32.79558 -38.14327,35.26755 -17.56598,0.71064 -36.32271,-5.51753 -55.10896,-15.27347 74.9531,5.17237 93.25223,-19.99408 93.25223,-19.99408 z"
         style="fill:#3d2517;stroke-width:4.99759" />
      <path
         id="Path_6711"
         data-name="Path 6711"
         class="cls-18"
         d="m 166.54432,111.2877 c 0,0 -55.70434,152.03932 -81.551424,168.25691 C 72.32768,287.49351 65.399701,277.86955 61.325579,261.60627 92.275151,262.29152 166.54432,111.2877 166.54432,111.2877 Z"
         style="fill:#3d2517;stroke-width:4.99759" />
    </g>
  </g>
</svg>
