<?xml version="1.0" encoding="UTF-8" standalone="no"?>
<svg
   id="Laag_1"
   data-name="Laag 1"
   viewBox="0 0 373424.86 1078111.2"
   version="1.1"
   width="373424.88"
   height="1078111.1"
   xmlns="http://www.w3.org/2000/svg">
  <defs
     id="defs3094">
    <style
       id="style3092">
      .cls-1 {
        fill: #fff;
      }

      .cls-2 {
        fill: #e19e82;
      }

      .cls-3 {
        fill: #028151;
      }

      .cls-4 {
        fill: #e69674;
      }

      .cls-5 {
        fill: #ddd5d2;
      }

      .cls-6 {
        fill: #cf1915;
      }

      .cls-7 {
        fill: #3d3533;
      }

      .cls-8 {
        fill: #e5a451;
      }

      .cls-9 {
        fill: #333d63;
      }

      .cls-10 {
        fill: #039960;
      }

      .cls-11 {
        fill: #e8b29b;
      }

      .cls-12 {
        fill: #b57e67;
      }

      .cls-13 {
        fill: #edb9a3;
      }

      .cls-14 {
        fill: #ecac5a;
      }

      .cls-15 {
        fill: #df1a16;
      }

      .cls-16 {
        fill: #263056;
      }

      .cls-17 {
        fill: #322a28;
      }

      .cls-18 {
        fill: #ccb050;
      }

      .cls-19 {
        fill: #e8a68a;
      }
    </style>
  </defs>
  <g
     id="karakter-man_3"
     data-name="karakter-man 3"
     transform="translate(0,-6.9214784)">
    <g
       id="Group_8274"
       data-name="Group 8274">
      <path
         id="Path_3649-9"
         data-name="Path 3649"
         class="cls-16"
         d="m 97.732974,190.05179 c 0,0 -13.650268,80.97466 -22.995072,84.95899 C 65.393098,278.9951 60.385555,231.96603 60.385555,205.9816 60.385555,94.507948 112.00214,4.8067868 309.64719,4.1389801 507.29225,3.4711744 558.90641,94.507948 558.90641,205.9816 c 0,23.41075 -1.88855,84.28868 -17.66461,69.03168 -15.77612,-15.257 -45.4422,-130.14221 -45.4422,-130.14221 0,0 -4.81426,27.84527 -24.80774,45.18072 -19.99348,17.33545 -102.969,-67.81111 -102.969,-67.81111 0,0 -76.42925,115.63306 -109.05531,83.74092 -32.62611,-31.89213 -42.44794,-61.11053 -42.44794,-61.11053 0,0 -58.43683,64.84474 -84.79306,76.13992 -26.35629,11.2952 -33.993576,-30.9592 -33.993576,-30.9592 z"
         style="fill:#c55d3a;stroke-width:2.47356" />
      <path
         id="Path_3687"
         data-name="Path 3687"
         class="cls-18"
         d="M 419.32877,16.101969 C 527.17075,43.747154 558.90639,118.5865 558.90639,205.9866 c 0,23.41074 -1.88853,84.28868 -17.66461,69.03168 -15.7761,-15.25701 35.7084,-165.03823 -121.91301,-258.916311 z"
         style="fill:#ba5736;stroke-width:2.47356" />
      <path
         id="Path_3688-7"
         data-name="Path 3688"
         class="cls-18"
         d="m 495.7996,144.87107 c 0,0 -4.81428,27.82776 -24.80776,45.17822 -4.85833,4.21443 -14.24471,3.6967 -34.10609,-8.90408 29.94252,1.96339 58.91385,-36.27414 58.91385,-36.27414 z"
         style="fill:#ba5736;stroke-width:2.47356" />
      <path
         id="Path_3689-0"
         data-name="Path 3689"
         class="cls-18"
         d="m 368.02533,122.24068 c 0,0 -76.43169,115.63055 -109.05778,83.74843 -4.07796,-3.98433 -7.8012,-7.92864 -12.15314,-12.88092 41.9073,11.30519 121.21092,-70.86751 121.21092,-70.86751 z"
         style="fill:#ba5736;stroke-width:2.47356" />
      <path
         id="Path_3690-6"
         data-name="Path 3690"
         class="cls-18"
         d="m 216.52206,144.87107 c 0,0 -58.43928,64.84474 -84.79551,76.13992 -13.49373,5.78267 -22.08264,-2.47112 -27.94636,-13.22105 31.79433,0.55275 112.74187,-62.91887 112.74187,-62.91887 z"
         style="fill:#ba5736;stroke-width:2.47356" />
      <path
         id="Path_3691-6"
         data-name="Path 3691"
         class="cls-18"
         d="m 97.732974,190.05179 c 0,0 -13.650268,80.97466 -22.995072,84.95899 -3.735475,1.59323 -6.778652,-4.97479 -9.410854,-16.5576 13.141442,-8.20377 32.405926,-68.40139 32.405926,-68.40139 z"
         style="fill:#ba5736;stroke-width:2.47356" />
    </g>
  </g>
</svg>
