<?xml version="1.0" encoding="UTF-8" standalone="no"?>
<svg
   id="karakter-vrouw"
   width="615.13403"
   height="1038.323"
   viewBox="0 0 615.13402 1038.323"
   version="1.1"
   xmlns="http://www.w3.org/2000/svg">
  <defs
     id="defs638" />
  <path
     id="Path_3709"
     data-name="Path 3709"
     d="m 51.509212,176.61131 c -4.114014,95.84658 -39.281649,168.05791 -8.671338,217.66234 30.61031,49.60443 164.209806,48.17882 264.151846,48.17882 130.92747,0 225.27942,-3.68299 264.98002,-41.51841 39.7006,-37.83543 -0.0171,-124.30075 0,-191.49246 C 500.93784,178.33279 55.62079,80.766799 51.509212,176.61131 Z"
     fill="#ecac5a"
     style="stroke-width:2.24496" />
  <path
     id="Path_3710"
     data-name="Path 3710"
     d="m 522.88168,426.3332 c 20.23394,-4.96868 37.13574,-12.18848 49.08562,-22.10061 39.70304,-32.9312 8.07214,-95.98779 3.32726,-127.55751 9.81615,67.6939 4.76193,97.90575 -52.41288,149.65812 z"
     fill="#e5a451"
     style="stroke-width:2.09442" />
  <g
     id="Group_5093"
     data-name="Group 5093"
     transform="matrix(2.4357691,0,0,2.4570526,2.2300132e-6,-0.00378831)">
    <g
       id="Group_5064"
       data-name="Group 5064"
       transform="translate(21.079)">
      <path
         id="Path_3650"
         data-name="Path 3650"
         d="M 20.823,48.573 C 8.026,48.46 -0.03,41.981 0.77,38.1 3.052,34.32 3.014,30.461 3.014,26.093 3.014,11.913 3.914,0.284 20.823,0.198 37.732,0.112 38.7,11.912 38.7,26.092 c 0,3.758 -0.3,8.05 2.152,11.841 1.063,3.88 -6.437,10.76 -20.029,10.64 z"
         fill="#e8a68a"
         transform="translate(86.235,144.633)" />
      <path
         id="Path_3694"
         data-name="Path 3694"
         d="m 22.527,15.05 c 0,3.758 -0.3,8.05 2.152,11.841 0.6,2.185 -1.519,5.32 -6.446,7.894 C 15.364,36.3 22.527,0.869 22.527,15.05 Z"
         fill="#e19e82"
         transform="translate(102.41,155.675)" />
      <path
         id="Path_3620"
         data-name="Path 3620"
         d="M 99.009,166.423 C 13.157,165.862 0,137.147 0,88.423 0,39.699 20.507,0.492 99.009,0.2 c 78.502,-0.292 99.009,39.5 99.009,88.224 0,48.724 -13.158,78.56 -99.009,77.999 z"
         transform="translate(8.039,13.67)"
         fill="#edb9a3" />
      <ellipse
         id="Ellipse_555"
         data-name="Ellipse 555"
         cx="24.507"
         cy="33.328999"
         rx="24.507"
         ry="33.328999"
         transform="translate(34.507,78.172)"
         fill="#ffffff" />
      <ellipse
         id="Ellipse_556"
         data-name="Ellipse 556"
         cx="15.684"
         cy="21.566"
         rx="15.684"
         ry="21.566"
         transform="translate(48.23,91.896)"
         fill="#322a28" />
      <circle
         id="Ellipse_557"
         data-name="Ellipse 557"
         cx="1.961"
         cy="1.961"
         transform="translate(54.112,99.738)"
         fill="#ffffff"
         r="1.961" />
      <ellipse
         id="Ellipse_558"
         data-name="Ellipse 558"
         cx="24.507"
         cy="33.328999"
         rx="24.507"
         ry="33.328999"
         transform="translate(130.573,78.172)"
         fill="#ffffff" />
      <ellipse
         id="Ellipse_559"
         data-name="Ellipse 559"
         cx="15.684"
         cy="21.566"
         rx="15.684"
         ry="21.566"
         transform="translate(134.494,91.896)"
         fill="#322a28" />
      <circle
         id="Ellipse_560"
         data-name="Ellipse 560"
         cx="1.961"
         cy="1.961"
         transform="translate(140.376,99.738)"
         fill="#ffffff"
         r="1.961" />
      <path
         id="Path_3621"
         data-name="Path 3621"
         d="m 0,0 h 19.605 c 0,0 0.295,18.055 -9.586,18.055 C 0.138,18.055 0,0 0,0 Z"
         transform="translate(97.244,149.063)"
         fill="#b57e67" />
      <path
         id="Path_3622"
         data-name="Path 3622"
         d="M 0,0 H 9.251 C 9.251,0 9.244,3.719 4.582,3.719 -0.08,3.719 0,0 0,0 Z"
         transform="translate(102.421,149.063)"
         fill="#ffffff" />
      <path
         id="Path_3648"
         data-name="Path 3648"
         d="M 7.831,13.344 C 1.041,13.3 0,11.028 0,7.175 0,3.322 1.622,0.22 7.831,0.2 c 6.209,-0.02 7.831,3.124 7.831,6.978 0,3.854 -1.041,6.21 -7.831,6.166 z"
         transform="translate(99.217,124.549)"
         fill="#e8a68a" />
      <path
         id="Path_3685"
         data-name="Path 3685"
         d="m 118.532,16.237 c 11.228,15 15.325,35 15.325,56.778 0,41.757 -9.663,69.642 -67.062,76.48 31.577,-14.404 62.958,-14.895 51.737,-133.258 z"
         transform="translate(72.199,29.077)"
         fill="#e8b29b" />
      <ellipse
         id="Ellipse_561"
         data-name="Ellipse 561"
         cx="4.901"
         cy="6.862"
         rx="4.901"
         ry="6.862"
         transform="rotate(-48,180.53125,42.171139)"
         fill="#e69674" />
      <ellipse
         id="Ellipse_562"
         data-name="Ellipse 562"
         cx="4.901"
         cy="6.862"
         rx="4.901"
         ry="6.862"
         transform="rotate(-132,122.76807,39.579015)"
         fill="#e69674" />
      <path
         id="Path_3692"
         data-name="Path 3692"
         d="m 23.847,2.964 c 2.9,3.485 4.974,9.287 4.974,15.754 0,11.91 -7.022,21.566 -15.684,21.566 -3.846,0 -7.369,-1.9 -10.483,-5.524 23.501,4.266 25.835,-19.693 21.193,-31.796 z"
         transform="translate(137.043,94.743)"
         fill="#3d3533" />
      <path
         id="Path_3693"
         data-name="Path 3693"
         d="m 23.847,2.964 c 2.9,3.485 4.974,9.287 4.974,15.754 0,11.91 -7.022,21.566 -15.684,21.566 -3.846,0 -7.369,-1.9 -10.483,-5.524 23.501,4.266 25.835,-19.693 21.193,-31.796 z"
         transform="translate(50.779,94.743)"
         fill="#3d3533" />
      <path
         id="Path_3708"
         data-name="Path 3708"
         d="M 80.46,73.893 C 46.421,79.587 -2.28,80.448 -2.2,74.9 0.624,35.1 28.238,0.448 104.048,0.2 c 81.34,-0.268 107.605,36.441 107.605,80.975 0.424,22.444 -2.8,32 -9.995,28.469 -29.386,-15.034 -59.823,-61.92 -59.823,-61.92 0,0 -27.335,20.476 -61.375,26.169 z"
         fill="#ecac5a"
         transform="translate(2.201,-0.197)" />
      <path
         id="Path_3711"
         data-name="Path 3711"
         d="m 94.489,4.4 c 39.943,12.416 54.325,41.086 54.325,74.041 0.37,19.571 -2.036,29.341 -7.936,29.138 -0.051,0 -3.5,-0.886 -9.1,-5.024 C 142.246,91.628 139.7,34.336 94.489,4.4 Z"
         fill="#e5a451"
         transform="translate(65.04,2.895)" />
      <path
         id="Path_3712"
         data-name="Path 3712"
         d="M 80.46,55.173 C 46.421,60.867 -2.28,61.729 -2.2,56.18 A 90.022,90.022 0 0 1 -0.538,44.19 C 55.531,59.152 141.835,29 141.835,29 c 0,0 -27.335,20.48 -61.375,26.173 z"
         fill="#e5a451"
         transform="translate(2.201,18.883)" />
    </g>
  </g>
</svg>
