<?xml version="1.0" encoding="UTF-8" standalone="no"?>
<svg
   width="611"
   height="1038"
   viewBox="0 0 610.99998 1038"
   version="1.1"
   id="svg5735"
   xmlns="http://www.w3.org/2000/svg"
   >
  <defs
     id="defs5663">
    <style
       id="style5652">
      .cls-1 {
        fill: #edb9a3;
      }

      .cls-2 {
        fill: #e8b29b;
      }

      .cls-3 {
        fill: #7b6c53;
      }

      .cls-4 {
        fill: #6c5f48;
      }

      .cls-5 {
        fill: #ddd5d2;
      }

      .cls-6 {
        fill: #18a65a;
      }

      .cls-7 {
        fill: #11743f;
      }

      .cls-8 {
        fill: #9ad3e4;
      }

      .cls-9 {
        fill: #7fc8d8;
      }

      .cls-10 {
        fill: #333d63;
      }

      .cls-11 {
        fill: #e8a68a;
      }

      .cls-12 {
        fill: #e19e82;
      }

      .cls-13 {
        fill: #fff;
      }

      .cls-14 {
        fill: #322a28;
      }

      .cls-15 {
        fill: #b57e67;
      }

      .cls-16 {
        fill: #3d3533;
      }

      .cls-17 {
        fill: #52311e;
      }

      .cls-18 {
        fill: #3d2517;
      }

      .cls-19 {
        fill: #e69674;
      }

      .cls-20 {
        filter: url(#Path_6714);
      }
    </style>
  </defs>
  <g
     id="Group_8613"
     data-name="Group 8613"
     transform="matrix(4.7759001,0,0,4.8527965,0.00477714,-0.01108543)">
    <g
       id="Group_7848"
       data-name="Group 7848"
       transform="translate(-911.662,-580.916)">
      <g
         id="Group_5064"
         data-name="Group 5064"
         transform="translate(919.33,580.916)">
        <path
           id="Path_3650"
           data-name="Path 3650"
           class="cls-11"
           d="M 10.9,24.7 C 4.419,24.646 0.338,21.364 0.743,19.4 1.9,17.482 1.88,15.527 1.88,13.315 1.88,6.131 2.335,0.24 10.9,0.2 c 8.565,-0.04 9.057,5.934 9.057,13.118 0,1.9 -0.152,4.078 1.09,6 0.539,1.961 -3.26,5.446 -10.147,5.382 z"
           transform="translate(46.343,72.989)" />
        <path
           id="Path_3694"
           data-name="Path 3694"
           class="cls-12"
           d="m 20.074,13.393 c 0,1.9 -0.152,4.078 1.09,6 0.3,1.107 -0.769,2.695 -3.265,4 -1.454,0.765 2.175,-17.183 2.175,-10 z"
           transform="translate(46.228,72.91)" />
        <path
           id="Path_3624"
           data-name="Path 3624"
           class="cls-11"
           d="M 3.838,0.284 -0.49,25.29 c 0,0 9.9,0 11.841,-11.2 C 13.292,2.89 3.838,0.284 3.838,0.284 Z"
           transform="translate(102.864,44.382)" />
        <path
           id="Path_3623"
           data-name="Path 3623"
           class="cls-11"
           d="m 7.286,0.284 4.328,25.006 c 0,0 -9.9,0 -11.841,-11.2 C -2.168,2.89 7.286,0.284 7.286,0.284 Z"
           transform="translate(0.49,44.382)" />
        <path
           id="Path_3620"
           data-name="Path 3620"
           class="cls-1"
           d="M 50.156,84.4 C 6.665,84.12 0,69.574 0,44.89 0,20.206 10.389,0.346 50.156,0.2 c 39.767,-0.146 50.156,20.01 50.156,44.693 0,24.683 -6.666,39.795 -50.156,39.507 z"
           transform="translate(7.083,6.645)" />
        <ellipse
           id="Ellipse_555"
           data-name="Ellipse 555"
           class="cls-13"
           cx="12.415"
           cy="16.884001"
           rx="12.415"
           ry="16.884001"
           transform="translate(20.491,39.418)" />
        <ellipse
           id="Ellipse_556"
           data-name="Ellipse 556"
           class="cls-14"
           cx="7.9450002"
           cy="10.925"
           rx="7.9450002"
           ry="10.925"
           transform="translate(27.443,46.37)" />
        <circle
           id="Ellipse_557"
           data-name="Ellipse 557"
           class="cls-13"
           cx="0.99299997"
           cy="0.99299997"
           r="0.99299997"
           transform="translate(30.423,50.343)" />
        <ellipse
           id="Ellipse_558"
           data-name="Ellipse 558"
           class="cls-13"
           cx="12.415"
           cy="16.884001"
           rx="12.415"
           ry="16.884001"
           transform="translate(69.157,39.418)" />
        <ellipse
           id="Ellipse_559"
           data-name="Ellipse 559"
           class="cls-14"
           cx="7.9450002"
           cy="10.925"
           rx="7.9450002"
           ry="10.925"
           transform="translate(71.143,46.37)" />
        <circle
           id="Ellipse_560"
           data-name="Ellipse 560"
           class="cls-13"
           cx="0.99299997"
           cy="0.99299997"
           r="0.99299997"
           transform="translate(74.123,50.343)" />
        <path
           id="Path_3621"
           data-name="Path 3621"
           class="cls-15"
           d="m 0,0 h 9.932 c 0,0 0.149,3.807 -4.856,3.807 C 0.071,3.807 0,0 0,0 Z"
           transform="translate(52.273,75.655)" />
        <path
           id="Path_3648"
           data-name="Path 3648"
           class="cls-11"
           d="M 3.967,6.857 C 0.527,6.834 0,5.684 0,3.732 0,1.78 0.822,0.209 3.967,0.2 7.112,0.191 7.934,1.78 7.934,3.732 c 0,1.952 -0.527,3.147 -3.967,3.125 z"
           transform="translate(53.272,62.815)" />
        <path
           id="Path_3685"
           data-name="Path 3685"
           class="cls-2"
           d="m 93,16.237 c 5.688,7.6 7.763,17.729 7.763,28.763 0,21.153 -4.9,35.279 -33.972,38.744 C 82.791,76.446 98.688,76.2 93,16.237 Z"
           transform="translate(6.627,6.536)" />
        <path
           id="Path_3692"
           data-name="Path 3692"
           class="cls-16"
           d="m 13.389,2.964 a 12.823,12.823 0 0 1 2.52,7.981 c 0,6.034 -3.557,10.925 -7.945,10.925 A 7,7 0 0 1 2.653,19.07 C 14.559,21.232 15.741,9.1 13.389,2.964 Z"
           transform="translate(71.125,46.35)" />
        <path
           id="Path_3693"
           data-name="Path 3693"
           class="cls-16"
           d="m 13.389,2.964 a 12.823,12.823 0 0 1 2.52,7.981 c 0,6.034 -3.557,10.925 -7.945,10.925 A 7,7 0 0 1 2.653,19.07 C 14.559,21.232 15.741,9.1 13.389,2.964 Z"
           transform="translate(27.425,46.35)" />
        <path
           id="Path_3649"
           data-name="Path 3649"
           class="cls-17"
           d="m 22.222,21.178 c 0,0 -11.322,29.953 -16.574,33.148 C 0.396,57.521 0,46.3 0,41.046 0,18.486 10.682,0.333 51.573,0.2 c 40.891,-0.133 51.573,18.289 51.573,40.849 0,4.738 -0.391,17.06 -3.655,13.968 C 96.227,51.925 92.556,36.289 92.556,36.289 A 5.111,5.111 0 0 1 89.131,40.5 c -3.2,1.134 -11.627,-9.25 -11.627,-9.25 0,0 1.023,4.687 -5.036,5.035 -6.059,0.348 -14.785,-6.535 -14.785,-6.535 0,0 4.643,6.461 -7.752,6.948 -12.395,0.487 -27.709,-15.52 -27.709,-15.52 z"
           transform="translate(5.665,-0.197)" />
        <path
           id="Path_3687"
           data-name="Path 3687"
           class="cls-18"
           d="m 74.778,2.636 c 22.313,5.594 28.879,20.74 28.879,38.427 0,4.738 -0.391,17.06 -3.655,13.968 -3.264,-3.092 7.389,-33.397 -25.224,-52.395 z"
           transform="translate(5.155,-0.214)" />
        <path
           id="Path_6708"
           data-name="Path 6708"
           class="cls-18"
           d="m 109.5,43.376 a 5.111,5.111 0 0 1 -3.426,4.215 c -0.7,0.247 -1.645,-0.053 -2.912,-0.8 a 16.844,16.844 0 0 0 6.338,-3.415 z"
           transform="translate(-11.273,-7.287)" />
        <path
           id="Path_6709"
           data-name="Path 6709"
           class="cls-18"
           d="m 89.83,37.352 c 0,0 1.023,4.687 -5.036,5.035 -1.878,0.108 -6.4,-1.012 -9.728,-3.193 6.892,0.751 11.626,0.616 14.764,-1.842 z"
           transform="translate(-6.66,-6.298)" />
        <path
           id="Path_6710"
           data-name="Path 6710"
           class="cls-18"
           d="m 65.292,35.557 c 0,0 4.643,6.461 -7.752,6.948 -3.57,0.14 -7.382,-1.087 -11.2,-3.009 15.233,1.019 18.952,-3.939 18.952,-3.939 z"
           transform="translate(-1.943,-6.003)" />
        <path
           id="Path_6711"
           data-name="Path 6711"
           class="cls-18"
           d="m 22.387,25.3 c 0,0 -11.321,29.953 -16.574,33.148 C 3.239,60.014 1.831,58.118 1.003,54.914 7.293,55.049 22.387,25.3 22.387,25.3 Z"
           transform="translate(5.501,-4.319)" />
      </g>
      <ellipse
         id="Ellipse_627"
         data-name="Ellipse 627"
         class="cls-19"
         cx="2.483"
         cy="3.4760001"
         rx="2.483"
         ry="3.4760001"
         transform="rotate(-48,1204.7517,-723.97133)" />
      <ellipse
         id="Ellipse_628"
         data-name="Ellipse 628"
         class="cls-19"
         cx="2.483"
         cy="3.4760001"
         rx="2.483"
         ry="3.4760001"
         transform="rotate(-132,652.5958,105.11089)" />
    </g>
  </g>
</svg>
