<?xml version="1.0" encoding="UTF-8" standalone="no"?>
<svg
   id="karakter-vrouw"
   width="252.54201"
   height="422.591"
   viewBox="0 0 252.542 422.591"
   version="1.1"
   xmlns="http://www.w3.org/2000/svg">
  <defs
     id="defs638" />
  <path
     id="Path_3709"
     data-name="Path 3709"
     d="m 21.147,75.019 c -1.689,46.323 -16.127,81.223 -3.56,105.197 12.567,23.974 67.416,23.285 108.447,23.285 53.752,0 92.488,-1.78 108.787,-20.066 16.299,-18.286 -0.007,-60.075 0,-92.549 C 205.659,75.851 22.835,28.697 21.147,75.019 Z"
     fill="#ecac5a" />
  <path
     id="Path_3710"
     data-name="Path 3710"
     d="m 214.668,195.708 c 8.307,-2.759 15.246,-6.768 20.152,-12.272 16.3,-18.286 3.314,-53.3 1.366,-70.83 4.03,37.589 1.955,54.365 -21.518,83.102 z"
     fill="#e5a451" />
  <g
     id="Group_5093"
     data-name="Group 5093">
    <g
       id="Group_5089"
       data-name="Group 5089"
       transform="translate(0,217.87)">
      <g
         id="Group_5088"
         data-name="Group 5088"
         transform="rotate(-90,128.494,-41.682)">
        <g
           id="Group_5086"
           data-name="Group 5086">
          <g
             id="Group_5084"
             data-name="Group 5084"
             transform="rotate(90,43.406,43.406)">
            <path
               id="Path_3678"
               data-name="Path 3678"
               d="M 58.305,49.988 C 48.7,41.375 38.9,18.608 26.863,13.818 14.826,9.028 14.852,0 14.852,0 L 0,12.371 c 0,0 7.906,3.8 10.886,14.554 2.98,10.754 28.1,26.331 34.84,36.132 1.217,1.769 0.85,9.4 2.728,11.542 6.3,0.161 20.655,-15.894 21.1,-21.832 0.157,-1.773 -8.866,-0.643 -11.249,-2.779 z"
               fill="#edb9a3" />
            <circle
               id="Ellipse_565"
               data-name="Ellipse 565"
               cx="17.645"
               cy="17.645"
               transform="translate(47.076,51.523)"
               fill="#edb9a3"
               r="17.645" />
          </g>
        </g>
        <g
           id="Group_5085"
           data-name="Group 5085"
           transform="translate(1.728,6.989)">
          <path
             id="Path_3678-2"
             data-name="Path 3678"
             d="M 51.317,49.988 C 41.708,41.374 31.907,18.608 19.875,13.817 7.843,9.026 7.863,0 7.863,0 L 0,8.657 c 0,0 20.086,11.143 24.874,15.776 8.408,8.149 19.586,26.289 21.679,29.686 4.494,-1.094 15.567,4.586 16.01,-1.353 0.16,-1.772 -8.863,-0.642 -11.246,-2.778 z"
             transform="rotate(90,42.542,42.542)"
             fill="#e8b29b" />
          <path
             id="Path_3686"
             data-name="Path 3686"
             d="M 13.909,0.245 A 17.645,17.645 0 0 1 31.554,17.89 17.871,17.871 0 0 1 21.537,33.805 C 25.998,26.42 27.668,19.629 22.787,11.614 19.908,6.886 12.1,5.326 7.2,6.209 4.232,6.743 -1.378,8.244 0.311,5.682 2,3.12 2.449,1.944 3.161,1.357 5.729,-0.778 9.641,0.245 13.909,0.245 Z"
             transform="rotate(90,-5.009,38.814)"
             fill="#e8b29b" />
        </g>
      </g>
      <g
         id="Group_5087"
         data-name="Group 5087"
         transform="translate(0,4.447)">
        <g
           id="Group_5086-2"
           data-name="Group 5086">
          <g
             id="Group_5084-2"
             data-name="Group 5084"
             transform="rotate(90,43.4065,43.4065)">
            <path
               id="Path_3678-3"
               data-name="Path 3678"
               d="M 58.3,49.989 C 48.691,41.375 38.89,18.609 26.858,13.818 14.826,9.027 14.851,0 14.851,0 L 0,12.371 c 0,0 7.906,3.8 10.886,14.554 2.98,10.754 28.1,26.331 34.84,36.133 1.217,1.769 0.85,9.4 2.728,11.542 6.3,0.161 20.654,-15.894 21.1,-21.833 0.157,-1.773 -8.866,-0.642 -11.254,-2.778 z"
               fill="#edb9a3" />
            <circle
               id="Ellipse_565-2"
               data-name="Ellipse 565"
               cx="17.645"
               cy="17.645"
               transform="translate(47.076,51.523)"
               fill="#edb9a3"
               r="17.645" />
          </g>
        </g>
        <g
           id="Group_5085-2"
           data-name="Group 5085"
           transform="translate(1.728,6.988)">
          <path
             id="Path_3678-4"
             data-name="Path 3678"
             d="M 51.316,49.989 C 41.707,41.375 31.906,18.609 19.874,13.818 7.842,9.027 7.863,0 7.863,0 L 0,8.657 c 0,0 20.086,11.143 24.874,15.776 8.408,8.149 19.586,26.289 21.679,29.686 4.494,-1.094 15.567,4.586 16.01,-1.353 0.159,-1.772 -8.863,-0.641 -11.247,-2.777 z"
             transform="rotate(90,42.542,42.542)"
             fill="#e8b29b" />
          <path
             id="Path_3686-2"
             data-name="Path 3686"
             d="M 13.909,0.245 A 17.645,17.645 0 0 1 31.554,17.89 17.871,17.871 0 0 1 21.537,33.806 C 25.998,26.421 27.668,19.63 22.787,11.615 19.908,6.886 12.1,5.326 7.2,6.209 4.232,6.743 -1.378,8.244 0.311,5.682 2,3.12 2.449,1.944 3.161,1.357 5.728,-0.778 9.641,0.245 13.909,0.245 Z"
             transform="rotate(90,-5.0085,38.8145)"
             fill="#e8b29b" />
        </g>
      </g>
    </g>
    <g
       id="Group_5076"
       data-name="Group 5076"
       transform="translate(80.53,390.14)">
      <path
         id="Path_3697"
         data-name="Path 3697"
         d="M 27.678,1.756 2.28,-0.271 c 0,0 -3.286,9.171 -2.635,13.071 0.651,3.9 0.955,16.828 2.635,18.255 2.719,2.312 32.266,0.408 34.412,0 2.146,-0.408 3,-5.112 2.512,-9.494 C 38.716,17.179 27.678,1.756 27.678,1.756 Z"
         transform="translate(55.67,0.271)"
         fill="#2b2b2b" />
      <path
         id="Path_3699"
         data-name="Path 3699"
         d="m 15.7,0.763 h -3.669 c 0,0 14.363,15.27 1.426,13.422 1.326,4.424 7.495,11.192 5.364,16.373 2.81,-0.174 5.32,-0.388 5.891,-0.5 2.146,-0.408 3,-5.112 2.512,-9.494 C 26.736,16.182 15.7,0.763 15.7,0.763 Z"
         transform="translate(67.649,1.264)"
         fill="#222222" />
      <g
         id="Group_5091"
         data-name="Group 5091"
         transform="translate(56.109,15.028)">
        <path
           id="Path_3695"
           data-name="Path 3695"
           d="m 18.32,7.4 c -9.689,-0.046 -19.075,2.778 -18.752,6.631 0.335,4 0.847,8.822 1.833,9.661 2.719,2.312 32.266,0.408 34.412,0 2.146,-0.408 3,-5.112 2.512,-9.494 C 37.837,9.816 28.009,7.437 18.32,7.4 Z"
           transform="translate(0.44,-7.395)"
           fill="#222222" />
      </g>
      <path
         id="Path_3698"
         data-name="Path 3698"
         d="m -0.429,12.52 c 0.318,3.548 0.633,5.494 1.52,6.249 2.719,2.312 32.266,0.408 34.412,0 1.492,-0.283 2.359,-2.642 2.624,-6.141 -7.998,1.522 -34.733,1.33 -38.556,-0.108 z"
         transform="translate(56.881,12.557)"
         fill="#ddd5d2" />
      <path
         id="Path_3673"
         data-name="Path 3673"
         d="m 11.219,1.756 25.4,-2.027 c 0,0 3.281,9.171 2.634,13.071 -0.647,3.9 -0.953,16.828 -2.635,18.255 -2.719,2.312 -32.267,0.408 -34.413,0 -2.146,-0.408 -3,-5.112 -2.512,-9.494 C 0.181,17.179 11.219,1.756 11.219,1.756 Z"
         transform="translate(0.441,0.271)"
         fill="#2b2b2b" />
      <g
         id="Group_5090"
         data-name="Group 5090"
         transform="translate(0.001,5.589)">
        <path
           id="Path_3695-2"
           data-name="Path 3695"
           d="m 19.7,7.4 c 9.69,-0.042 19.076,2.783 18.752,6.636 -0.335,4 -0.847,8.822 -1.833,9.661 C 33.9,26 4.352,24.1 2.205,23.692 0.058,23.284 -0.795,18.58 -0.307,14.198 0.181,9.816 10.009,7.437 19.7,7.4 Z"
           transform="translate(0.44,2.044)"
           fill="#222222" />
        <path
           id="Path_3696"
           data-name="Path 3696"
           d="m 23,2.58 c 0.592,2.2 1.267,5.511 0.938,7.478 -0.651,3.9 -0.957,16.832 -2.634,18.258 -1.87,1.591 -6.841,-5.856 -5.6,-14.894 C 23.057,15.556 22.65,5.85 23,2.58 Z"
           transform="translate(15.755,-2.58)"
           fill="#222222" />
      </g>
      <path
         id="Path_3674"
         data-name="Path 3674"
         d="m 38.128,12.52 c -0.318,3.548 -0.633,5.494 -1.52,6.249 -2.719,2.312 -32.267,0.408 -34.413,0 C 0.7,18.486 -0.164,16.127 -0.429,12.628 7.569,14.15 34.3,13.958 38.128,12.52 Z"
         transform="translate(0.429,12.557)"
         fill="#ddd5d2" />
    </g>
    <path
       id="Union_1"
       data-name="Union 1"
       d="M 55.417,92.548 C 53.305,87.575 55.347,26.333 48.761,26.539 a 10.348,10.348 0 0 1 -1.225,-0.043 9.077,9.077 0 0 1 -1.093,0.043 c -6.589,-0.206 -4.546,61.036 -6.659,66.009 -2.113,4.973 -28.13,8.446 -30.461,0 C 8.157,88.348 6.923,62.963 4.578,42.483 3.905,36.623 3.139,30.954 2.342,25.223 0.759,13.7 -0.6,4.506 0.277,2.509 2.311,-2.1 35.457,0.812 47.6,2.041 59.741,0.812 92.882,-2.1 94.924,2.509 c 0.877,2 -0.482,11.193 -2.066,22.714 -0.8,5.731 -1.563,11.4 -2.236,17.26 -2.349,20.48 -3.579,45.864 -4.742,50.065 -1.021,3.7 -6.589,5.111 -12.7,5.111 -7.843,0 -16.58,-2.321 -17.763,-5.111 z"
       transform="translate(80.53,297.692)"
       fill="#009fea" />
    <path
       id="Path_3683"
       data-name="Path 3683"
       d="m 16.99,99.028 c 3.215,-0.533 6.182,-2 6.9,-4.606 1.161,-4.2 2.39,-29.583 4.744,-50.063 0.674,-5.86 1.439,-11.526 2.23,-17.261 C 32.453,15.583 33.811,6.38 32.93,4.387 32.349,3.072 32.922,1.6 27.863,1.258 22.474,18.921 21.478,72.888 16.99,99.028 Z"
       transform="translate(142.52,295.814)"
       fill="#0391d4" />
    <g
       id="Group_5075"
       data-name="Group 5075"
       transform="translate(55.757,176.657)">
      <path
         id="Path_3668"
         data-name="Path 3668"
         d="M 31.053,0.415 C 20.127,6.816 0.9,29.646 -7.308,32.241 -15.516,34.836 4.026,60.956 16.492,61.59 28.958,62.224 28.332,56.3 30.121,51.386 37.056,32.351 41.98,-5.986 31.053,0.415 Z"
         transform="translate(9.259,7.872)"
         fill="#df1a16" />
      <path
         id="Path_3682"
         data-name="Path 3682"
         d="m -0.819,52.192 c 2.842,2.06 6.226,3.667 9.206,3.819 12.468,0.634 11.837,-5.294 13.626,-10.205 A 139.357,139.357 0 0 0 29.346,6.556 C 29.524,-2.029 6.151,44.92 -0.819,52.192 Z"
         transform="translate(17.367,13.452)"
         fill="#cf1915" />
      <path
         id="Path_3669"
         data-name="Path 3669"
         d="M -2.854,0.415 C 8.072,6.816 27.3,29.646 35.506,32.242 43.712,34.838 24.171,60.957 11.7,61.591 -0.771,62.225 -0.133,56.3 -1.922,51.386 -8.856,32.351 -13.781,-5.986 -2.854,0.415 Z"
         transform="translate(107.286,7.872)"
         fill="#df1a16" />
      <path
         id="Path_3667"
         data-name="Path 3667"
         d="m 22.205,4.126 c 0,0 16.327,-8.287 32.053,-8.287 15.726,0 32.042,8.287 32.042,8.287 0,0 2.625,22.507 9.659,43.55 7.034,21.043 15.25,60.246 12.369,65.89 -2.881,5.644 -27.113,13.754 -54.07,13.754 -26.957,0 -51,-8.006 -53.76,-13.754 C -2.262,107.818 6,66.71 12.931,47.676 19.862,28.642 22.205,4.126 22.205,4.126 Z"
         transform="translate(18.201,4.161)"
         fill="#df1a16" />
      <path
         id="Path_3680"
         data-name="Path 3680"
         d="m 46.992,15.155 c 0.589,2.456 1.291,5.163 2.255,8.554 0.568,2 1.385,4.679 2.271,7.33 7.034,21.042 15.25,60.246 12.369,65.89 -1.3,2.54 -6.917,5.579 -15.715,8.324 6.296,-27.197 -4.887,-105.538 -1.18,-90.098 z"
         transform="translate(62.643,20.798)"
         fill="#cf1915" />
      <path
         id="Path_3681"
         data-name="Path 3681"
         d="m -0.889,1.468 c 10.926,6.4 30.156,29.231 38.36,31.827 3.224,1.02 2.164,5.673 -1.371,11.474 C 18.673,38.743 -9.265,8.3 -11.109,2.681 -12.633,-4.105 -4.91,-0.888 -0.889,1.468 Z"
         transform="translate(105.321,6.82)"
         fill="#cf1915" />
    </g>
    <g
       id="Group_5079"
       data-name="Group 5079"
       transform="translate(100.662,176.657)">
      <path
         id="Path_3667-2"
         data-name="Path 3667"
         d="m 14.451,1.759 c 5.421,-2.222 16.194,-5.92 26.7,-5.92 9.577,0 19.373,3.074 26.139,5.7 1.667,0.646 4.114,16.866 -26.139,16.993 C 10.898,18.659 12.635,2.5 14.451,1.759 Z"
         transform="translate(-13.598,4.161)"
         fill="#780847" />
    </g>
    <path
       id="Path_3684"
       data-name="Path 3684"
       d="m 21.945,21.3 c 1.664,-5.152 7.7,-7.513 6.418,-5.776 a 9.6,9.6 0 0 0 -1.738,4.132 c -3.437,12.916 -2.252,57.4 -4.038,61.6 -0.614,1.446 -7.322,3.852 -7.322,3.852 0,0 5.016,-58.654 6.68,-63.808 z"
       transform="translate(97.73,308.976)"
       fill="#0391d4" />
    <g
       id="Group_5064"
       data-name="Group 5064"
       transform="translate(21.079)">
      <path
         id="Path_3650"
         data-name="Path 3650"
         d="M 20.823,48.573 C 8.026,48.46 -0.03,41.981 0.77,38.1 3.052,34.32 3.014,30.461 3.014,26.093 3.014,11.913 3.914,0.284 20.823,0.198 37.732,0.112 38.7,11.912 38.7,26.092 c 0,3.758 -0.3,8.05 2.152,11.841 1.063,3.88 -6.437,10.76 -20.029,10.64 z"
         transform="translate(86.235,144.633)"
         fill="#e8a68a" />
      <path
         id="Path_3694"
         data-name="Path 3694"
         d="m 22.527,15.05 c 0,3.758 -0.3,8.05 2.152,11.841 0.6,2.185 -1.519,5.32 -6.446,7.894 C 15.364,36.3 22.527,0.869 22.527,15.05 Z"
         transform="translate(102.41,155.675)"
         fill="#e19e82" />
      <path
         id="Path_3620"
         data-name="Path 3620"
         d="M 99.009,166.423 C 13.157,165.862 0,137.147 0,88.423 0,39.699 20.507,0.492 99.009,0.2 c 78.502,-0.292 99.009,39.5 99.009,88.224 0,48.724 -13.158,78.56 -99.009,77.999 z"
         transform="translate(8.039,13.67)"
         fill="#edb9a3" />
      <ellipse
         id="Ellipse_555"
         data-name="Ellipse 555"
         cx="24.507"
         cy="33.328999"
         rx="24.507"
         ry="33.328999"
         transform="translate(34.507,78.172)"
         fill="#ffffff" />
      <ellipse
         id="Ellipse_556"
         data-name="Ellipse 556"
         cx="15.684"
         cy="21.566"
         rx="15.684"
         ry="21.566"
         transform="translate(48.23,91.896)"
         fill="#322a28" />
      <circle
         id="Ellipse_557"
         data-name="Ellipse 557"
         cx="1.961"
         cy="1.961"
         transform="translate(54.112,99.738)"
         fill="#ffffff"
         r="1.961" />
      <ellipse
         id="Ellipse_558"
         data-name="Ellipse 558"
         cx="24.507"
         cy="33.328999"
         rx="24.507"
         ry="33.328999"
         transform="translate(130.573,78.172)"
         fill="#ffffff" />
      <ellipse
         id="Ellipse_559"
         data-name="Ellipse 559"
         cx="15.684"
         cy="21.566"
         rx="15.684"
         ry="21.566"
         transform="translate(134.494,91.896)"
         fill="#322a28" />
      <circle
         id="Ellipse_560"
         data-name="Ellipse 560"
         cx="1.961"
         cy="1.961"
         transform="translate(140.376,99.738)"
         fill="#ffffff"
         r="1.961" />
      <path
         id="Path_3621"
         data-name="Path 3621"
         d="m 0,0 h 19.605 c 0,0 0.295,18.055 -9.586,18.055 C 0.138,18.055 0,0 0,0 Z"
         transform="translate(97.244,149.063)"
         fill="#b57e67" />
      <path
         id="Path_3622"
         data-name="Path 3622"
         d="M 0,0 H 9.251 C 9.251,0 9.244,3.719 4.582,3.719 -0.08,3.719 0,0 0,0 Z"
         transform="translate(102.421,149.063)"
         fill="#ffffff" />
      <path
         id="Path_3648"
         data-name="Path 3648"
         d="M 7.831,13.344 C 1.041,13.3 0,11.028 0,7.175 0,3.322 1.622,0.22 7.831,0.2 c 6.209,-0.02 7.831,3.124 7.831,6.978 0,3.854 -1.041,6.21 -7.831,6.166 z"
         transform="translate(99.217,124.549)"
         fill="#e8a68a" />
      <path
         id="Path_3685"
         data-name="Path 3685"
         d="m 118.532,16.237 c 11.228,15 15.325,35 15.325,56.778 0,41.757 -9.663,69.642 -67.062,76.48 31.577,-14.404 62.958,-14.895 51.737,-133.258 z"
         transform="translate(72.199,29.077)"
         fill="#e8b29b" />
      <ellipse
         id="Ellipse_561"
         data-name="Ellipse 561"
         cx="4.901"
         cy="6.862"
         rx="4.901"
         ry="6.862"
         transform="rotate(-48,180.53125,42.171139)"
         fill="#e69674" />
      <ellipse
         id="Ellipse_562"
         data-name="Ellipse 562"
         cx="4.901"
         cy="6.862"
         rx="4.901"
         ry="6.862"
         transform="rotate(-132,122.76807,39.579015)"
         fill="#e69674" />
      <path
         id="Path_3692"
         data-name="Path 3692"
         d="m 23.847,2.964 c 2.9,3.485 4.974,9.287 4.974,15.754 0,11.91 -7.022,21.566 -15.684,21.566 -3.846,0 -7.369,-1.9 -10.483,-5.524 23.501,4.266 25.835,-19.693 21.193,-31.796 z"
         transform="translate(137.043,94.743)"
         fill="#3d3533" />
      <path
         id="Path_3693"
         data-name="Path 3693"
         d="m 23.847,2.964 c 2.9,3.485 4.974,9.287 4.974,15.754 0,11.91 -7.022,21.566 -15.684,21.566 -3.846,0 -7.369,-1.9 -10.483,-5.524 23.501,4.266 25.835,-19.693 21.193,-31.796 z"
         transform="translate(50.779,94.743)"
         fill="#3d3533" />
      <path
         id="Path_3708"
         data-name="Path 3708"
         d="M 80.46,73.893 C 46.421,79.587 -2.28,80.448 -2.2,74.9 0.624,35.1 28.238,0.448 104.048,0.2 c 81.34,-0.268 107.605,36.441 107.605,80.975 0.424,22.444 -2.8,32 -9.995,28.469 -29.386,-15.034 -59.823,-61.92 -59.823,-61.92 0,0 -27.335,20.476 -61.375,26.169 z"
         transform="translate(2.201,-0.197)"
         fill="#ecac5a" />
      <path
         id="Path_3711"
         data-name="Path 3711"
         d="m 94.489,4.4 c 39.943,12.416 54.325,41.086 54.325,74.041 0.37,19.571 -2.036,29.341 -7.936,29.138 -0.051,0 -3.5,-0.886 -9.1,-5.024 C 142.246,91.628 139.7,34.336 94.489,4.4 Z"
         transform="translate(65.04,2.895)"
         fill="#e5a451" />
      <path
         id="Path_3712"
         data-name="Path 3712"
         d="M 80.46,55.173 C 46.421,60.867 -2.28,61.729 -2.2,56.18 A 90.022,90.022 0 0 1 -0.538,44.19 C 55.531,59.152 141.835,29 141.835,29 c 0,0 -27.335,20.48 -61.375,26.173 z"
         transform="translate(2.201,18.883)"
         fill="#e5a451" />
    </g>
  </g>
</svg>
