<?xml version="1.0" encoding="UTF-8" standalone="no"?>
<svg
   id="karakter-vrouw"
   width="615.13403"
   height="1038.323"
   viewBox="0 0 615.13402 1038.323"
   version="1.1"
   xmlns="http://www.w3.org/2000/svg">
  <defs
     id="defs638" />
  <g
     id="Group_5093"
     data-name="Group 5093"
     transform="matrix(2.4357691,0,0,2.4570526,2.2300132e-6,-0.00378831)">
    <path
       id="Union_1"
       data-name="Union 1"
       d="M 55.417,92.548 C 53.305,87.575 55.347,26.333 48.761,26.539 a 10.348,10.348 0 0 1 -1.225,-0.043 9.077,9.077 0 0 1 -1.093,0.043 c -6.589,-0.206 -4.546,61.036 -6.659,66.009 -2.113,4.973 -28.13,8.446 -30.461,0 C 8.157,88.348 6.923,62.963 4.578,42.483 3.905,36.623 3.139,30.954 2.342,25.223 0.759,13.7 -0.6,4.506 0.277,2.509 2.311,-2.1 35.457,0.812 47.6,2.041 59.741,0.812 92.882,-2.1 94.924,2.509 c 0.877,2 -0.482,11.193 -2.066,22.714 -0.8,5.731 -1.563,11.4 -2.236,17.26 -2.349,20.48 -3.579,45.864 -4.742,50.065 -1.021,3.7 -6.589,5.111 -12.7,5.111 -7.843,0 -16.58,-2.321 -17.763,-5.111 z"
       fill="#009fea"
       transform="translate(80.53,297.692)" />
    <path
       id="Path_3683"
       data-name="Path 3683"
       d="m 16.99,99.028 c 3.215,-0.533 6.182,-2 6.9,-4.606 1.161,-4.2 2.39,-29.583 4.744,-50.063 0.674,-5.86 1.439,-11.526 2.23,-17.261 C 32.453,15.583 33.811,6.38 32.93,4.387 32.349,3.072 32.922,1.6 27.863,1.258 22.474,18.921 21.478,72.888 16.99,99.028 Z"
       fill="#0391d4"
       transform="translate(142.52,295.814)" />
    <path
       id="Path_3684"
       data-name="Path 3684"
       d="m 21.945,21.3 c 1.664,-5.152 7.7,-7.513 6.418,-5.776 a 9.6,9.6 0 0 0 -1.738,4.132 c -3.437,12.916 -2.252,57.4 -4.038,61.6 -0.614,1.446 -7.322,3.852 -7.322,3.852 0,0 5.016,-58.654 6.68,-63.808 z"
       transform="translate(97.73,308.976)"
       fill="#0391d4" />
  </g>
</svg>
