<?xml version="1.0" encoding="UTF-8" standalone="no"?>
<svg
   width="611"
   height="1038"
   viewBox="0 0 610.99998 1038"
   version="1.1"
   id="svg5735"
   xmlns="http://www.w3.org/2000/svg">
  <defs
     id="defs5663">
    <style
       id="style5652">
      .cls-1 {
        fill: #edb9a3;
      }

      .cls-2 {
        fill: #e8b29b;
      }

      .cls-3 {
        fill: #7b6c53;
      }

      .cls-4 {
        fill: #6c5f48;
      }

      .cls-5 {
        fill: #ddd5d2;
      }

      .cls-6 {
        fill: #18a65a;
      }

      .cls-7 {
        fill: #11743f;
      }

      .cls-8 {
        fill: #9ad3e4;
      }

      .cls-9 {
        fill: #7fc8d8;
      }

      .cls-10 {
        fill: #333d63;
      }

      .cls-11 {
        fill: #e8a68a;
      }

      .cls-12 {
        fill: #e19e82;
      }

      .cls-13 {
        fill: #fff;
      }

      .cls-14 {
        fill: #322a28;
      }

      .cls-15 {
        fill: #b57e67;
      }

      .cls-16 {
        fill: #3d3533;
      }

      .cls-17 {
        fill: #52311e;
      }

      .cls-18 {
        fill: #3d2517;
      }

      .cls-19 {
        fill: #e69674;
      }

      .cls-20 {
        filter: url(#Path_6714);
      }
    </style>
  </defs>
  <g
     id="Group_8613"
     data-name="Group 8613"
     transform="matrix(4.7759001,0,0,4.8527965,0.00477714,-0.01108543)">
    <g
       id="Group_7848"
       data-name="Group 7848"
       transform="translate(-911.662,-580.916)">
      <path
         id="Union_1"
         data-name="Union 1"
         class="cls-6"
         d="M 28.073,46.883 C 27,44.364 28.038,13.34 24.7,13.444 a 5.242,5.242 0 0 1 -0.621,-0.022 4.6,4.6 0 0 1 -0.554,0.022 c -3.338,-0.1 -2.3,30.92 -3.373,33.439 -1.073,2.519 -14.25,4.279 -15.431,0 C 4.131,44.755 3.507,31.896 2.321,21.521 1.98,18.552 1.592,15.681 1.188,12.777 0.384,6.941 -0.305,2.283 0.14,1.271 1.171,-1.062 17.962,0.411 24.113,1.034 c 6.15,-0.622 22.939,-2.1 23.973,0.237 0.444,1.011 -0.244,5.67 -1.046,11.507 -0.4,2.9 -0.792,5.775 -1.133,8.744 -1.19,10.375 -1.813,23.234 -2.4,25.362 -0.517,1.875 -3.338,2.589 -6.435,2.589 C 33.1,49.472 28.674,48.3 28.073,46.883 Z"
         transform="translate(952.457,731.539)" />
      <path
         id="Path_3683"
         data-name="Path 3683"
         class="cls-7"
         d="m 16.99,50.787 c 1.629,-0.27 3.132,-1.015 3.5,-2.333 0.588,-2.127 1.211,-14.986 2.4,-25.361 0.341,-2.969 0.729,-5.839 1.13,-8.744 0.8,-5.834 1.492,-10.5 1.046,-11.505 -0.295,-0.666 0,-1.412 -2.567,-1.585 -2.731,8.947 -3.235,36.285 -5.509,49.528 z"
         transform="translate(975.477,729.967)" />
      <path
         id="Path_3684"
         data-name="Path 3684"
         class="cls-7"
         d="m 18.649,18.174 c 0.843,-2.61 3.9,-3.806 3.251,-2.926 a 4.862,4.862 0 0 0 -0.881,2.093 c -1.741,6.543 -1.141,29.076 -2.046,31.206 -0.311,0.733 -3.709,1.951 -3.709,1.951 0,0 2.542,-29.714 3.385,-32.324 z"
         transform="translate(953.639,729.873)" />
    </g>
  </g>
</svg>
