<?xml version="1.0" encoding="UTF-8" standalone="no"?>
<svg
   id="Laag_1"
   data-name="Laag 1"
   viewBox="0 0 373424.86 1078111.2"
   version="1.1"
   width="373424.88"
   height="1078111.1"
   xmlns="http://www.w3.org/2000/svg">
  <defs
     id="defs3094">
    <style
       id="style3092">
      .cls-1 {
        fill: #fff;
      }

      .cls-2 {
        fill: #e19e82;
      }

      .cls-3 {
        fill: #028151;
      }

      .cls-4 {
        fill: #e69674;
      }

      .cls-5 {
        fill: #ddd5d2;
      }

      .cls-6 {
        fill: #cf1915;
      }

      .cls-7 {
        fill: #3d3533;
      }

      .cls-8 {
        fill: #e5a451;
      }

      .cls-9 {
        fill: #333d63;
      }

      .cls-10 {
        fill: #039960;
      }

      .cls-11 {
        fill: #e8b29b;
      }

      .cls-12 {
        fill: #b57e67;
      }

      .cls-13 {
        fill: #edb9a3;
      }

      .cls-14 {
        fill: #ecac5a;
      }

      .cls-15 {
        fill: #df1a16;
      }

      .cls-16 {
        fill: #263056;
      }

      .cls-17 {
        fill: #322a28;
      }

      .cls-18 {
        fill: #ccb050;
      }

      .cls-19 {
        fill: #e8a68a;
      }
    </style>
  </defs>
  <g
     id="karakter-man_3"
     data-name="karakter-man 3"
     transform="translate(0,-6.9214784)">
    <path
       id="Union_15"
       data-name="Union 15"
       class="cls-9"
       d="m 328.95,960.02 c -5.11,-12.03 -0.17,-160.22 -16.1,-159.72 -0.99,0.02 -1.98,-0.01 -2.96,-0.1 -0.88,0.09 -1.76,0.12 -2.65,0.1 -15.94,-0.5 -11,147.69 -16.11,159.72 -5.11,12.03 -68.06,20.44 -73.71,0 -2.82,-10.17 -5.8,-71.59 -11.48,-121.14 -1.64,-14.18 -3.48,-27.9 -5.41,-41.76 -3.83,-27.87 -7.12,-50.14 -5,-54.96 4.92,-11.14 85.13,-4.12 114.5,-1.14 29.39,-2.97 109.58,-10.02 114.52,1.14 2.12,4.84 -1.17,27.08 -5,54.95 -1.94,13.87 -3.78,27.6 -5.41,41.76 -5.68,49.56 -8.66,110.98 -11.48,121.14 -2.47,8.96 -15.94,12.37 -30.74,12.37 -18.96,0.01 -40.1,-5.6 -42.97,-12.36 z" />
    <path
       id="Path_7453"
       data-name="Path 7453"
       class="cls-16"
       d="m 386.26,970.96 c 7.78,-1.29 14.64,-4.71 16.38,-11.01 2.81,-10.17 5.81,-72.46 11.5,-122 1.63,-14.18 3.48,-27.89 5.4,-41.77 3.84,-27.87 7.13,-50.13 5,-54.95 -1.41,-3.2 -0.02,-6.76 -12.26,-7.59 -13.04,42.74 -15.16,174.06 -26.02,237.32 z" />
    <path
       id="Path_7454"
       data-name="Path 7454"
       class="cls-16"
       d="m 289.58,813.99 c 4.03,-12.47 18.64,-18.18 15.53,-13.98 -2.17,2.95 -3.61,6.38 -4.21,10 -8.32,31.25 -5.47,139.92 -9.79,150.08 -2.28,5.04 -17.28,9.25 -17.28,9.25 0,0 11.73,-142.89 15.75,-155.36 z" />
  </g>
</svg>
