<svg xmlns="http://www.w3.org/2000/svg" xmlns:xlink="http://www.w3.org/1999/xlink" width="194.094" height="210.143" viewBox="0 0 194.094 210.143">
  <defs>
    <filter id="Path_7328" x="0" y="100.841" width="194.094" height="109.302" filterUnits="userSpaceOnUse">
      <feOffset dx="2" dy="8" input="SourceAlpha"/>
      <feGaussianBlur stdDeviation="10.5" result="blur"/>
      <feFlood flood-opacity="0.169"/>
      <feComposite operator="in" in2="blur"/>
    </filter>
  </defs>
  <g id="panter" transform="translate(22.565)">
    <g transform="matrix(1, 0, 0, 1, -22.57, 0)" filter="url(#Path_7328)">
      <path id="Path_7328-2" data-name="Path 7328" d="M71.987-29.686c23.835-8.419,71.506-8.419,95.341,0s23.835,25.256,0,33.674-71.506,8.419-95.341,0S48.152-21.268,71.987-29.686Z" transform="translate(-24.61 160.34)" fill="#fff"/>
    </g>
    <g id="Group_8150" data-name="Group 8150">
      <path id="Path_7072" data-name="Path 7072" d="M2635.72,1818.821a18.562,18.562,0,0,0-1.361-10.547c-1.321-2.874-2.978-6.768-6.269-7.789-3.031-.94-8.151,1.477-7.364,5.186.633,2.984,3.15,5.335,4.264,8.124a4.148,4.148,0,0,1-.519,4.112c-.849.97-2.37.708-3.5.417-2.536-.649-4.687-2.352-6.806-3.767a109.291,109.291,0,0,1-11.323-8.682q-.318-.278-.625-.567l-2.908,9.641c3.981,3.52,8.268,6.717,12.537,9.854,4.483,3.295,11.367,6.654,16.932,4C2632.8,1826.874,2635.023,1823.028,2635.72,1818.821Z" transform="translate(-2523.924 -1669.167)" fill="#d36318"/>
      <path id="Path_7073" data-name="Path 7073" d="M2641.631,1849.2a3.571,3.571,0,0,1,.039,1.264c-.241,1.7-1.919,2.152-3.163,2.647a5.514,5.514,0,0,1-2.866.072,2.214,2.214,0,0,1-2.148-2.384c.088-1.248,1.231-1.779,1.913-2.1.1-.047.195-.09.277-.132.182-.093.366-.2.552-.307.952-.549,1.8-1.531,3-1.328A2.881,2.881,0,0,1,2641.631,1849.2Zm-6.637,1.852c.022.19.371.382.848.469a4.6,4.6,0,0,0,2.127,0c1.017-.405,1.782-1.047,1.861-1.562v-.019a1.524,1.524,0,0,0-1.015-.8,2.936,2.936,0,0,0-1.861.619c-.208.119-.412.237-.615.341-.1.05-.207.1-.323.155-.3.14-1,.467-1.022.716A.318.318,0,0,0,2634.995,1851.05Z" transform="translate(-2545.422 -1698.495)" fill="#101213"/>
      <path id="Path_7074" data-name="Path 7074" d="M2671.528,1809.028a2.7,2.7,0,0,1-3.028,1.323c-1.687-.336-5.107-2.25-4.455-4.427.477-1.592,2.176-1.309,3.422-1.041C2669.4,1805.3,2672.93,1806.193,2671.528,1809.028Zm-6.008-2.752c-.708,1.008,2.173,2.148,2.727,2.318a1.55,1.55,0,0,0,1.174-.021c1.582-.847-1.144-1.874-1.754-2-.417-.086-1.812-.735-2.135-.313Z" transform="translate(-2564.587 -1671.93)" fill="#101213"/>
      <path id="Path_7075" data-name="Path 7075" d="M2620.9,1849.061a2.269,2.269,0,0,1-2.762.328c-1.278-.681-3.567-3.056-2.512-4.652.772-1.166,2.072-.525,3.01-.006C2620.091,1845.535,2622.719,1847.118,2620.9,1849.061Zm-4.172-3.681c-.816.64,1.228,2.26,1.633,2.532a1.31,1.31,0,0,0,.952.269c1.48-.3-.466-1.789-.926-2.038-.315-.171-1.281-1.033-1.646-.773Z" transform="translate(-2534.016 -1696.714)" fill="#101213"/>
      <path id="Path_7076" data-name="Path 7076" d="M2660.065,1863.44a3.455,3.455,0,0,0,3.584-.779,3.263,3.263,0,0,0,.577-2.529,4.733,4.733,0,0,0-1.408-2.125,3.545,3.545,0,0,0-2.286-1.345,2.51,2.51,0,0,0-1.972,1.156,1.848,1.848,0,0,0-.246.615,6.968,6.968,0,0,0,.265,2.547A2.965,2.965,0,0,0,2660.065,1863.44Zm-.056-4.1a.856.856,0,0,1,.417-.527c.566-.3,1.176.16,1.439.46.432.493,1.149,2.18-.212,2.517S2659.779,1860.1,2660.009,1859.338Z" transform="translate(-2561.001 -1704.624)" fill="#101213"/>
      <path id="Path_7079" data-name="Path 7079" d="M2669.418,1827.976c-.714-2.149-3.618-1.979-5.172-.672l.791,1.274c.052-1.05,2.288-1.629,2.7-.391.191.573-.356,1.088-.832,1.293a1.7,1.7,0,0,1-1.442-.119,6.377,6.377,0,0,1,.645,1.885,3.655,3.655,0,0,0,1.407-.309C2668.6,1830.466,2669.855,1829.287,2669.418,1827.976Z" transform="translate(-2564.766 -1685.556)" fill="#101213"/>
      <path id="Path_7081" data-name="Path 7081" d="M2626.384,1834.506a3.954,3.954,0,0,0,.054-2.544c-1.3-.92-3.417-2.483-4.341-3.189a2.077,2.077,0,0,0-1.309.626c-2.259,2.343.784,6.186,3.534,6.187C2625.285,1835.587,2626.008,1835.445,2626.384,1834.506Zm-4.437-3.431c.5-.522,1.355-.226,1.839.167.5.409.99,1.544.585,2.149C2623.38,1834.873,2620.708,1832.359,2621.947,1831.076Z" transform="translate(-2536.939 -1687.085)" fill="#101213"/>
      <path id="Path_7082" data-name="Path 7082" d="M2640.826,1870.219a13.627,13.627,0,0,0,2.046.739,2.187,2.187,0,0,0,.126-2.01,4.22,4.22,0,0,0-2.306-1.779,7.161,7.161,0,0,0-3.015-.067,7.289,7.289,0,0,0-1.761.4c.453.3,1.092.707,1.928,1.179a3.231,3.231,0,0,1,.607-.185c.76-.063,2.925.292,2.5,1.5A1.091,1.091,0,0,1,2640.826,1870.219Z" transform="translate(-2546.949 -1711.113)" fill="#101213"/>
      <path id="Path_7317" data-name="Path 7317" d="M2623.5,1818.034a18.562,18.562,0,0,0-1.361-10.547,22.244,22.244,0,0,0-3.827-6.31c3.349,14.854-.295,21.947-5.09,27.742a9.155,9.155,0,0,0,3.333-.91C2620.576,1826.087,2622.8,1822.242,2623.5,1818.034Z" transform="translate(-2511.7 -1668.38)" fill="#c75d16"/>
      <path id="Path_7077" data-name="Path 7077" d="M2684.08,1822.049a2.744,2.744,0,0,0-1.716-.677c-1.008-.052-2.222.375-2.336,1.526-.086.872.55,1.462.882,2.206a6.359,6.359,0,0,1,.506,1.812c.071.584-.036,1.206.64,1.457a2.985,2.985,0,0,0,2.4-.455c1.991-.927,1.22-3.715.27-5.125A3.7,3.7,0,0,0,2684.08,1822.049Zm.13,2.933a2.6,2.6,0,0,1-.021,1.368.756.756,0,0,1-1.49.057c-.263-.645-.179-1.38-.423-2.023a2.457,2.457,0,0,1-.173-.576.691.691,0,0,1,.157-.562c.449-.465.958-.075,1.282.32A3.526,3.526,0,0,1,2684.21,1824.982Z" transform="translate(-2574.688 -1682.43)" fill="#101213"/>
      <path id="Path_7078" data-name="Path 7078" d="M2678.495,1844.857a2.853,2.853,0,0,0-.262-.75,1.924,1.924,0,0,0-2.128-1.249c-.924.277-2.331-.08-3.292.45a3.836,3.836,0,0,0-1.961,2.267c-.357,1.075.376,2.382,1.218,3.4s2.811,1.142,5.009-.123C2678.385,1848.1,2678.757,1846.252,2678.495,1844.857Zm-3.046,3.075c-.8.321-2.44-.654-1.761-1.573.419-.568,1.646-1.327,2.414-1.021a.913.913,0,0,1,.5.517C2676.955,1846.673,2676.182,1847.639,2675.449,1847.932Z" transform="translate(-2568.864 -1695.908)" fill="#101213"/>
      <g id="Group_8149" data-name="Group 8149">
        <g id="Group_8087" data-name="Group 8087" transform="translate(17.08 91.123)">
          <path id="Path_7247" data-name="Path 7247" d="M1183.488,1701.81l-.05-.022c-7.239-3.277-17.325-9.11-24.589-12.344-5.338-2.377-8.229-3.5-14.27-3.5-.079,0-.158,0-.236.006s-.157-.006-.236-.006c-6.041,0-8.932,1.121-14.271,3.5-7.263,3.234-17.349,9.067-24.589,12.344l-.049.022c-3.427,1.551-4.95,5.167-3.4,8.075l1.069,2.006c1.55,2.908,5.584,4.008,9.011,2.457,2.814-1.274,9.141-4.443,11.93-5.761-.814.395-1.485,2.631-1.838,3.353a30.463,30.463,0,0,0-2.179,5.472c-1.532,5.662-1.331,11.176-.942,16.923.4,5.938,2.466,11.668,2.466,17.659a6.66,6.66,0,0,0,6.914,6.373h2.634a6.66,6.66,0,0,0,6.914-6.373v-8.464a19.868,19.868,0,0,0,6.33,1.043c.079,0,.157,0,.236-.005s.157.005.236.005a19.872,19.872,0,0,0,6.33-1.043v8.464a6.66,6.66,0,0,0,6.914,6.373h2.634a6.66,6.66,0,0,0,6.914-6.373c0-5.99,2.065-11.72,2.466-17.659.388-5.747.591-11.261-.942-16.923a30.424,30.424,0,0,0-2.178-5.472c-.354-.721-1-3.2-1.817-3.592,2.79,1.318,9.32,4.582,12.134,5.856,3.427,1.552,7.237.6,8.786-2.312l1.068-2.006C1188.438,1706.977,1186.915,1703.362,1183.488,1701.81Z" transform="translate(-1101.193 -1685.947)" fill="#dd6d16"/>
          <path id="Path_7316" data-name="Path 7316" d="M16.215,0C25.17,0,32.43,9.733,32.43,21.74s-7.26,21.74-16.215,21.74S0,33.746,0,21.74,7.26,0,16.215,0Z" transform="translate(26.936 4.169)" fill="#ffc95f"/>
          <path id="Path_7308" data-name="Path 7308" d="M1161.734,1701.644l-.049-.022c-7.183-3.279-17.354-8.974-24.561-12.209-4.322-1.94-7.027-3.044-11.718-3.427,4.546,6.052,39.312,18.788,39.537,23.879a5.55,5.55,0,0,0,.263-4.3A6.274,6.274,0,0,0,1161.734,1701.644Z" transform="translate(-1079.241 -1685.913)" fill="#d26612"/>
          <path id="Path_7309" data-name="Path 7309" d="M1101.87,1703l.389.738c1.538,2.91,5.541,4.01,8.941,2.458,2.792-1.275,9.069-4.445,11.837-5.764.878-1.777,2.316-5.182,2.316-5.182S1107.091,1705.02,1101.87,1703Z" transform="translate(-1100.597 -1677.788)" fill="#d26612"/>
          <path id="Path_7310" data-name="Path 7310" d="M1133.278,1749.555a6.374,6.374,0,0,0,5.448-6.241c0-5.993,2.049-11.727,2.447-17.668.385-5.75.587-11.267-.935-16.931a29.528,29.528,0,0,0-1.865-5.477c-.351-.721-1.209-3.142-1.9-3.449a29.033,29.033,0,0,0-3.271-3.926s7.564,21.23,1.262,40.927C1133.317,1742.066,1134.338,1747.689,1133.278,1749.555Z" transform="translate(-1072.542 -1677.271)" fill="#d26612"/>
          <path id="Path_7311" data-name="Path 7311" d="M1117.608,1732.374a6.376,6.376,0,0,0,5.459-6.243v-8.469a30.973,30.973,0,0,1-5.088-2.242C1118.194,1717.423,1118.867,1727.07,1117.608,1732.374Z" transform="translate(-1086.508 -1660.088)" fill="#d26612"/>
          <path id="Path_7312" data-name="Path 7312" d="M17.741,2.622c3.452,3.545,5.936,9.791,5.936,16.815,0,10.6-5.66,19.431-13.716,21.483C16.358,33.692,21.245,19.877,17.741,2.622Z" transform="translate(35.776 6.469)" fill="#efbc59"/>
          <path id="Path_7084" data-name="Path 7084" d="M2500.48,1790.192a5.043,5.043,0,0,1-1.99-.2c-2.626-.781-3.018-3.83-3.562-6.122a10.9,10.9,0,0,1,.422-5.062c.829-3.029,2.7-3.356,3.464-3.356a3.2,3.2,0,0,1,.677.074c1.941.416,2.561,2.54,2.931,3.809.054.186.105.361.156.515.112.34.245.686.378,1.036.683,1.792,2.065,3.483,1.523,5.562A4.728,4.728,0,0,1,2500.48,1790.192Zm-1.666-12.075c-.3,0-.67.573-.895,1.395a9.057,9.057,0,0,0-.4,3.744c.445,1.875,1.309,3.357,2.1,3.6l.029,0c.386,0,1.226-.869,1.441-1.62a5.747,5.747,0,0,0-.625-3.408c-.148-.389-.294-.774-.419-1.153-.059-.181-.119-.385-.182-.6-.164-.559-.545-1.868-.933-1.951A.577.577,0,0,0,2498.814,1778.117Z" transform="translate(-2475.26 -1744.675)" fill="#101213"/>
          <path id="Path_7085" data-name="Path 7085" d="M2591.378,1833.316a4.258,4.258,0,0,1,1.69-4.941c2.192-1.607,8.071-3.549,9.911-.467,1.346,2.254-.8,3.932-2.437,5.1C2598,1834.814,2593.185,1837.974,2591.378,1833.316Zm9.618-4.064c-.42-1.9-4.822.24-5.611.7a2.448,2.448,0,0,0-1.229,1.391c-.7,2.746,3.405.667,4.2.09.544-.394,2.79-1.328,2.645-2.155C2601,1829.272,2601,1829.262,2601,1829.252Z" transform="translate(-2535.855 -1776.64)" fill="#101213"/>
          <path id="Path_7086" data-name="Path 7086" d="M2522.779,1851.805c-.451-1.756-2.5-3.5-4.353-3.011a6.657,6.657,0,0,0-3.57,2.9,11.309,11.309,0,0,0-1.192,4.612,6.59,6.59,0,0,0,.577,4.518c.628.966,2.3,1,3.262.632a3.408,3.408,0,0,0,.97-.586,16.721,16.721,0,0,0,2.788-3.9C2522.184,1855.533,2523.243,1853.614,2522.779,1851.805Zm-4.843,5.848a1.242,1.242,0,0,1-1.027.266c-.9-.221-.933-1.573-.824-2.3.177-1.192,1.505-4.393,3.207-3.306C2520.976,1853.39,2519.064,1856.84,2517.935,1857.653Z" transform="translate(-2487.058 -1790.747)" fill="#101213"/>
          <path id="Path_7087" data-name="Path 7087" d="M2601.41,1776.694c.849,1.412,3.794,3.108,5.286,2.2,1.172-.711,2.671-1.808,3.033-3.094.4-1.406-.619-3.28-.839-4.687a5.99,5.99,0,0,0-1.676-3.784c-.8-.678-2.262-.271-3.005.3a3.091,3.091,0,0,0-.692.761,16.65,16.65,0,0,0-1.817,4.117C2601.27,1774.006,2600.536,1775.24,2601.41,1776.694Zm3.411-5.638a1.128,1.128,0,0,1,.825-.5c.843-.042,1.221,1.127,1.315,1.787.155,1.083-.17,4.216-1.935,3.712C2603.281,1775.558,2604.049,1772.057,2604.821,1771.057Z" transform="translate(-2542.072 -1739.345)" fill="#101213"/>
          <path id="Path_7088" data-name="Path 7088" d="M2527.6,1823.946c1.384.306,4.187-.528,4.506-1.994.25-1.153.454-2.739-.135-3.726-.644-1.079-2.416-1.556-3.423-2.252a5.158,5.158,0,0,0-3.356-1.2c-.9.1-1.507,1.252-1.594,2.052a2.66,2.66,0,0,0,.066.883,14.318,14.318,0,0,0,1.493,3.573C2525.837,1822.44,2526.172,1823.63,2527.6,1823.946Zm-1.5-5.469a.974.974,0,0,1,.178-.81c.473-.551,1.426-.094,1.894.238.769.545,2.532,2.6,1.172,3.406S2526.266,1819.552,2526.1,1818.477Z" transform="translate(-2493.379 -1769.393)" fill="#101213"/>
          <path id="Path_7089" data-name="Path 7089" d="M2596.116,1805.3c-.091-1.63-1.633-3.914-3.408-4.292a4.878,4.878,0,0,0-3.771.894,7.084,7.084,0,0,0-1.921,3.291,5.3,5.3,0,0,0-.3,3.951,3.751,3.751,0,0,0,2.85,1.882,2.776,2.776,0,0,0,.986-.076,10.414,10.414,0,0,0,3.241-2.035C2594.9,1808.112,2596.209,1806.979,2596.116,1805.3Zm-5.463,2.78a1.274,1.274,0,0,1-.981-.21c-.78-.558-.562-1.681-.332-2.232.377-.905,2.166-2.979,3.514-1.376C2594.189,1805.848,2591.827,1807.883,2590.653,1808.079Z" transform="translate(-2532.92 -1760.69)" fill="#101213"/>
          <path id="Path_7090" data-name="Path 7090" d="M2493.743,1734.733c1.43-.79,2.816-3.171,2.386-4.934a4.881,4.881,0,0,0-2.443-3.008,7.083,7.083,0,0,0-3.8-.3,5.3,5.3,0,0,0-3.689,1.448,3.751,3.751,0,0,0-.458,3.384,2.766,2.766,0,0,0,.5.856,10.4,10.4,0,0,0,3.241,2.036C2490.68,1734.857,2492.27,1735.546,2493.743,1734.733Zm-4.876-3.713a1.274,1.274,0,0,1-.237-.976c.164-.945,1.271-1.236,1.867-1.269.979-.053,3.625.657,2.766,2.569C2492.413,1733.236,2489.553,1731.991,2488.867,1731.019Z" transform="translate(-2469.455 -1713.81)" fill="#101213"/>
          <path id="Path_7091" data-name="Path 7091" d="M2628.216,1737.551c4.473-.673,5.4-7.02,2.784-9.156a2.408,2.408,0,0,0-3.032-.481,6.783,6.783,0,0,0-3.375,5.975C2624.753,1735.678,2625.932,1737.9,2628.216,1737.551Zm-1.019-4.237a2.982,2.982,0,0,1,1.579-2.682c2.412-.766,2.455,3.913,0,4.282C2627.782,1735.064,2627.267,1734.1,2627.2,1733.314Z" transform="translate(-2556.899 -1714.558)" fill="#101213"/>
          <path id="Path_7092" data-name="Path 7092" d="M2501.45,1818.829c-5.18.544-5.825,8.2-2.626,10.955,1.12.966,2.114,1.52,3.575.771a7.365,7.365,0,0,0,3.536-7.053C2505.624,1821.317,2504.1,1818.552,2501.45,1818.829Zm1.48,5.21c.141,1-.53,2.842-1.661,3.162-2.766.783-3.136-4.905-.3-5.2C2502.128,1821.878,2502.8,1823.086,2502.93,1824.04Z" transform="translate(-2476.583 -1771.94)" fill="#101213"/>
          <path id="Path_7093" data-name="Path 7093" d="M2555.735,1824.324a4.336,4.336,0,0,0-1.634,2.414c-.428,1.536-.187,3.555,1.549,4.126,1.315.432,2.443-.347,3.706-.6a10.07,10.07,0,0,1,2.967-.155c.925.089,1.848.469,2.466-.487.8-1.243.415-2.523.122-3.853-.745-3.389-5.31-3.159-7.811-2.179A5.881,5.881,0,0,0,2555.735,1824.324Zm4.568.807a4.114,4.114,0,0,1,2.1.5,1.2,1.2,0,0,1-.424,2.317c-1.084.184-2.189-.2-3.266-.044a3.883,3.883,0,0,1-.947.07,1.1,1.1,0,0,1-.813-.435c-.563-.852.213-1.5.934-1.867A5.562,5.562,0,0,1,2560.3,1825.132Z" transform="translate(-2512.458 -1774.546)" fill="#101213"/>
          <path id="Path_7094" data-name="Path 7094" d="M2600.557,1711.106a4.342,4.342,0,0,0-2.751.965c-1.258.98-2.268,2.745-1.213,4.238.8,1.13,2.168,1.177,3.335,1.724a10.066,10.066,0,0,1,2.476,1.643c.689.623,1.2,1.477,2.271,1.078,1.386-.519,1.836-1.78,2.394-3.022,1.421-3.166-2.382-5.7-4.976-6.4A5.9,5.9,0,0,0,2600.557,1711.106Zm3.188,3.37a4.12,4.12,0,0,1,1.389,1.656c.571,1.37-.525,2.218-1.721,1.609-.981-.5-1.639-1.464-2.6-1.981a3.866,3.866,0,0,1-.8-.508,1.1,1.1,0,0,1-.394-.833c.055-1.02,1.067-1.081,1.862-.943A5.556,5.556,0,0,1,2603.745,1714.476Z" transform="translate(-2539.021 -1704.203)" fill="#101213"/>
          <path id="Path_7095" data-name="Path 7095" d="M2593.888,1857.326l-.006-.01c-.687-1.113-1.91-.7-2.988-.943-1.428-.323-2.692-1.16-4.184-1.179a4.979,4.979,0,0,0-2.686,9.263c2.146,1.222,5.094.648,7.042-.686C2592.79,1862.589,2595.232,1859.529,2593.888,1857.326Zm-9.738,4.448a2.234,2.234,0,0,1,1.015-2.5,4.694,4.694,0,0,1,2.733-.412H2588c.8,0,2.865-.382,2.742,1.034C2590.54,1862.268,2585.4,1864.272,2584.15,1861.774Z" transform="translate(-2529.907 -1794.823)" fill="#101213"/>
          <path id="Path_7096" data-name="Path 7096" d="M2498.593,1760.5a4.715,4.715,0,0,0,3.733-2.586,5.043,5.043,0,0,0,.545-3.747,1,1,0,0,0-.613-.666,1.794,1.794,0,0,0-.858,0,21.241,21.241,0,0,0-2.911.431,26.234,26.234,0,0,0-1.174,2.646c-.417.858-.811,1.709-1.166,2.573A3.164,3.164,0,0,0,2498.593,1760.5Zm-.836-2.751c.2-.6,2.966-3.282,3.432-1.911.326.96-.506,2.12-1.186,2.711a2.053,2.053,0,0,1-2.008.408C2497.685,1758.777,2497.54,1758.4,2497.757,1757.747Z" transform="translate(-2476.385 -1730.836)" fill="#101213"/>
          <path id="Path_7097" data-name="Path 7097" d="M2499.7,1859.967a3.533,3.533,0,0,0,1.172-.769c2.881-2.9-1.562-5.974-3.956-7.183a10.288,10.288,0,0,0-1.428-.527q.176.991.322,1.987a14.958,14.958,0,0,1,2.361,1.691c.518.525,1.875,3.133-.015,2.583a9.844,9.844,0,0,1-1.976-1.162c.031.542.053,1.085.053,1.632a5.939,5.939,0,0,0,.056.806C2497.2,1859.6,2498.637,1860.406,2499.7,1859.967Z" transform="translate(-2476.09 -1792.63)" fill="#101213"/>
          <path id="Path_7098" data-name="Path 7098" d="M2500.546,1709.814c1.044.715,2.916,2.412,4.209,2.118.791-.18,1.209-1.957,1.592-2.435,1.19-1.491.049-3.771-1.458-5.157a4.538,4.538,0,0,0-.536-.416q-.907.432-1.852.9a2.258,2.258,0,0,1,.425.146c1.024.463,2.16,1.862,1.311,2.961-.551.714-1.55.5-2.263.029a2.528,2.528,0,0,1-.583-.521,1.984,1.984,0,0,1-.4-1.857c-.989.5-2,1.023-3.021,1.556A9.116,9.116,0,0,0,2500.546,1709.814Z" transform="translate(-2477.271 -1699.689)" fill="#101213"/>
          <path id="Path_7099" data-name="Path 7099" d="M2612.771,1744.191c-.306-1.335-1.426-2.888-3.116-2.391-3.31.972-3.349,5.861-1.154,7.2a1.836,1.836,0,0,0,2.339.05,3.977,3.977,0,0,0,.464-.4,13.842,13.842,0,0,0-.892-1.975,1.291,1.291,0,0,1-.463.4c-1.743.828-2.26-2.7-.447-3.234.738-.217,1.228.461,1.361,1.044a2.459,2.459,0,0,1-.257,1.473c.514.249,1.095.533,1.716.839A4.843,4.843,0,0,0,2612.771,1744.191Z" transform="translate(-2545.836 -1723.484)" fill="#101213"/>
          <path id="Path_7100" data-name="Path 7100" d="M2620,1805.543c-.227.014-.2-.087-.365-.125a1.273,1.273,0,0,1-.83-.565c-.511-.811.115-1.769.535-2.192a2.516,2.516,0,0,1,.81-.684c.013-.974.005-1.945-.031-2.914-1.211.329-1.888,1.4-2.762,2.31a5.3,5.3,0,0,0-1.767,3.547,3.753,3.753,0,0,0,1.928,2.818,2.78,2.78,0,0,0,.943.3,3.55,3.55,0,0,0,1.384,0c0-.034.006-.069.009-.1Q2619.936,1806.734,2620,1805.543Z" transform="translate(-2551.246 -1759.526)" fill="#101213"/>
          <path id="Path_7101" data-name="Path 7101" d="M2476.371,1749.006c-4.915-.256-4.712,3.706-4.4,7.2.031-.014.063-.024.1-.039.57-.26,1.291-.6,2.093-.99.087-1.445.374-3.708,1.564-3.065l.026.015c.487.291.316,1.308.125,2.216.864-.423,1.766-.867,2.661-1.31C2478.766,1751.21,2478.271,1749.341,2476.371,1749.006Z" transform="translate(-2460.81 -1728.035)" fill="#101213"/>
          <path id="Path_7102" data-name="Path 7102" d="M2639.615,1756.686c-.27-.99-1.679-1.471-2.594-1.424a3.031,3.031,0,0,0-.981.233,13.023,13.023,0,0,0-3.185,2.34c.675.332,1.337.656,1.968.964a3.305,3.305,0,0,1,.8-.427,1.1,1.1,0,0,1,.942.054,1.208,1.208,0,0,1,.351,1.379c.352.166.682.321.968.451a7.627,7.627,0,0,0,1.013.375A5.813,5.813,0,0,0,2639.615,1756.686Z" transform="translate(-2562.104 -1731.975)" fill="#101213"/>
          <path id="Path_7103" data-name="Path 7103" d="M2650.232,1732.244c1.349-.385,2-1.714,2.234-3.239-.609-.279-1.244-.58-1.89-.892.044,1.161-.145,2.264-1.007,2.227l-.027,0c-.7-.062-.977-2.091-1.179-2.618a5.952,5.952,0,0,1-.22-.808c-.817-.412-1.654-.843-2.5-1.282a16.586,16.586,0,0,0,.971,3.526C2647.207,1730.744,2648.106,1732.85,2650.232,1732.244Z" transform="translate(-2570.148 -1713.34)" fill="#101213"/>
          <path id="Path_7104" data-name="Path 7104" d="M2460.094,1729.693a3.893,3.893,0,0,0,1.6,2.435,4.169,4.169,0,0,0,2.237.72,4.009,4.009,0,0,0,3.105-1.52c1.075-1.26.741-5.326-1.349-6a1.273,1.273,0,0,0-.469-.053q-1.176.6-2.3,1.152-1.4.71-2.717,1.352A4.144,4.144,0,0,0,2460.094,1729.693Zm1.73-1.292a3.291,3.291,0,0,1,.858.073c.609.085,2.215-.827,2.744-.128a1.338,1.338,0,0,1,.228.9,1.8,1.8,0,0,1-1.972,1.609,3.061,3.061,0,0,1-1.9-.646C2461.01,1729.579,2460.947,1728.519,2461.824,1728.4Z" transform="translate(-2453.409 -1713.113)" fill="#101213"/>
          <path id="Path_7105" data-name="Path 7105" d="M2481.573,1718.1a1.7,1.7,0,0,0,.184.021,3.016,3.016,0,0,0,2.091-1.035q.111-.106.216-.216a7.108,7.108,0,0,0,1.162-1.572c.027-.052.054-.105.079-.159a6.471,6.471,0,0,0,.417-1.179c-1.887.99-3.8,2.007-5.688,3A2.086,2.086,0,0,0,2481.573,1718.1Z" transform="translate(-2465.991 -1706.001)" fill="#101213"/>
        </g>
        <g id="Group_8140" data-name="Group 8140">
          <g id="Group_8141" data-name="Group 8141" transform="translate(0 0.271)">
            <path id="Path_7200" data-name="Path 7200" d="M1977.091,1440.886c-3.253,7.33-.077,15,7.407,17.832,2.985,1.129,12.549,1.067,12.83.917,1.463-.777,4.02-4.58,4.7-5.472l3.7-4.81a1.878,1.878,0,0,0-.946-3c1.364-6.086-3.364-11.63-9.233-13.693a15.472,15.472,0,0,0-6.358-.786c-4.81.249-9.717,3.637-12.1,9.01" transform="translate(-1975.82 -1431.834)" fill="#dd6d16"/>
            <path id="Path_7342" data-name="Path 7342" d="M1995.259,1449.353c-3.253,7.331-2.724-.927,4.759,1.9,2.986,1.129-9.746,8.529-9.464,8.38,1.463-.777,4.02-4.58,4.7-5.472l3.7-4.81a1.878,1.878,0,0,0-.946-3c1.364-6.086-3.363-11.63-9.233-13.693a15.474,15.474,0,0,0-6.358-.786c5.608,4.138,13.9,11.533,11.513,16.906" transform="translate(-1969.046 -1431.834)" fill="#d56915"/>
            <path id="Path_7201" data-name="Path 7201" d="M2013.257,1463.768a6.46,6.46,0,0,0-5.229-.543c-1.938.791-2.243,3.071-1.374,4.779a9.167,9.167,0,0,0,4.345,3.841,3.272,3.272,0,0,0,1.978.462,3.9,3.9,0,0,0,1.475-.964,6.747,6.747,0,0,0,2.069-3.51C2016.611,1466.809,2015.317,1464.868,2013.257,1463.768Z" transform="translate(-1994.831 -1451.295)" fill="#f299a4"/>
            <path id="Path_7340" data-name="Path 7340" d="M2010.682,1463.689a13.4,13.4,0,0,0-1.981-.727c4.306,7.629.085,8.048.962,9.265h.74a3.9,3.9,0,0,0,1.475-.964,4.692,4.692,0,0,0,2.069-3.51C2014,1466.008,2011.565,1464.116,2010.682,1463.689Z" transform="translate(-1992.256 -1451.217)" fill="#db919a"/>
          </g>
          <g id="Group_8142" data-name="Group 8142" transform="translate(90.109)">
            <path id="Path_7202" data-name="Path 7202" d="M2217.154,1448.715l4.976,6.475c.978,1.272,1.962,3.031,3.426,3.808,3.274,1.738,9.564.318,12.83-.917,7.483-2.83,10.66-10.5,7.407-17.832a14.683,14.683,0,0,0-18.46-8.225c-5.87,2.063-10.6,7.607-9.233,13.693A1.878,1.878,0,0,0,2217.154,1448.715Z" transform="translate(-2216.709 -1431.167)" fill="#dd6d16"/>
            <path id="Path_7203" data-name="Path 7203" d="M2239.868,1467.179a6.747,6.747,0,0,0,2.068,3.51,3.911,3.911,0,0,0,1.476.964,3.27,3.27,0,0,0,1.978-.462,9.169,9.169,0,0,0,4.345-3.841c.87-1.708.565-3.989-1.374-4.779a6.461,6.461,0,0,0-5.229.542C2241.071,1464.214,2239.777,1466.156,2239.868,1467.179Z" transform="translate(-2231.202 -1450.612)" fill="#f299a4"/>
            <path id="Path_7343" data-name="Path 7343" d="M2240.507,1469.7l.767.82a3.908,3.908,0,0,0,1.476.964,3.271,3.271,0,0,0,1.977-.462,9.163,9.163,0,0,0,4.345-3.841,4.051,4.051,0,0,0,.371-3.013,2.914,2.914,0,0,0-1.744-1.766C2247.1,1465.8,2246.849,1467.538,2240.507,1469.7Z" transform="translate(-2230.542 -1450.44)" fill="#db919a"/>
            <path id="Path_7344" data-name="Path 7344" d="M2221.128,1452.907c.978,1.273-1.257,1.46.207,2.237,3.274,1.738,9.564.317,12.831-.917,7.483-2.83,10.66-10.5,7.406-17.832-.138-.31-.284-.615-.744-1.473C2240.2,1448.684,2230.02,1451.289,2221.128,1452.907Z" transform="translate(-2212.487 -1427.312)" fill="#d56915"/>
          </g>
          <path id="Path_7372" data-name="Path 7372" d="M2458.714,1458.624c.858,1.683,2.3,3.752,2.108,5.733-.1,1.076-.93,1.964-2,1.49-1.5-.666-1.875-2.092-2.306-3.5-.375-1.228-1.235-2.677-.816-4.005C2456.253,1456.58,2458.091,1457.4,2458.714,1458.624Z" transform="translate(-2434.379 -1454.113)" fill="#101213"/>
          <path id="Path_7373" data-name="Path 7373" d="M2416.4,1477.26a3.471,3.471,0,0,1-.516-.966c-.4-1.265-1.257-3-.648-4.344,1.01-2.219,2.555-.055,2.59,1.4a11.35,11.35,0,0,1-.121,3.821C2417.355,1478.1,2416.809,1477.8,2416.4,1477.26Z" transform="translate(-2408.863 -1462.711)" fill="#101213"/>
          <path id="Path_7374" data-name="Path 7374" d="M2441.33,1458.852a3.958,3.958,0,0,1-.937-.831c-.937-1.2-2.547-2.729-2.445-4.432.167-2.821,2.678-1.118,3.306.444.491,1.221,1.411,2.848,1.421,4.185C2442.685,1459.366,2441.985,1459.262,2441.33,1458.852Z" transform="translate(-2423.281 -1450.812)" fill="#101213"/>
          <path id="Path_7375" data-name="Path 7375" d="M2419.349,1455.475a4.939,4.939,0,0,1,3.995,1.592c.543.537,2.554,2.933,1.518,3.727-.907.695-2.674-.12-3.413-.583-.687-.431-4.941-3.713-2.655-4.6A2.352,2.352,0,0,1,2419.349,1455.475Z" transform="translate(-2410.816 -1452.93)" fill="#101213"/>
          <g id="Group_8143" data-name="Group 8143" transform="translate(2.424 5.452)">
            <path id="Path_7130" data-name="Path 7130" d="M2407.635,1465.581a6.321,6.321,0,0,0-1.5-2.5,13.118,13.118,0,0,0-1.312,1.761c.338.344.766.6,1.14.921a2.914,2.914,0,0,0,.795.464C2407.288,1466.432,2407.807,1466.406,2407.635,1465.581Z" transform="translate(-2404.822 -1463.084)" fill="#101213"/>
          </g>
          <path id="Path_7117" data-name="Path 7117" d="M2519.8,1501.957c-1.6-12.676-5.813-22.527-12.838-32.7-8.327-12.059-37.5-31.891-68.308-16.956-7.994,3.875-34.639,23.98-31.969,57.642.915,11.531,5.5,21.177,17.63,26.6,12.743,5.7,28.591,6.165,42.655,6.053a201.809,201.809,0,0,0,23.19-1.531c5.991-.743,11.915-2.135,16.982-5.185C2519.053,1528.722,2521.083,1512.129,2519.8,1501.957Z" transform="translate(-2402.664 -1446.952)" fill="#f2842b"/>
          <path id="Path_7126" data-name="Path 7126" d="M2609.524,1647.271a1.259,1.259,0,0,0-.453-.462l-.3-.13a1.263,1.263,0,0,0-.663-.012,1.3,1.3,0,0,0-.919,1.538l.126.315a1.264,1.264,0,0,0,.453.463l.3.13a1.258,1.258,0,0,0,.663.012,1.3,1.3,0,0,0,.92-1.538Z" transform="translate(-2528.858 -1572.532)" fill="#1a1718"/>
          <path id="Path_7132" data-name="Path 7132" d="M2436.677,1546.854c1.2,1.2,4.345,2.335,5.385,1.252.818-.852,1.8-2.119,1.719-3.385-.091-1.385-1.581-2.991-2.218-4.281a7.264,7.264,0,0,0-2.677-3.3,2.162,2.162,0,0,0-2.574.748,2.4,2.4,0,0,0-.375.824,15.024,15.024,0,0,0-.319,4.158C2435.708,1544.345,2435.443,1545.621,2436.677,1546.854Zm1.255-5.838a.831.831,0,0,1,.576-.6c.735-.171,1.438.871,1.729,1.478.479,1,1.175,4-.549,3.8C2437.98,1545.494,2437.561,1542.079,2437.932,1541.016Z" transform="translate(-2420.959 -1503.549)" fill="#101213"/>
          <path id="Path_7133" data-name="Path 7133" d="M2478.5,1532.033a3.144,3.144,0,0,1-.727-.691c-.685-.962-1.92-2.221-1.646-3.453.453-2.041,2.454-.571,2.831.626a8.449,8.449,0,0,1,.782,3.18C2479.62,1532.531,2479.022,1532.391,2478.5,1532.033Z" transform="translate(-2446.428 -1497.213)" fill="#101213"/>
          <path id="Path_7134" data-name="Path 7134" d="M2580.29,1561.162a2.425,2.425,0,0,1-.046-.919c.189-1.109.173-2.738,1.311-3.553,1.884-1.349,2.337.847,1.732,1.976a9.346,9.346,0,0,1-1.778,2.885C2580.79,1562.141,2580.429,1561.717,2580.29,1561.162Z" transform="translate(-2511.92 -1515.701)" fill="#101213"/>
          <path id="Path_7135" data-name="Path 7135" d="M2603.812,1544.524a2.859,2.859,0,0,1,.573-.785c.894-.833,1.964-2.194,3.45-2.341,2.462-.244,1.38,1.792.126,2.449a12.548,12.548,0,0,1-3.4,1.569C2603.577,1545.57,2603.559,1545.05,2603.812,1544.524Z" transform="translate(-2526.672 -1506.338)" fill="#101213"/>
          <path id="Path_7136" data-name="Path 7136" d="M2645.564,1543.812a2.853,2.853,0,0,1,.572-.785c.895-.833,1.964-2.195,3.451-2.342,2.462-.243,1.38,1.792.127,2.449a12.56,12.56,0,0,1-3.4,1.569C2645.33,1544.857,2645.311,1544.337,2645.564,1543.812Z" transform="translate(-2552.93 -1505.889)" fill="#101213"/>
          <path id="Path_7138" data-name="Path 7138" d="M2528.174,1533.571a4.283,4.283,0,0,1-1-.935c-.943-1.3-2.64-3.008-2.282-4.687.593-2.781,3.334-.8,3.86.829.412,1.27,1.275,2.993,1.1,4.322C2529.709,1534.239,2528.893,1534.054,2528.174,1533.571Z" transform="translate(-2477.094 -1497.016)" fill="#101213"/>
          <path id="Path_7139" data-name="Path 7139" d="M2513.963,1506.747a4.193,4.193,0,0,1-.978-.905c-.926-1.263-2.591-2.913-2.244-4.537.576-2.69,3.265-.768,3.784.806.4,1.229,1.254,2.9,1.086,4.182C2515.468,1507.4,2514.667,1507.216,2513.963,1506.747Z" transform="translate(-2468.195 -1480.289)" fill="#101213"/>
          <path id="Path_7140" data-name="Path 7140" d="M2544.594,1559.981a3.924,3.924,0,0,1-.851-.991c-.753-1.342-2.188-3.137-1.626-4.718.93-2.62,3.347-.458,3.653,1.154.239,1.259.861,3,.523,4.257C2546,1560.766,2545.231,1560.513,2544.594,1559.981Z" transform="translate(-2487.877 -1513.676)" fill="#101213"/>
          <path id="Path_7141" data-name="Path 7141" d="M2503.384,1544.687a4.2,4.2,0,0,1-1.087-.465c-1.162-.75-3.048-1.626-3.291-2.947-.4-2.188,2.4-1.342,3.335-.259.727.845,1.957,1.923,2.235,2.944C2504.817,1544.834,2504.108,1544.882,2503.384,1544.687Z" transform="translate(-2460.818 -1505.412)" fill="#101213"/>
          <path id="Path_7142" data-name="Path 7142" d="M2566.737,1566.954a2.028,2.028,0,0,1-.179-.723c-.021-.886-.287-2.171.491-2.883,1.289-1.179,1.989.525,1.683,1.453a6.448,6.448,0,0,1-.966,2.385C2567.286,1567.7,2566.933,1567.383,2566.737,1566.954Z" transform="translate(-2503.29 -1519.902)" fill="#101213"/>
          <path id="Path_7143" data-name="Path 7143" d="M2524.932,1558.24a2.941,2.941,0,0,1-.6-.768c-.508-1.017-1.515-2.4-1-3.522.847-1.857,2.588-.153,2.74,1.037.118.929.506,2.228.183,3.128C2525.971,1558.887,2525.394,1558.662,2524.932,1558.24Z" transform="translate(-2476.051 -1513.729)" fill="#101213"/>
          <path id="Path_7144" data-name="Path 7144" d="M2451.968,1521.566c1.345-.339,3.435.785,4.447,1.546,1.806,1.358,4.857,5.45,2.059,7.225-1.014.643-3.061.077-4-.394-1.6-.8-1.956-2.063-2.577-3.4-.506-1.091-1.3-2.219-1.13-3.434A1.626,1.626,0,0,1,2451.968,1521.566Z" transform="translate(-2430.49 -1493.836)" fill="#101213"/>
          <path id="Path_7145" data-name="Path 7145" d="M2626.5,1528.984c-.42-1.122.9-2.885,1.792-3.741,1.6-1.528,6.45-4.133,8.6-1.812.78.841.13,2.561-.422,3.352-.938,1.347-2.44,1.663-4.031,2.2a10.17,10.17,0,0,1-4.088.989C2627.243,1529.872,2626.692,1529.495,2626.5,1528.984Z" transform="translate(-2540.978 -1494.47)" fill="#101213"/>
          <path id="Path_7146" data-name="Path 7146" d="M2488.079,1488.666c-1.334.366-3.458-.715-4.491-1.455-1.844-1.321-5.015-5.349-2.269-7.18.994-.664,3.057-.14,4.01.312,1.619.769,2.015,2.023,2.675,3.347.538,1.081,1.365,2.192,1.23,3.41A1.611,1.611,0,0,1,2488.079,1488.666Z" transform="translate(-2449.044 -1467.557)" fill="#101213"/>
          <path id="Path_7147" data-name="Path 7147" d="M2548.528,1514.016c-1.243,1.17-.875,4.847-.833,5.8.064,1.45,1.662,3.45,3.406,2.213,1.271-.9.645-4.335.359-5.66C2551.247,1515.381,2550,1512.628,2548.528,1514.016Z" transform="translate(-2491.413 -1488.886)" fill="#101213"/>
          <path id="Path_7148" data-name="Path 7148" d="M2464.841,1501.069c-.36,1.6,2.084,4.6,2.674,5.405.9,1.221,3.4,2.185,4.137.284.54-1.385-1.979-4.05-2.989-5.058C2467.91,1500.949,2465.268,1499.167,2464.841,1501.069Z" transform="translate(-2439.334 -1480.45)" fill="#101213"/>
          <path id="Path_7149" data-name="Path 7149" d="M2605.422,1523.544c1.882-.422,4.053-3.565,4.663-4.357.926-1.2.882-3.509-1.485-3.245-1.726.193-3.5,3.248-4.153,4.445C2603.965,1521.28,2603.19,1524.045,2605.422,1523.544Z" transform="translate(-2526.824 -1490.325)" fill="#101213"/>
          <path id="Path_7150" data-name="Path 7150" d="M2561,1543.03a4.35,4.35,0,0,1,.1-4.264c.356-.714,2.1-3.522,3.359-2.919,1.1.529.939,2.46.741,3.319-.185.8-1.979,6-3.833,4.307A2.1,2.1,0,0,1,2561,1543.03Z" transform="translate(-2499.509 -1502.806)" fill="#101213"/>
          <path id="Path_7151" data-name="Path 7151" d="M2567,1479.161a4.941,4.941,0,0,1,.316,4.829c-.331.832-2.023,4.132-3.506,3.538-1.3-.521-1.31-2.716-1.172-3.7.128-.917,1.633-6.926,3.9-5.141A2.454,2.454,0,0,1,2567,1479.161Z" transform="translate(-2500.83 -1466.703)" fill="#101213"/>
          <path id="Path_7152" data-name="Path 7152" d="M2578.548,1503.014a4.853,4.853,0,0,1,.009,5.1c-.436.783-2.6,3.79-4.244,2.8-1.44-.864-1.294-3.148-1.066-4.138.213-.921,2.361-6.79,4.812-4.371A3.414,3.414,0,0,1,2578.548,1503.014Z" transform="translate(-2507.445 -1481.461)" fill="#101213"/>
          <path id="Path_7153" data-name="Path 7153" d="M2538.425,1484.563a5.072,5.072,0,0,1,1.9,4.823c-.119.874-1.032,4.385-2.937,3.954-1.668-.377-2.377-2.584-2.531-3.591-.142-.937-.3-7.151,2.887-5.612A3.713,3.713,0,0,1,2538.425,1484.563Z" transform="translate(-2483.352 -1470.186)" fill="#101213"/>
          <path id="Path_7154" data-name="Path 7154" d="M2635.625,1497.9a4.345,4.345,0,0,1-1.144,4.192c-.535.62-2.992,2.975-4.119,2.073-.987-.789-.352-2.66.061-3.461.381-.746,3.473-5.455,4.939-3.331A2.161,2.161,0,0,1,2635.625,1497.9Z" transform="translate(-2543.126 -1478.32)" fill="#101213"/>
          <path id="Path_7155" data-name="Path 7155" d="M2587.352,1530.024a4.227,4.227,0,0,1,.187,4.3c-.326.715-1.974,3.521-3.341,2.893-1.2-.55-1.159-2.495-1.009-3.357.14-.8,1.674-6.02,3.745-4.285A2.423,2.423,0,0,1,2587.352,1530.024Z" transform="translate(-2513.742 -1498.691)" fill="#101213"/>
          <path id="Path_7156" data-name="Path 7156" d="M2628.225,1472.629a7.245,7.245,0,0,1-1.371,5.343c-.62,1-2.1,3.1-3.483,2.147-2.431-1.674-.262-6.79,1.691-8.552A1.919,1.919,0,0,1,2628.225,1472.629Z" transform="translate(-2538.382 -1462.109)" fill="#101213"/>
          <path id="Path_7157" data-name="Path 7157" d="M2596.486,1478.214a3.751,3.751,0,0,1-.759,3.815c-.5.687-1.7,2.117-3.15,1.313-2.537-1.409-.979-5,.728-6.143A2.386,2.386,0,0,1,2596.486,1478.214Z" transform="translate(-2518.853 -1465.792)" fill="#101213"/>
          <path id="Path_7158" data-name="Path 7158" d="M2513.207,1477.263a4.319,4.319,0,0,1,2.485,3.26c.181.788.426,2.527-1.292,2.74-3.01.374-4.721-3.166-4.369-4.973C2510.263,1477.106,2512.171,1476.8,2513.207,1477.263Z" transform="translate(-2467.75 -1465.886)" fill="#101213"/>
          <path id="Path_7159" data-name="Path 7159" d="M2492.85,1511.372c1.465,1.318,3.707,2.806,4.057,4.77a1.73,1.73,0,0,1-1.859,2.113c-1.91-.123-2.746-1.361-3.645-2.566-.781-1.048-2.181-2.142-2.084-3.557C2489.448,1510.257,2491.787,1510.416,2492.85,1511.372Z" transform="translate(-2454.748 -1487.028)" fill="#101213"/>
          <path id="Path_7160" data-name="Path 7160" d="M2605.565,1496.232c.45,2-.952,4.172-2.648,5.195-1.5.906-3.221.836-2.581-1.278.783-2.587,2.692-5.332,3.848-5.118A1.578,1.578,0,0,1,2605.565,1496.232Z" transform="translate(-2524.485 -1477.179)" fill="#101213"/>
          <path id="Path_7161" data-name="Path 7161" d="M2415.381,1542.772c.741.872.1,2.435-.548,3.335a3.121,3.121,0,0,1-2.375,1.259.868.868,0,0,1-.139-.03c-.151.508-.29,1.018-.422,1.528a3.658,3.658,0,0,0,1.845-.126,6.33,6.33,0,0,0,3.785-4.258c.345-1.281.305-3.168-.614-4.158a1.21,1.21,0,0,0-1-.445,2.35,2.35,0,0,0-.815.233q-.707,1.484-1.307,3C2414.389,1542.565,2414.987,1542.309,2415.381,1542.772Z" transform="translate(-2406.058 -1505.391)" fill="#101213"/>
          <path id="Path_7162" data-name="Path 7162" d="M2432.061,1512.555c.905-2.024-.405-4.387-2.2-5.889q-1.085,1.321-2.08,2.7c1.481.661,1.517,2.6.806,3.689a3.575,3.575,0,0,1-3.733.822q-.975,1.679-1.815,3.408a18.423,18.423,0,0,0,1.889.413C2427.372,1518.1,2430.387,1516.3,2432.061,1512.555Z" transform="translate(-2413.065 -1484.506)" fill="#101213"/>
          <path id="Path_7163" data-name="Path 7163" d="M2450.506,1497.848c.468-1.2-1.365-3.365-2.518-4.576q-1.372,1.421-2.629,2.924c.426.607.817,1.105,1.01,1.368C2447.265,1498.784,2449.765,1499.748,2450.506,1497.848Z" transform="translate(-2427.103 -1476.083)" fill="#101213"/>
          <path id="Path_7164" data-name="Path 7164" d="M2463.076,1475.623a6.845,6.845,0,0,0,3.867-6.341,6.775,6.775,0,0,0-.248-1.52q-1.406.9-2.744,1.9c.149,2.061-1.186,4.622-3.487,4.439a1.819,1.819,0,0,1-1.145-.571q-.984.928-1.916,1.907A6.78,6.78,0,0,0,2463.076,1475.623Z" transform="translate(-2434.679 -1460.04)" fill="#101213"/>
          <path id="Path_7165" data-name="Path 7165" d="M2489.571,1460.7c1.745.378,3.169-.555,4.8-.927a15.673,15.673,0,0,1,3.867-.384c1.213.031,2.444.379,3.189-.711.969-1.417.376-2.79-.094-4.222a3.912,3.912,0,0,0-2.979-2.513,53.681,53.681,0,0,0-11.136,4.6C2486.866,1458.211,2487.374,1460.222,2489.571,1460.7Zm2.583-5.835a8.474,8.474,0,0,1,3.118-.77,6.27,6.27,0,0,1,2.78.4c1.715.739,1.313,2.225-.4,2.565-1.405.279-2.873-.061-4.27.188a6.034,6.034,0,0,1-1.233.144,1.533,1.533,0,0,1-1.091-.416C2490.265,1456.08,2491.236,1455.311,2492.154,1454.862Z" transform="translate(-2453.366 -1450.085)" fill="#101213"/>
          <path id="Path_7166" data-name="Path 7166" d="M2538.624,1451.523c.649,2.292,1.117,5.342,4.254,6.123a7.138,7.138,0,0,0,2.377.2,5.363,5.363,0,0,0,4.778-3.743c.648-2.079-1-3.77-1.819-5.562-.159-.35-.318-.7-.452-1.036-.061-.154-.121-.329-.187-.515l0-.013c-1.1-.026-2.218-.03-3.337-.012.12.292.219.577.287.772.076.217.147.421.218.6.149.379.324.764.5,1.153.561,1.232,1.091,2.394.745,3.408a2.806,2.806,0,0,1-1.721,1.62l-.035,0c-.947-.248-1.979-1.73-2.511-3.6a7.68,7.68,0,0,1,.478-3.744c.017-.05.035-.1.052-.143q-1.69.074-3.368.254A8.115,8.115,0,0,0,2538.624,1451.523Z" transform="translate(-2485.642 -1446.952)" fill="#101213"/>
          <path id="Path_7167" data-name="Path 7167" d="M2574.417,1449.468a3.142,3.142,0,0,0,.464,1.073,19.9,19.9,0,0,0,3.682,3.949c1.482,1.213,2.47,2.58,4.7,2.514,2.16-.064,5.931-2,5.788-3.915-.019-.261-.049-.539-.087-.823a47.89,47.89,0,0,0-5.669-2.112c1.331.822,2.565,2.052,1.434,3.025-1.646,1.416-5.25-1.194-5.945-2.472a1.068,1.068,0,0,1-.076-1.061,1.088,1.088,0,0,1,.738-.5c-1.607-.363-3.275-.677-4.989-.937A3.082,3.082,0,0,0,2574.417,1449.468Z" transform="translate(-2508.24 -1447.739)" fill="#101213"/>
          <path id="Path_7168" data-name="Path 7168" d="M2617.909,1466.757c.135.556.494.98,1.215.395a9.38,9.38,0,0,0,1.8-2.876,2.169,2.169,0,0,0,.223-.665q-1.089-.57-2.213-1.087c-.869.86-.885,2.3-1.063,3.314A2.423,2.423,0,0,0,2617.909,1466.757Z" transform="translate(-2535.581 -1456.743)" fill="#101213"/>
          <path id="Path_7318" data-name="Path 7318" d="M1140.167,1478.524c-1.577-12.613-5.748-22.416-12.693-32.539a41.937,41.937,0,0,0-6.181-6.864c19.717,43.1,11.782,65.558-15.709,78.909,1.369-.129,3.326-.344,5.277-.588,5.924-.739,11.781-2.124,16.792-5.158C1139.425,1505.156,1141.433,1488.646,1140.167,1478.524Z" transform="translate(-1023.023 -1423.345)" fill="#e67c26"/>
          <path id="Path_7137" data-name="Path 7137" d="M2666.79,1522.957a2.593,2.593,0,0,1,.35-.872c.65-.978,1.333-2.5,2.743-2.924,2.337-.695,1.821,1.491.772,2.364a11.3,11.3,0,0,1-2.895,2.16C2666.838,1524.02,2666.682,1523.516,2666.79,1522.957Z" transform="translate(-2566.347 -1492.282)" fill="#101213"/>
          <path id="Path_7169" data-name="Path 7169" d="M2646.1,1483.965c.414,1.213.936,2.07,2.513,2.182a7.322,7.322,0,0,0,4.647-1.464q-.979-.987-2.011-1.925a2.509,2.509,0,0,1-1.821.424c-1.311-.334-1.331-1.557-.72-2.583-.517-.413-1.042-.819-1.577-1.213A5.2,5.2,0,0,0,2646.1,1483.965Z" transform="translate(-2553.236 -1467.348)" fill="#101213"/>
          <path id="Path_7170" data-name="Path 7170" d="M2661.925,1500.015c-1.72.239-3.415,3.34-4.031,4.555-.458.905-1.159,3.691,1.06,3.13,1.87-.472,3.956-3.673,4.543-4.482a2.778,2.778,0,0,0,.518-1.625q-.626-.8-1.283-1.58A2.694,2.694,0,0,0,2661.925,1500.015Z" transform="translate(-2560.47 -1480.302)" fill="#101213"/>
          <path id="Path_7171" data-name="Path 7171" d="M2675.318,1532c-.916,1.98-1.987,4.738,1.372,6.676,2.919,1.684,6.04.433,8.232-1.4-.415-1.294-.842-2.312-1.369-3.578-.811,1.172-3.817,4.456-5.7,2.653l-.031-.032c-.837-.857.955-2.833,1.253-3.5a6.537,6.537,0,0,1,2.831-2.868q-.907-1.789-1.957-3.516C2677.623,1527.3,2676.19,1530.11,2675.318,1532Z" transform="translate(-2571.152 -1496.943)" fill="#101213"/>
          <path id="Path_7172" data-name="Path 7172" d="M2685.632,1566.181c-.765,1.342-.59,2.973-.549,4.468a5.8,5.8,0,0,0,1.532,4.284c.927.89,2.916.832,3.99.433a3.608,3.608,0,0,0,1.04-.61c1.218-1.006,1.917-2.721,2.577-3.867.033-.056.066-.115.1-.173a43.5,43.5,0,0,0-1.638-6.986,4.914,4.914,0,0,0-3.36-.508A6.353,6.353,0,0,0,2685.632,1566.181Zm4.771,5.526a1.59,1.59,0,0,1-1.169.308c-1.112-.163-1.4-1.453-1.41-2.152-.013-1.147.962-4.274,3.186-3.325C2693.211,1567.477,2691.59,1570.872,2690.4,1571.707Z" transform="translate(-2577.843 -1520.002)" fill="#101213"/>
          <g id="Group_8109" data-name="Group 8109" transform="translate(88.216 51.129)">
            <ellipse id="Ellipse_556" data-name="Ellipse 556" cx="3.249" cy="4.467" rx="3.249" ry="4.467" transform="translate(0 0)" fill="#322a28"/>
            <ellipse id="Ellipse_557" data-name="Ellipse 557" cx="0.406" cy="0.406" rx="0.406" ry="0.406" transform="translate(1.218 1.625)" fill="#fff"/>
            <path id="Path_3693" data-name="Path 3693" d="M7.043,2.964a5.244,5.244,0,0,1,1.03,3.264C8.074,8.7,6.619,10.7,4.825,10.7A2.862,2.862,0,0,1,2.653,9.551C7.522,10.435,8.005,5.471,7.043,2.964Z" transform="translate(-1.575 -1.761)" fill="#3d3533"/>
          </g>
          <g id="Group_8110" data-name="Group 8110" transform="translate(28.099 51.129)">
            <ellipse id="Ellipse_556-2" data-name="Ellipse 556" cx="3.249" cy="4.467" rx="3.249" ry="4.467" transform="translate(0 0)" fill="#322a28"/>
            <ellipse id="Ellipse_557-2" data-name="Ellipse 557" cx="0.406" cy="0.406" rx="0.406" ry="0.406" transform="translate(1.218 1.625)" fill="#fff"/>
            <path id="Path_3693-2" data-name="Path 3693" d="M7.043,2.964a5.244,5.244,0,0,1,1.03,3.264C8.074,8.7,6.619,10.7,4.825,10.7A2.862,2.862,0,0,1,2.653,9.551C7.522,10.435,8.005,5.471,7.043,2.964Z" transform="translate(-1.575 -1.761)" fill="#3d3533"/>
          </g>
          <path id="Path_7376" data-name="Path 7376" d="M2457.715,1458.624c-.859,1.683-2.3,3.752-2.108,5.733.1,1.076.93,1.964,2,1.49,1.5-.666,1.875-2.092,2.306-3.5.375-1.228,1.235-2.677.816-4.005C2460.175,1456.58,2458.337,1457.4,2457.715,1458.624Z" transform="translate(-2361.261 -1454.113)" fill="#101213"/>
          <path id="Path_7377" data-name="Path 7377" d="M2416.55,1477.26a3.473,3.473,0,0,0,.517-.966c.4-1.265,1.257-3,.647-4.344-1.009-2.219-2.555-.055-2.589,1.4a11.337,11.337,0,0,0,.121,3.821C2415.591,1478.1,2416.137,1477.8,2416.55,1477.26Z" transform="translate(-2303.296 -1462.711)" fill="#101213"/>
          <path id="Path_7378" data-name="Path 7378" d="M2439.288,1458.852a3.958,3.958,0,0,0,.938-.831c.937-1.2,2.547-2.729,2.446-4.432-.167-2.821-2.679-1.118-3.307.444-.491,1.221-1.41,2.848-1.421,4.185C2437.933,1459.366,2438.633,1459.262,2439.288,1458.852Z" transform="translate(-2336.549 -1450.812)" fill="#101213"/>
          <path id="Path_7379" data-name="Path 7379" d="M2423.93,1455.475a4.94,4.94,0,0,0-4,1.592c-.543.537-2.554,2.933-1.517,3.727.907.695,2.674-.12,3.413-.583.688-.431,4.941-3.713,2.654-4.6A2.342,2.342,0,0,0,2423.93,1455.475Z" transform="translate(-2311.676 -1452.93)" fill="#101213"/>
          <g id="Group_8144" data-name="Group 8144" transform="translate(115.518 5.621)">
            <path id="Path_7130-2" data-name="Path 7130" d="M2404.856,1465.5a5.794,5.794,0,0,1,1.526-2.328,13.123,13.123,0,0,1,1.156,1.644c-.338.344-.635.546-1.009.869a2.914,2.914,0,0,1-.795.464C2405.2,1466.353,2404.684,1466.327,2404.856,1465.5Z" transform="translate(-2404.822 -1463.174)" fill="#101213"/>
          </g>
          <path id="Path_7380" data-name="Path 7380" d="M2106.641,1582.231c-9.426-3.355-19.291,1.776-28.918.158a1.954,1.954,0,0,0-1.772.57.908.908,0,0,0-.084.036c-7.345,3.947-14.25,19.74-.26,25.127,9.065,3.491,15.854-3.18,17.206-5.468,5.26,9.187,23.011,7.375,24.04-5.95C2117.377,1589.921,2112.676,1584.379,2106.641,1582.231Z" transform="translate(-2032.172 -1525.175)" fill="#f9e2b8"/>
          <path id="Path_7381" data-name="Path 7381" d="M2081.917,1629.453a.307.307,0,0,0-.015-.062c-.016-.047-.04-.1-.058-.141s-.038-.1-.062-.143a1.072,1.072,0,0,0-.108-.149.955.955,0,0,0-.116-.141,1.3,1.3,0,0,0-.523-.305l-.033-.009c-.044-.009-.115-.016-.142-.019s-.095-.015-.142-.019a1.3,1.3,0,0,0-.324.038.833.833,0,0,0-.183.067,1.02,1.02,0,0,0-.177.082,1.328,1.328,0,0,0-.444.441.36.36,0,0,0-.038.065,1.742,1.742,0,0,0-.12.3c-.012.053-.017.114-.024.165a1.444,1.444,0,0,0-.019.16.293.293,0,0,0,0,.036c0,.047.013.1.019.142s.01.1.02.147a1.416,1.416,0,0,0,.123.3,1.532,1.532,0,0,0,.189.256.41.41,0,0,0,.053.056c.07.059.146.118.221.17l.035.023a1.935,1.935,0,0,0,.3.128.4.4,0,0,0,.076.02c.094.017.194.03.289.039l.042,0,.041,0a2.885,2.885,0,0,0,.292-.041,1.086,1.086,0,0,0,.584-.449.712.712,0,0,0,.077-.163.562.562,0,0,0,.057-.084,1.546,1.546,0,0,0,.114-.283,2.667,2.667,0,0,0,.039-.279c0-.011,0-.022,0-.033A1.707,1.707,0,0,0,2081.917,1629.453Z" transform="translate(-2039.657 -1555.05)" fill="#1a1718"/>
          <path id="Path_7382" data-name="Path 7382" d="M2105.888,1635.608a1.259,1.259,0,0,0-.325-.557l-.255-.2a1.262,1.262,0,0,0-.637-.173,1.406,1.406,0,0,0-.893.37.939.939,0,0,0-.26.406.95.95,0,0,0-.109.486l.045.335a1.263,1.263,0,0,0,.324.557l.255.2a1.264,1.264,0,0,0,.637.172,1.4,1.4,0,0,0,.892-.37.933.933,0,0,0,.261-.406.943.943,0,0,0,.109-.486C2105.918,1635.832,2105.9,1635.719,2105.888,1635.608Z" transform="translate(-2054.801 -1558.974)" fill="#1a1718"/>
          <path id="Path_7383" data-name="Path 7383" d="M2092.348,1642.1a1.292,1.292,0,0,0,0,2.583A1.292,1.292,0,0,0,2092.348,1642.1Z" transform="translate(-2047.042 -1563.654)" fill="#1a1718"/>
          <path id="Path_7384" data-name="Path 7384" d="M2158.571,1637.13a.456.456,0,0,0-.03-.056c-.027-.042-.062-.085-.091-.122s-.061-.085-.095-.123a1.1,1.1,0,0,0-.141-.118,1.027,1.027,0,0,0-.148-.109,1.3,1.3,0,0,0-.582-.168.261.261,0,0,0-.034,0c-.045,0-.116.013-.142.016-.041.005-.1.009-.143.017a1.327,1.327,0,0,0-.3.115.884.884,0,0,0-.161.11,1.042,1.042,0,0,0-.153.123,1.824,1.824,0,0,0-.193.249,1.716,1.716,0,0,0-.129.288.429.429,0,0,0-.021.073,1.7,1.7,0,0,0-.044.316c0,.054.012.115.017.165a1.572,1.572,0,0,0,.02.16c0,.011.006.022.01.034.016.044.037.094.053.134s.034.094.056.137a1.407,1.407,0,0,0,.193.263,1.534,1.534,0,0,0,.245.2.409.409,0,0,0,.065.041c.082.04.171.079.256.112l.039.014a1.924,1.924,0,0,0,.319.052.417.417,0,0,0,.078,0c.094-.007.2-.018.289-.033l.04-.009.039-.013a2.723,2.723,0,0,0,.274-.111,1.091,1.091,0,0,0,.456-.578.805.805,0,0,0,.035-.177.687.687,0,0,0,.033-.1,1.544,1.544,0,0,0,.042-.3c0-.092-.019-.188-.03-.28,0-.011,0-.022-.006-.032A1.718,1.718,0,0,0,2158.571,1637.13Z" transform="translate(-2088.061 -1560.076)" fill="#1a1718"/>
          <path id="Path_7385" data-name="Path 7385" d="M2091.063,1581.649c11.189,16.052,6.595,22.89-7.993,25.246,6.7,2.922,17.411-.512,18.2-10.772.4-5.223-2.29-9.71-6.833-12.828A15.526,15.526,0,0,0,2091.063,1581.649Z" transform="translate(-2016.595 -1524.59)" fill="#ead5ae"/>
          <path id="Path_7386" data-name="Path 7386" d="M2186.176,1631.08a1.264,1.264,0,0,0-.451-.461l-.3-.129a1.249,1.249,0,0,0-.659-.011,1.22,1.22,0,0,0-.929,1.033.96.96,0,0,0,.014.5c.042.1.083.209.125.314a1.262,1.262,0,0,0,.45.461l.3.129a1.258,1.258,0,0,0,.661.012.953.953,0,0,0,.444-.224,1.137,1.137,0,0,0,.484-.809.959.959,0,0,0-.013-.5C2186.26,1631.29,2186.218,1631.184,2186.176,1631.08Z" transform="translate(-2105.494 -1556.297)" fill="#1a1718"/>
          <path id="Path_7387" data-name="Path 7387" d="M2171.1,1643.241a1.292,1.292,0,0,0,.63,2.505A1.292,1.292,0,0,0,2171.1,1643.241Z" transform="translate(-2096.89 -1564.341)" fill="#1a1718"/>
          <path id="Path_7388" data-name="Path 7388" d="M2122.654,1575.714c-4.744-6.312-15.608-6.138-23.71-5.285-5.405.569-15.751,2.949-11.31,10.5,3.691,6.274,11.751,12.533,19.525,12.075C2114.694,1592.559,2126.345,1580.624,2122.654,1575.714Z" transform="translate(-2044.176 -1518.193)" fill="#1a1718"/>
          <path id="Path_7389" data-name="Path 7389" d="M2071.56,1597.318c9.065,3.49,15.854-3.18,17.206-5.468A48.468,48.468,0,0,1,2071.56,1597.318Z" transform="translate(-2028.126 -1514.369)" fill="#ead5ae"/>
          <path id="Path_7390" data-name="Path 7390" d="M2113.75,1574.662a12.537,12.537,0,0,0-4.576-3.613c1.7,6.612-1.743,13.17-13.734,20.787a13.08,13.08,0,0,0,2.816.115C2105.791,1591.507,2117.441,1579.572,2113.75,1574.662Z" transform="translate(-2035.272 -1517.143)"/>
        </g>
      </g>
    </g>
  </g>
</svg>
