<?xml version="1.0" encoding="UTF-8" standalone="no"?>
<svg
   id="Laag_1"
   data-name="Laag 1"
   viewBox="0 0 373424.86 1078111.2"
   version="1.1"
   width="373424.88"
   height="1078111.1"
   xmlns="http://www.w3.org/2000/svg">
  <defs
     id="defs254">
    <style
       id="style252">
      .cls-1 {
        fill: #fff;
      }

      .cls-2 {
        fill: #e19e82;
      }

      .cls-3 {
        fill: #028151;
      }

      .cls-4 {
        fill: #e69674;
      }

      .cls-5 {
        fill: #ddd5d2;
      }

      .cls-6 {
        fill: #cf1915;
      }

      .cls-7 {
        fill: #3d3533;
      }

      .cls-8 {
        fill: #e5a451;
      }

      .cls-9 {
        fill: #333d63;
      }

      .cls-10 {
        fill: #039960;
      }

      .cls-11 {
        fill: #e8b29b;
      }

      .cls-12 {
        fill: #b57e67;
      }

      .cls-13 {
        fill: #edb9a3;
      }

      .cls-14 {
        fill: #ecac5a;
      }

      .cls-15 {
        fill: #df1a16;
      }

      .cls-16 {
        fill: #263056;
      }

      .cls-17 {
        fill: #322a28;
      }

      .cls-18 {
        fill: #ccb050;
      }

      .cls-19 {
        fill: #e8a68a;
      }
    </style>
  </defs>
  <g
     id="karakter-man_3"
     data-name="karakter-man 3"
     transform="translate(0,-6.9214784)">
    <g
       id="Group_8273"
       data-name="Group 8273">
      <path
         id="Path_3668"
         data-name="Path 3668"
         class="cls-10"
         d="m 232.46,463.27 c -26.44,15.49 -72.97,70.73 -92.82,77.01 -19.85,6.28 27.43,69.47 57.6,71.02 30.17,1.54 28.64,-12.81 32.97,-24.69 16.78,-46.06 28.69,-138.83 2.25,-123.34 z" />
      <path
         id="Path_3682"
         data-name="Path 3682"
         class="cls-3"
         d="m 174.96,602.06 c 6.88,4.98 15.06,8.87 22.27,9.24 30.17,1.53 28.65,-12.81 32.97,-24.69 10.44,-30.64 16.42,-62.63 17.74,-94.97 0.44,-20.77 -56.12,92.82 -72.98,110.43 z" />
      <path
         id="Path_3669"
         data-name="Path 3669"
         class="cls-10"
         d="m 387.61,463.27 c 26.44,15.49 72.97,70.73 92.82,77.01 19.85,6.28 -27.42,69.48 -57.58,71.02 -30.16,1.54 -28.64,-12.81 -32.97,-24.69 -16.79,-46.06 -28.71,-138.83 -2.27,-123.34 z" />
      <path
         id="Path_3667"
         data-name="Path 3667"
         class="cls-10"
         d="m 232.69,463.27 c 0,0 39.51,-20.05 77.56,-20.05 38.05,0 77.53,20.05 77.53,20.05 0,0 6.35,54.47 23.37,105.38 17.02,50.91 36.9,145.78 29.93,159.44 -6.97,13.66 -65.6,33.28 -130.84,33.28 C 245,761.37 186.82,742 180.15,728.09 173.48,714.18 193.46,614.71 210.23,568.65 227,522.59 232.67,463.27 232.67,463.27 Z" />
      <path
         id="Path_3680"
         data-name="Path 3680"
         class="cls-3"
         d="m 400.2,530.21 c 1.43,5.94 3.12,12.49 5.46,20.7 1.37,4.84 3.35,11.32 5.49,17.74 17.02,50.92 36.9,145.78 29.93,159.45 -3.15,6.15 -16.74,13.5 -38.02,20.14 15.24,-65.82 -11.83,-255.39 -2.85,-218.02 z" />
      <path
         id="Path_3681"
         data-name="Path 3681"
         class="cls-3"
         d="m 387.61,463.27 c 26.44,15.49 72.97,70.73 92.82,77.01 7.8,2.47 5.24,13.73 -3.32,27.77 -42.17,-14.58 -109.77,-88.24 -114.23,-101.84 -3.69,-16.41 15,-8.63 24.73,-2.93 z" />
    </g>
    <g
       id="Group_8276"
       data-name="Group 8276">
      <path
         id="Path_3667-2"
         data-name="Path 3667-2"
         class="cls-18"
         d="m 245.72,457.54 c 13.12,-5.38 39.18,-14.33 64.6,-14.33 23.17,0 46.88,7.44 63.25,13.8 4.04,1.56 9.95,40.81 -63.25,41.12 -73.2,0.31 -69,-38.79 -64.6,-40.59 z" />
    </g>
  </g>
</svg>
