<?xml version="1.0" encoding="UTF-8" standalone="no"?>
<svg
   id="karakter-vrouw"
   width="615.13403"
   height="1038.323"
   viewBox="0 0 615.13402 1038.323"
   version="1.1"
   xmlns="http://www.w3.org/2000/svg">
  <defs
     id="defs638" />
  <g
     id="Group_5093"
     data-name="Group 5093"
     transform="matrix(2.4357691,0,0,2.4570526,2.2300132e-6,-0.00378831)">
    <g
       id="Group_5076"
       data-name="Group 5076"
       transform="translate(80.53,390.14)">
      <path
         id="Path_3697"
         data-name="Path 3697"
         d="M 27.678,1.756 2.28,-0.271 c 0,0 -3.286,9.171 -2.635,13.071 0.651,3.9 0.955,16.828 2.635,18.255 2.719,2.312 32.266,0.408 34.412,0 2.146,-0.408 3,-5.112 2.512,-9.494 C 38.716,17.179 27.678,1.756 27.678,1.756 Z"
         transform="translate(55.67,0.271)"
         fill="#2b2b2b" />
      <path
         id="Path_3699"
         data-name="Path 3699"
         d="m 15.7,0.763 h -3.669 c 0,0 14.363,15.27 1.426,13.422 1.326,4.424 7.495,11.192 5.364,16.373 2.81,-0.174 5.32,-0.388 5.891,-0.5 2.146,-0.408 3,-5.112 2.512,-9.494 C 26.736,16.182 15.7,0.763 15.7,0.763 Z"
         transform="translate(67.649,1.264)"
         fill="#222222" />
      <g
         id="Group_5091"
         data-name="Group 5091"
         transform="translate(56.109,15.028)">
        <path
           id="Path_3695"
           data-name="Path 3695"
           d="m 18.32,7.4 c -9.689,-0.046 -19.075,2.778 -18.752,6.631 0.335,4 0.847,8.822 1.833,9.661 2.719,2.312 32.266,0.408 34.412,0 2.146,-0.408 3,-5.112 2.512,-9.494 C 37.837,9.816 28.009,7.437 18.32,7.4 Z"
           transform="translate(0.44,-7.395)"
           fill="#222222" />
      </g>
      <path
         id="Path_3698"
         data-name="Path 3698"
         d="m -0.429,12.52 c 0.318,3.548 0.633,5.494 1.52,6.249 2.719,2.312 32.266,0.408 34.412,0 1.492,-0.283 2.359,-2.642 2.624,-6.141 -7.998,1.522 -34.733,1.33 -38.556,-0.108 z"
         transform="translate(56.881,12.557)"
         fill="#ddd5d2" />
      <path
         id="Path_3673"
         data-name="Path 3673"
         d="m 11.219,1.756 25.4,-2.027 c 0,0 3.281,9.171 2.634,13.071 -0.647,3.9 -0.953,16.828 -2.635,18.255 -2.719,2.312 -32.267,0.408 -34.413,0 -2.146,-0.408 -3,-5.112 -2.512,-9.494 C 0.181,17.179 11.219,1.756 11.219,1.756 Z"
         transform="translate(0.441,0.271)"
         fill="#2b2b2b" />
      <g
         id="Group_5090"
         data-name="Group 5090"
         transform="translate(0.001,5.589)">
        <path
           id="Path_3695-2"
           data-name="Path 3695"
           d="m 19.7,7.4 c 9.69,-0.042 19.076,2.783 18.752,6.636 -0.335,4 -0.847,8.822 -1.833,9.661 C 33.9,26 4.352,24.1 2.205,23.692 0.058,23.284 -0.795,18.58 -0.307,14.198 0.181,9.816 10.009,7.437 19.7,7.4 Z"
           transform="translate(0.44,2.044)"
           fill="#222222" />
        <path
           id="Path_3696"
           data-name="Path 3696"
           d="m 23,2.58 c 0.592,2.2 1.267,5.511 0.938,7.478 -0.651,3.9 -0.957,16.832 -2.634,18.258 -1.87,1.591 -6.841,-5.856 -5.6,-14.894 C 23.057,15.556 22.65,5.85 23,2.58 Z"
           transform="translate(15.755,-2.58)"
           fill="#222222" />
      </g>
      <path
         id="Path_3674"
         data-name="Path 3674"
         d="m 38.128,12.52 c -0.318,3.548 -0.633,5.494 -1.52,6.249 -2.719,2.312 -32.267,0.408 -34.413,0 C 0.7,18.486 -0.164,16.127 -0.429,12.628 7.569,14.15 34.3,13.958 38.128,12.52 Z"
         transform="translate(0.429,12.557)"
         fill="#ddd5d2" />
    </g>
  </g>
</svg>
