<?xml version="1.0" encoding="UTF-8" standalone="no"?>
<svg
   width="611"
   height="1038"
   viewBox="0 0 610.99998 1038"
   version="1.1"
   id="svg5735"
   xmlns="http://www.w3.org/2000/svg">
  <defs
     id="defs5663">
    <style
       id="style5652">
      .cls-1 {
        fill: #edb9a3;
      }

      .cls-2 {
        fill: #e8b29b;
      }

      .cls-3 {
        fill: #7b6c53;
      }

      .cls-4 {
        fill: #6c5f48;
      }

      .cls-5 {
        fill: #ddd5d2;
      }

      .cls-6 {
        fill: #18a65a;
      }

      .cls-7 {
        fill: #11743f;
      }

      .cls-8 {
        fill: #9ad3e4;
      }

      .cls-9 {
        fill: #7fc8d8;
      }

      .cls-10 {
        fill: #333d63;
      }

      .cls-11 {
        fill: #e8a68a;
      }

      .cls-12 {
        fill: #e19e82;
      }

      .cls-13 {
        fill: #fff;
      }

      .cls-14 {
        fill: #322a28;
      }

      .cls-15 {
        fill: #b57e67;
      }

      .cls-16 {
        fill: #3d3533;
      }

      .cls-17 {
        fill: #52311e;
      }

      .cls-18 {
        fill: #3d2517;
      }

      .cls-19 {
        fill: #e69674;
      }

      .cls-20 {
        filter: url(#Path_6714);
      }
    </style>
  </defs>
  <g
     id="Group_8613"
     data-name="Group 8613"
     transform="matrix(4.7759001,0,0,4.8527965,0.00477714,-0.01108543)">
    <g
       id="Group_7848"
       data-name="Group 7848"
       transform="translate(-911.662,-580.916)">
      <g
         id="Group_5076"
         data-name="Group 5076"
         transform="translate(952.457,778.372)">
        <path
           id="Path_3697"
           data-name="Path 3697"
           class="cls-3"
           d="M 13.8,0.756 0.938,-0.271 c 0,0 -1.665,4.647 -1.338,6.62 0.327,1.973 0.488,8.527 1.338,9.251 1.377,1.171 16.345,0.207 17.433,0 1.088,-0.207 1.52,-2.59 1.272,-4.81 C 19.395,8.57 13.8,0.756 13.8,0.756 Z"
           transform="translate(28.418,0.271)" />
        <path
           id="Path_3699"
           data-name="Path 3699"
           class="cls-4"
           d="m 13.889,0.763 h -1.858 c 0,0 7.276,7.735 0.723,6.8 0.672,2.241 3.8,5.669 2.717,8.294 1.424,-0.088 2.695,-0.2 2.984,-0.252 1.087,-0.207 1.52,-2.59 1.272,-4.81 C 19.479,8.575 13.889,0.763 13.889,0.763 Z"
           transform="translate(28.333,0.264)" />
        <g
           id="Group_5091"
           data-name="Group 5091"
           transform="translate(28.423,7.613)">
          <path
             id="Path_3695"
             data-name="Path 3695"
             class="cls-4"
             d="M 9.063,7.4 C 4.155,7.374 -0.6,8.8 -0.436,10.757 c 0.17,2.028 0.429,4.469 0.929,4.894 1.377,1.171 16.345,0.207 17.432,0 1.087,-0.207 1.52,-2.59 1.272,-4.81 C 18.949,8.621 13.972,7.416 9.063,7.4 Z"
             transform="translate(0.44,-7.395)" />
        </g>
        <path
           id="Path_3698"
           data-name="Path 3698"
           class="cls-5"
           d="m -0.429,12.52 c 0.161,1.8 0.321,2.783 0.77,3.165 1.377,1.171 16.345,0.207 17.433,0 0.756,-0.144 1.2,-1.339 1.329,-3.111 -4.052,0.772 -17.595,0.674 -19.532,-0.054 z"
           transform="translate(29.026,0.183)" />
        <path
           id="Path_3673"
           data-name="Path 3673"
           class="cls-3"
           d="m 5.466,0.756 12.867,-1.027 c 0,0 1.667,4.647 1.334,6.62 -0.333,1.973 -0.485,8.527 -1.335,9.249 C 16.956,16.77 1.987,15.805 0.9,15.6 -0.187,15.395 -0.62,13.01 -0.373,10.79 -0.126,8.57 5.466,0.756 5.466,0.756 Z"
           transform="translate(0.441,0.271)" />
        <g
           id="Group_5090"
           data-name="Group 5090"
           transform="translate(0.001,2.831)">
          <path
             id="Path_3695-2"
             data-name="Path 3695"
             class="cls-4"
             d="m 9.762,7.4 c 4.909,-0.021 9.663,1.41 9.5,3.362 -0.17,2.028 -0.429,4.469 -0.929,4.894 -1.377,1.171 -16.346,0.207 -17.433,0 -1.087,-0.207 -1.52,-2.59 -1.273,-4.81 C -0.126,8.626 4.853,7.416 9.762,7.4 Z"
             transform="translate(0.44,-2.613)" />
          <path
             id="Path_3696"
             data-name="Path 3696"
             class="cls-4"
             d="m 19.3,2.58 a 10.915,10.915 0 0 1 0.475,3.788 C 19.445,8.341 19.29,14.895 18.44,15.617 17.492,16.423 14.975,12.651 15.601,8.072 19.33,9.153 19.124,4.237 19.3,2.58 Z"
             transform="translate(0.331,-2.58)" />
        </g>
        <path
           id="Path_3674"
           data-name="Path 3674"
           class="cls-5"
           d="m 19.1,12.52 c -0.161,1.8 -0.321,2.783 -0.77,3.165 -1.377,1.171 -16.346,0.207 -17.433,0 -0.756,-0.144 -1.2,-1.339 -1.329,-3.111 4.055,0.772 17.598,0.674 19.532,-0.054 z"
           transform="translate(0.429,0.183)" />
      </g>
    </g>
  </g>
</svg>
