<?xml version="1.0" encoding="UTF-8" standalone="no"?>
<svg
   id="Laag_1"
   data-name="Laag 1"
   viewBox="0 0 373424.86 1078111.2"
   version="1.1"
   width="373424.88"
   height="1078111.1"
   xmlns="http://www.w3.org/2000/svg">
  <defs
     id="defs3094">
    <style
       id="style3092">
      .cls-1 {
        fill: #fff;
      }

      .cls-2 {
        fill: #e19e82;
      }

      .cls-3 {
        fill: #028151;
      }

      .cls-4 {
        fill: #e69674;
      }

      .cls-5 {
        fill: #ddd5d2;
      }

      .cls-6 {
        fill: #cf1915;
      }

      .cls-7 {
        fill: #3d3533;
      }

      .cls-8 {
        fill: #e5a451;
      }

      .cls-9 {
        fill: #333d63;
      }

      .cls-10 {
        fill: #039960;
      }

      .cls-11 {
        fill: #e8b29b;
      }

      .cls-12 {
        fill: #b57e67;
      }

      .cls-13 {
        fill: #edb9a3;
      }

      .cls-14 {
        fill: #ecac5a;
      }

      .cls-15 {
        fill: #df1a16;
      }

      .cls-16 {
        fill: #263056;
      }

      .cls-17 {
        fill: #322a28;
      }

      .cls-18 {
        fill: #ccb050;
      }

      .cls-19 {
        fill: #e8a68a;
      }
    </style>
  </defs>
  <g
     id="karakter-man_3"
     data-name="karakter-man 3"
     transform="translate(0,-6.9214784)">
    <g
       id="Group_8272"
       data-name="Group 8272">
      <path
         id="Path_3697"
         data-name="Path 3697"
         class="cls-15"
         d="m 396.54,964.69 -61.46,-4.9 c 0,0 -7.95,22.2 -6.38,31.62 1.57,9.42 2.31,40.73 6.38,44.18 6.58,5.59 78.07,0.99 83.27,0 5.2,-0.99 7.26,-12.37 6.08,-22.97 -1.18,-10.6 -27.89,-47.92 -27.89,-47.92 z" />
      <path
         id="Path_3699"
         data-name="Path 3699"
         class="cls-6"
         d="m 396.54,964.69 h -8.88 c 0,0 34.76,36.95 3.45,32.48 3.21,10.71 18.14,27.08 12.98,39.62 6.8,-0.42 12.87,-0.94 14.25,-1.21 5.19,-0.99 7.26,-12.37 6.08,-22.97 -1.18,-10.6 -27.88,-47.91 -27.88,-47.91 z" />
      <g
         id="Group_5091"
         data-name="Group 5091">
        <path
           id="Path_3695"
           data-name="Path 3695"
           class="cls-6"
           d="m 376.02,996.16 c -23.44,-0.11 -46.16,6.72 -45.37,16.04 0.81,9.68 2.05,21.35 4.43,23.38 6.58,5.59 78.07,0.99 83.27,0 5.2,-0.99 7.26,-12.37 6.08,-22.97 -1.18,-10.6 -24.96,-16.36 -48.41,-16.45 z" />
      </g>
      <path
         id="Path_3698"
         data-name="Path 3698"
         class="cls-5"
         d="m 331.45,1020.47 c 0.77,8.58 1.53,13.29 3.68,15.12 6.58,5.59 78.07,0.99 83.27,0 3.61,-0.69 5.71,-6.39 6.35,-14.86 -19.36,3.68 -84.05,3.22 -93.3,-0.26 z" />
      <path
         id="Path_3673"
         data-name="Path 3673"
         class="cls-15"
         d="m 223.07,964.69 61.45,-4.91 c 0,0 7.96,22.2 6.38,31.62 -1.58,9.42 -2.32,40.73 -6.38,44.18 -6.58,5.59 -78.08,0.99 -83.27,0 -5.19,-0.99 -7.26,-12.37 -6.08,-22.97 1.18,-10.6 27.9,-47.92 27.9,-47.92 z" />
      <g
         id="Group_5090"
         data-name="Group 5090">
        <path
           id="Path_3695-2"
           data-name="Path 3695-2"
           class="cls-6"
           d="m 243.59,996.17 c 23.45,-0.1 46.16,6.73 45.38,16.06 -0.81,9.68 -2.05,21.35 -4.43,23.38 -6.58,5.59 -78.08,0.99 -83.27,0 -5.19,-0.99 -7.26,-12.37 -6.08,-22.97 1.18,-10.6 24.96,-16.37 48.41,-16.46 z" />
        <path
           id="Path_3696"
           data-name="Path 3696"
           class="cls-6"
           d="m 288.64,973.31 c 1.43,5.33 3.06,13.34 2.27,18.09 -1.58,9.43 -2.32,40.73 -6.37,44.18 -4.53,3.85 -16.55,-14.17 -13.56,-36.04 17.79,5.16 16.8,-18.32 17.66,-26.24 z" />
      </g>
      <path
         id="Path_3674"
         data-name="Path 3674"
         class="cls-5"
         d="m 288.15,1020.47 c -0.77,8.58 -1.53,13.29 -3.68,15.12 -6.58,5.59 -78.08,0.99 -83.27,0 -3.61,-0.69 -5.71,-6.39 -6.34,-14.86 19.35,3.68 84.04,3.22 93.3,-0.26 z" />
    </g>
  </g>
</svg>
