<svg id="koala" xmlns="http://www.w3.org/2000/svg" width="173.071" height="179.214" viewBox="0 0 173.071 179.214">
  <g id="Group_8043" data-name="Group 8043" transform="translate(103.621)">
    <path id="Path_7243" data-name="Path 7243" d="M1269.415,1426.822c-6.915-13.076.447-28.708,12.59-37.087,15.5-10.695,35.527-7.216,47.365,7.314,3.479,4.27,6.828,9.068,6.828,15.509,0,8.9-6.345.8-6.345.8s4.172,10.9,2.452,17.295c-1.857,6.908-6.672,1.582-6.672,1.582s-.561,8.156-3.825,11.448c-5.127,5.17-5.873-4.226-5.873-4.226s-1.719,11.9-15,11.005c-5.591-.377-1.975,3.059-6.186,2.107-3.833-.865-7.181-4.274-10.213-6.577l-15.42-11.714C1266.109,1431.986,1267.059,1428.661,1269.415,1426.822Z" transform="translate(-1266.749 -1383.503)" fill="#8d9092"/>
    <path id="Path_7244" data-name="Path 7244" d="M1317.63,1441.648c3.235-3.561,8.208-6.256,13.033-5.344,5.661,1.072,10.127,9.713,9.314,15.579a26.5,26.5,0,0,1-7.987,14.872c-1.334,1.249-2.834,2.817-4.715,2.81-1.567-.006-3.2-1.113-4.614-1.93-2.985-1.723-8.945-8.077-10.042-11.186C1311.528,1453.36,1313.238,1446.479,1317.63,1441.648Z" transform="translate(-1295.938 -1417.223)" fill="#eeb4d2"/>
    <path id="Path_7313" data-name="Path 7313" d="M1333.34,1437.915c2.792,2.855,4.8,8.3,4.228,12.4a26.5,26.5,0,0,1-7.987,14.872c-1.334,1.249-2.834,2.817-4.715,2.81-1.567-.006-3.2-1.113-4.614-1.93a27.405,27.405,0,0,1-5.059-4.355C1313.182,1459.654,1331.543,1466.669,1333.34,1437.915Z" transform="translate(-1293.53 -1415.652)" fill="#e2abc8"/>
    <path id="Path_7406" data-name="Path 7406" d="M1303.229,1413.285s-1.719,11.9-15,11.005c-5.591-.377-1.975,3.059-6.186,2.107-3.833-.865,6.884-3.763,3.852-6.066C1288.758,1418.375,1290.712,1422.342,1303.229,1413.285Z" transform="translate(-1254.043 -1357.337)" fill="#838586"/>
    <path id="Path_7407" data-name="Path 7407" d="M1302.307,1409.44s-.561,8.156-3.825,11.448c-2.682,2.7-4.165,1.424-5.185-.961C1298.87,1417.309,1299.483,1414.906,1302.307,1409.44Z" transform="translate(-1243.423 -1360.715)" fill="#838586"/>
    <path id="Path_7408" data-name="Path 7408" d="M1301.778,1399.392s4.172,10.9,2.452,17.295c-1.157,4.3-3.462,3.859-5.528,2.585C1304.568,1414.29,1301.778,1399.392,1301.778,1399.392Z" transform="translate(-1238.674 -1369.544)" fill="#838586"/>
    <path id="Path_7409" data-name="Path 7409" d="M1296.2,1387.053c9.228,7.28,14.112,15.946,14.112,22.386,0,5.7-2.6,4.426-4.9,2.375C1307.259,1407.92,1304.23,1397.789,1296.2,1387.053Z" transform="translate(-1240.867 -1380.386)" fill="#838586"/>
  </g>
  <g id="Group_8044" data-name="Group 8044">
    <path id="Path_7245" data-name="Path 7245" d="M1045.051,1426.822c6.915-13.076-.447-28.708-12.591-37.087-15.5-10.695-35.526-7.216-47.365,7.314-3.479,4.27-6.828,9.068-6.828,15.509,0,8.9,6.346.8,6.346.8s-4.172,10.9-2.452,17.295c1.857,6.908,6.672,1.582,6.672,1.582s.561,8.156,3.825,11.448c5.127,5.17,5.873-4.226,5.873-4.226s1.72,11.9,14.995,11.005c5.591-.377,1.975,3.059,6.186,2.107,3.832-.865,7.181-4.274,10.213-6.577l15.42-11.714C1048.357,1431.986,1047.406,1428.661,1045.051,1426.822Z" transform="translate(-978.267 -1383.503)" fill="#8d9092"/>
    <path id="Path_7246" data-name="Path 7246" d="M1071.187,1441.648c-3.236-3.561-8.208-6.256-13.033-5.344-5.661,1.072-10.127,9.713-9.314,15.579a26.5,26.5,0,0,0,7.987,14.872c1.334,1.249,2.834,2.817,4.715,2.81,1.567-.006,3.2-1.113,4.614-1.93,2.985-1.723,8.946-8.077,10.043-11.186C1077.289,1453.36,1075.578,1446.479,1071.187,1441.648Z" transform="translate(-1023.429 -1417.223)" fill="#eeb4d2"/>
    <path id="Path_7314" data-name="Path 7314" d="M1066.786,1441.648a16.1,16.1,0,0,0-11.38-5.519,8.7,8.7,0,0,0-1.653.176c14.561,10.249,10.082,28.979,11.5,28.162a15.7,15.7,0,0,0,6.545-8.017C1072.888,1453.361,1071.177,1446.48,1066.786,1441.648Z" transform="translate(-1019.027 -1417.225)" fill="#e2abc8"/>
    <path id="Path_7410" data-name="Path 7410" d="M1026.783,1426.679c6.915-13.076-.447-28.708-12.591-37.087a35.409,35.409,0,0,0-15.133-5.925c13.264,10.63,18.79,21.531,21.406,34.249C1027.285,1429.026,1028.238,1427.816,1026.783,1426.679Z" transform="translate(-959.998 -1383.362)" fill="#838586"/>
    <path id="Path_7411" data-name="Path 7411" d="M978.338,1400.533c.57,6.065,6.213-1.14,6.213-1.14S980.906,1401.84,978.338,1400.533Z" transform="translate(-978.204 -1369.544)" fill="#838586"/>
    <path id="Path_7412" data-name="Path 7412" d="M980.591,1409.329c1.79,5.087,6.2.209,6.2.209S983.068,1410.693,980.591,1409.329Z" transform="translate(-976.224 -1360.813)" fill="#838586"/>
    <path id="Path_7413" data-name="Path 7413" d="M985.548,1416.663a5.6,5.6,0,0,0,.712.848c5.127,5.17,5.873-4.226,5.873-4.226S989.766,1418.115,985.548,1416.663Z" transform="translate(-971.869 -1357.337)" fill="#838586"/>
    <path id="Path_7414" data-name="Path 7414" d="M1009.77,1424.548c3.922-10.82-7.322,1.78-18.8-1.691,2.02,2.91,6.832,4.255,11.386,3.948,5.591-.377,13.368-2.167,16.4-4.47l15.42-11.714C1037.191,1408.335,1012.126,1426.388,1009.77,1424.548Z" transform="translate(-967.101 -1359.853)" fill="#838586"/>
  </g>
  <g id="Group_8045" data-name="Group 8045" transform="translate(44.154 106.758)">
    <path id="Path_7247" data-name="Path 7247" d="M1182.843,1701.818l-.049-.022c-7.183-3.279-17.189-9.114-24.4-12.35-5.3-2.378-8.165-3.5-14.158-3.5-.078,0-.156,0-.234.006s-.156-.006-.234-.006c-5.994,0-8.862,1.121-14.159,3.5-7.206,3.235-17.213,9.071-24.4,12.35l-.049.022c-3.4,1.552-4.911,5.17-3.374,8.08l1.06,2.007c1.538,2.91,5.541,4.01,8.941,2.458,2.792-1.275,9.069-4.445,11.837-5.764-.808.395-1.473,2.633-1.824,3.354a30.629,30.629,0,0,0-2.162,5.474c-1.521,5.665-1.32,11.182-.934,16.931.4,5.941,2.446,11.675,2.446,17.668a6.631,6.631,0,0,0,6.86,6.376h2.613a6.631,6.631,0,0,0,6.86-6.376v-8.469a19.554,19.554,0,0,0,6.281,1.044c.078,0,.156,0,.234,0s.156,0,.234,0a19.558,19.558,0,0,0,6.281-1.044v8.469a6.631,6.631,0,0,0,6.86,6.376h2.613a6.631,6.631,0,0,0,6.86-6.376c0-5.993,2.049-11.727,2.447-17.668.385-5.75.587-11.267-.935-16.931a30.591,30.591,0,0,0-2.161-5.474c-.351-.721-1.016-2.959-1.825-3.354,2.768,1.318,9.045,4.489,11.837,5.764,3.4,1.552,7.4.452,8.941-2.458l1.06-2.007C1187.754,1706.988,1186.244,1703.371,1182.843,1701.818Z" transform="translate(-1101.192 -1685.947)" fill="#8d9092"/>
    <ellipse id="Ellipse_644" data-name="Ellipse 644" cx="16.215" cy="21.74" rx="16.215" ry="21.74" transform="translate(26.598 4.168)" fill="#dacad4"/>
    <path id="Path_7308" data-name="Path 7308" d="M1161.569,1701.785l-.049-.022c-7.183-3.279-17.189-9.114-24.4-12.35-4.322-1.94-7.027-3.044-11.718-3.427,4.546,6.052,39.312,18.788,39.537,23.879a5.55,5.55,0,0,0,.263-4.3A6.435,6.435,0,0,0,1161.569,1701.785Z" transform="translate(-1079.918 -1685.914)" fill="#888c8e"/>
    <path id="Path_7309" data-name="Path 7309" d="M1101.87,1703l.389.738c1.538,2.91,5.541,4.01,8.941,2.458,2.792-1.275,9.069-4.445,11.837-5.764.878-1.777,2.316-5.182,2.316-5.182S1107.091,1705.02,1101.87,1703Z" transform="translate(-1100.597 -1677.777)" fill="#888c8e"/>
    <path id="Path_7310" data-name="Path 7310" d="M1133.278,1749.555a6.374,6.374,0,0,0,5.448-6.241c0-5.993,2.049-11.727,2.447-17.668.385-5.75.587-11.267-.935-16.931a30.591,30.591,0,0,0-2.161-5.474c-.351-.721-1.135-3.048-1.825-3.354a39.548,39.548,0,0,0-3.049-4.023s7.564,21.23,1.262,40.927C1133.317,1742.066,1134.338,1747.689,1133.278,1749.555Z" transform="translate(-1073.066 -1677.235)" fill="#888c8e"/>
    <path id="Path_7311" data-name="Path 7311" d="M1117.608,1732.374a6.376,6.376,0,0,0,5.459-6.243v-8.469a30.973,30.973,0,0,1-5.088-2.242C1118.194,1717.423,1118.867,1727.07,1117.608,1732.374Z" transform="translate(-1086.769 -1660.051)" fill="#888c8e"/>
    <path id="Path_7312" data-name="Path 7312" d="M17.741,2.622c3.452,3.545,5.936,9.791,5.936,16.815,0,10.6-5.66,19.431-13.716,21.483C16.358,33.692,21.245,19.877,17.741,2.622Z" transform="translate(35.351 6.468)" fill="#d0bec9"/>
  </g>
  <g id="Group_8046" data-name="Group 8046" transform="translate(30.924 20.015)">
    <path id="Path_7248" data-name="Path 7248" d="M1176.387,1485.4c-1.577-12.533-5.748-22.274-12.693-32.333-8.234-11.924-37.083-31.532-67.541-16.765-7.9,3.832-34.249,23.711-31.609,56.994.9,11.4,5.443,20.938,17.432,26.3,12.6,5.64,28.269,6.1,42.176,5.986a199.317,199.317,0,0,0,22.929-1.514c5.924-.734,11.781-2.111,16.792-5.126C1175.646,1511.863,1177.654,1495.457,1176.387,1485.4Z" transform="translate(-1064.36 -1431.013)" fill="#9b9fa1"/>
    <path id="Path_7250" data-name="Path 7250" d="M1221.386,1618.715a.875.875,0,0,0-.967-.631.893.893,0,0,0-.764.865c-.118,1.432-.042,2.873-.1,4.309s-.2,2.869-.364,4.3a1.12,1.12,0,0,0,1.114,1.113,1.139,1.139,0,0,0,1.113-1.113,41.856,41.856,0,0,0,.255-4.383A21.224,21.224,0,0,0,1221.386,1618.715Z" transform="translate(-1163.57 -1550.883)" fill="#1a1718"/>
    <path id="Path_7251" data-name="Path 7251" d="M1232.63,1636.381a.838.838,0,0,0-.806-.613.876.876,0,0,0-.805.613,4.5,4.5,0,0,1-1.745,2.238,6.917,6.917,0,0,1-2.933,1.1,5.586,5.586,0,0,1-3.095-.352,2.781,2.781,0,0,1-1.182-.9,2.319,2.319,0,0,1-.337-.7,1.073,1.073,0,0,0-.251-.58.359.359,0,0,0-.43-.055c-.5.353-.412,1.175-.262,1.705a3.6,3.6,0,0,0,1.044,1.652,6.008,6.008,0,0,0,4.426,1.179,8.571,8.571,0,0,0,4.215-1.522C1231.691,1639.273,1232.877,1637.992,1232.63,1636.381Z" transform="translate(-1164.521 -1562.22)" fill="#1a1718"/>
    <path id="Path_7252" data-name="Path 7252" d="M1190.7,1636.381a.838.838,0,0,1,.806-.613.875.875,0,0,1,.806.613,4.509,4.509,0,0,0,1.745,2.238,6.916,6.916,0,0,0,2.933,1.1,5.584,5.584,0,0,0,3.094-.352,2.783,2.783,0,0,0,1.182-.9,2.312,2.312,0,0,0,.337-.7,1.077,1.077,0,0,1,.251-.58.359.359,0,0,1,.43-.055c.5.353.412,1.175.263,1.705a3.608,3.608,0,0,1-1.044,1.652,6.008,6.008,0,0,1-4.427,1.179,8.574,8.574,0,0,1-4.215-1.522C1191.641,1639.273,1190.454,1637.992,1190.7,1636.381Z" transform="translate(-1145.299 -1562.22)" fill="#1a1718"/>
    <g id="Group_8105" data-name="Group 8105" transform="translate(83.68 50.243)">
      <ellipse id="Ellipse_556" data-name="Ellipse 556" cx="3.249" cy="4.467" rx="3.249" ry="4.467" transform="translate(0 0)" fill="#322a28"/>
      <ellipse id="Ellipse_557" data-name="Ellipse 557" cx="0.406" cy="0.406" rx="0.406" ry="0.406" transform="translate(1.218 1.625)" fill="#fff"/>
      <path id="Path_3693" data-name="Path 3693" d="M7.043,2.964a5.244,5.244,0,0,1,1.03,3.264C8.074,8.7,6.619,10.7,4.825,10.7A2.862,2.862,0,0,1,2.653,9.551C7.522,10.435,8.005,5.471,7.043,2.964Z" transform="translate(-1.575 -1.761)" fill="#3d3533"/>
    </g>
    <path id="Path_7332" data-name="Path 7332" d="M1140.152,1478.366a68.118,68.118,0,0,0-12.413-32.124,48.9,48.9,0,0,0-6.441-7.32c19.717,42.827,11.794,65.1-15.7,78.364,1.37-.128,3.326-.342,5.277-.584,5.924-.734,12.006-2.283,17.016-5.3C1139.666,1504.321,1141.418,1488.424,1140.152,1478.366Z" transform="translate(-1028.123 -1423.673)" fill="#94989b"/>
  </g>
  <g id="Group_8047" data-name="Group 8047" transform="translate(78.996 64.11)">
    <path id="Path_7253" data-name="Path 7253" d="M1204.1,1562.822a7.721,7.721,0,0,1,2.334-.743c9.348-1.421,10.941,13.865,7.984,19.823-1.115,2.248-2.611,4.186-5.324,4.919a8.02,8.02,0,0,1-8.926-3.661C1196.673,1577.806,1197.711,1566.057,1204.1,1562.822Z" transform="translate(-1198.191 -1561.986)" fill="#1a1718"/>
    <g id="Group_8106" data-name="Group 8106" transform="translate(3.876 2.678)">
      <path id="Path_7253-2" data-name="Path 7253" d="M1211.068,1563.411c3.433,3.8,3.666,12.942,1.534,17.238-1.115,2.248-2.611,4.186-5.324,4.919a8,8,0,0,1-7.025-1.527C1212.08,1583.491,1211.392,1572.446,1211.068,1563.411Z" transform="translate(-1200.254 -1563.411)" fill="#070606"/>
    </g>
  </g>
  <g id="Group_8104" data-name="Group 8104" transform="translate(54.486 67.31)">
    <ellipse id="Ellipse_556-2" data-name="Ellipse 556" cx="3.249" cy="4.467" rx="3.249" ry="4.467" fill="#322a28"/>
    <ellipse id="Ellipse_557-2" data-name="Ellipse 557" cx="0.406" cy="0.406" rx="0.406" ry="0.406" transform="translate(1.218 1.625)" fill="#fff"/>
    <path id="Path_3693-2" data-name="Path 3693" d="M7.043,2.964a5.244,5.244,0,0,1,1.03,3.264C8.074,8.7,6.619,10.7,4.825,10.7A2.862,2.862,0,0,1,2.653,9.551C7.522,10.435,8.005,5.471,7.043,2.964Z" transform="translate(-1.575 -1.761)" fill="#3d3533"/>
  </g>
</svg>
