<svg xmlns="http://www.w3.org/2000/svg" width="650" height="1000"><svg id="Laag_1" data-name="Laag 1" viewBox="0 0 373424.86 1078111.3" width="373424.88" height="1078111.2" xmlns="http://www.w3.org/2000/svg"><defs id="defs93"><style id="style91">
      .cls-1 {
        fill: #fff;
      }

      .cls-2 {
        fill: #e19e82;
      }

      .cls-3 {
        fill: #028151;
      }

      .cls-4 {
        fill: #e69674;
      }

      .cls-5 {
        fill: #ddd5d2;
      }

      .cls-6 {
        fill: #cf1915;
      }

      .cls-7 {
        fill: #3d3533;
      }

      .cls-8 {
        fill: #e5a451;
      }

      .cls-9 {
        fill: #333d63;
      }

      .cls-10 {
        fill: #039960;
      }

      .cls-11 {
        fill: #e8b29b;
      }

      .cls-12 {
        fill: #b57e67;
      }

      .cls-13 {
        fill: #edb9a3;
      }

      .cls-14 {
        fill: #ecac5a;
      }

      .cls-15 {
        fill: #df1a16;
      }

      .cls-16 {
        fill: #263056;
      }

      .cls-17 {
        fill: #322a28;
      }

      .cls-18 {
        fill: #ccb050;
      }

      .cls-19 {
        fill: #e8a68a;
      }
    </style></defs><g id="karakter-man_3" data-name="karakter-man 3"><g id="Group_8271" data-name="Group 8271" transform="translate(0,-0.00666604)"><g id="Group_5088" data-name="Group 5088"><g id="Group_5086" data-name="Group 5086"><g id="Group_5084" data-name="Group 5084"><path id="Path_3678" data-name="Path 3678" class="cls-13" d="M 552.86,663.9 C 529.61,643.06 505.9,587.97 476.78,576.38 447.66,564.79 447.72,542.95 447.72,542.95 l -35.94,29.93 c 0,0 19.12,9.2 26.34,35.22 7.22,26.02 67.99,63.71 84.3,87.43 2.95,4.28 2.06,22.74 6.6,27.93 15.24,0.39 49.98,-38.46 51.05,-52.83 0.39,-4.29 -21.44,-1.56 -27.21,-6.72 z"/><circle id="Ellipse_565" data-name="Ellipse 565" class="cls-13" cx="568.38" cy="710.31" r="42.700001"/></g></g><g id="Group_5085" data-name="Group 5085"><path id="Path_3678-2" data-name="Path 3678-2" class="cls-11" d="m 552.87,663.9 c -23.25,-20.84 -46.96,-75.93 -76.08,-87.52 -29.12,-11.59 -29.07,-33.43 -29.07,-33.43 l -19.03,20.95 c 0,0 48.6,26.95 60.19,38.17 20.33,19.72 47.39,63.61 52.46,71.83 10.87,-2.65 37.67,11.1 38.73,-3.27 0.4,-4.29 -21.44,-1.56 -27.19,-6.72 z"/><path id="Path_3686" data-name="Path 3686" class="cls-11" d="m 568.38,667.61 c 23.58,0 42.7,19.11 42.71,42.69 v 0 c -0.13,16.4 -9.51,31.32 -24.24,38.52 10.79,-17.87 14.83,-34.3 3.03,-53.7 -6.97,-11.44 -25.87,-15.22 -37.72,-13.08 -7.17,1.29 -20.75,4.93 -16.66,-1.27 4.09,-6.2 5.17,-9.04 6.9,-10.46 6.21,-5.17 15.68,-2.69 26,-2.69 z"/></g></g><g id="Group_5087" data-name="Group 5087"><g id="Group_5086-2" data-name="Group 5086-2"><g id="Group_5084-2" data-name="Group 5084-2"><path id="Path_3678-3" data-name="Path 3678-3" class="cls-13" d="m 89.11,694.78 c 20.84,-23.25 75.93,-46.96 87.52,-76.08 11.59,-29.12 33.43,-29.07 33.43,-29.07 l -29.93,-35.94 c 0,0 -9.2,19.12 -35.22,26.34 -26.02,7.22 -63.71,67.99 -87.43,84.3 -4.28,2.95 -22.74,2.06 -27.93,6.6 -0.39,15.24 38.46,49.98 52.83,51.05 4.29,0.39 1.56,-21.44 6.72,-27.21 z"/><circle id="Ellipse_565-2" data-name="Ellipse 565-2" class="cls-13" cx="42.700001" cy="710.31" r="42.700001"/></g></g><g id="Group_5085-2" data-name="Group 5085-2"><path id="Path_3678-4" data-name="Path 3678-4" class="cls-11" d="m 89.11,694.79 c 20.84,-23.25 75.93,-46.96 87.52,-76.08 11.59,-29.12 33.43,-29.07 33.43,-29.07 l -20.95,-19.03 c 0,0 -26.95,48.6 -38.17,60.19 -19.72,20.33 -63.61,47.39 -71.83,52.46 2.65,10.87 -11.1,37.67 3.27,38.73 4.29,0.4 1.56,-21.44 6.72,-27.19 z"/><path id="Path_3686-2" data-name="Path 3686-2" class="cls-11" d="m 85.39,710.3 c 0,23.58 -19.11,42.7 -42.69,42.71 v 0 C 26.31,752.88 11.39,743.5 4.19,728.77 c 17.87,10.79 34.3,14.83 53.7,3.03 11.44,-6.97 15.22,-25.87 13.08,-37.72 -1.29,-7.17 -4.93,-20.75 1.27,-16.66 6.2,4.09 9.04,5.17 10.46,6.9 5.17,6.21 2.69,15.68 2.69,26 z"/></g></g></g><g id="Group_8273" data-name="Group 8273" transform="translate(0,-0.00666604)"><path id="Path_3668" data-name="Path 3668" class="cls-10" d="m 232.46,463.27 c -26.44,15.49 -72.97,70.73 -92.82,77.01 -19.85,6.28 27.43,69.47 57.6,71.02 30.17,1.54 28.64,-12.81 32.97,-24.69 16.78,-46.06 28.69,-138.83 2.25,-123.34 z"/><path id="Path_3682" data-name="Path 3682" class="cls-3" d="m 174.96,602.06 c 6.88,4.98 15.06,8.87 22.27,9.24 30.17,1.53 28.65,-12.81 32.97,-24.69 10.44,-30.64 16.42,-62.63 17.74,-94.97 0.44,-20.77 -56.12,92.82 -72.98,110.43 z"/><path id="Path_3669" data-name="Path 3669" class="cls-10" d="m 387.61,463.27 c 26.44,15.49 72.97,70.73 92.82,77.01 19.85,6.28 -27.42,69.48 -57.58,71.02 -30.16,1.54 -28.64,-12.81 -32.97,-24.69 -16.79,-46.06 -28.71,-138.83 -2.27,-123.34 z"/><path id="Path_3667" data-name="Path 3667" class="cls-10" d="m 232.69,463.27 c 0,0 39.51,-20.05 77.56,-20.05 38.05,0 77.53,20.05 77.53,20.05 0,0 6.35,54.47 23.37,105.38 17.02,50.91 36.9,145.78 29.93,159.44 -6.97,13.66 -65.6,33.28 -130.84,33.28 C 245,761.37 186.82,742 180.15,728.09 173.48,714.18 193.46,614.71 210.23,568.65 227,522.59 232.67,463.27 232.67,463.27 Z"/><path id="Path_3680" data-name="Path 3680" class="cls-3" d="m 400.2,530.21 c 1.43,5.94 3.12,12.49 5.46,20.7 1.37,4.84 3.35,11.32 5.49,17.74 17.02,50.92 36.9,145.78 29.93,159.45 -3.15,6.15 -16.74,13.5 -38.02,20.14 15.24,-65.82 -11.83,-255.39 -2.85,-218.02 z"/><path id="Path_3681" data-name="Path 3681" class="cls-3" d="m 387.61,463.27 c 26.44,15.49 72.97,70.73 92.82,77.01 7.8,2.47 5.24,13.73 -3.32,27.77 -42.17,-14.58 -109.77,-88.24 -114.23,-101.84 -3.69,-16.41 15,-8.63 24.73,-2.93 z"/></g><g id="Group_8276" data-name="Group 8276" transform="translate(0,-0.00666604)"><path id="Path_3667-2" data-name="Path 3667-2" class="cls-18" d="m 245.72,457.54 c 13.12,-5.38 39.18,-14.33 64.6,-14.33 23.17,0 46.88,7.44 63.25,13.8 4.04,1.56 9.95,40.81 -63.25,41.12 -73.2,0.31 -69,-38.79 -64.6,-40.59 z"/></g></g></svg><svg id="Laag_1" data-name="Laag 1" viewBox="0 0 373424.86 1078111.2" width="373424.88" height="1078111.1" xmlns="http://www.w3.org/2000/svg"><defs id="defs93"><style id="style91">
      .cls-1 {
        fill: #fff;
      }

      .cls-2 {
        fill: #e19e82;
      }

      .cls-3 {
        fill: #028151;
      }

      .cls-4 {
        fill: #e69674;
      }

      .cls-5 {
        fill: #ddd5d2;
      }

      .cls-6 {
        fill: #cf1915;
      }

      .cls-7 {
        fill: #3d3533;
      }

      .cls-8 {
        fill: #e5a451;
      }

      .cls-9 {
        fill: #333d63;
      }

      .cls-10 {
        fill: #039960;
      }

      .cls-11 {
        fill: #e8b29b;
      }

      .cls-12 {
        fill: #b57e67;
      }

      .cls-13 {
        fill: #edb9a3;
      }

      .cls-14 {
        fill: #ecac5a;
      }

      .cls-15 {
        fill: #df1a16;
      }

      .cls-16 {
        fill: #263056;
      }

      .cls-17 {
        fill: #322a28;
      }

      .cls-18 {
        fill: #ccb050;
      }

      .cls-19 {
        fill: #e8a68a;
      }
    </style></defs><g id="karakter-man_3" data-name="karakter-man 3" transform="translate(0,-6.9214784)"><g id="Group_8274" data-name="Group 8274"><path id="Path_3650" data-name="Path 3650" class="cls-19" d="m 310.05,483.26 c -30.97,-0.27 -50.46,-15.95 -48.52,-25.34 5.52,-9.15 5.43,-18.48 5.43,-29.05 0,-34.31 2.18,-62.45 43.09,-62.66 40.91,-0.2 43.26,28.35 43.26,62.66 0,9.09 -0.73,19.48 5.21,28.65 2.58,9.39 -15.58,26.03 -48.46,25.74 z"/><path id="Path_3694" data-name="Path 3694" class="cls-2" d="m 353.31,428.86 c 0,9.09 -0.73,19.48 5.21,28.65 1.45,5.29 -3.67,12.87 -15.6,19.1 -6.94,3.67 10.39,-82.06 10.39,-47.75 z"/><path id="Path_3624" data-name="Path 3624" class="cls-19" d="m 546.29,229.98 -20.67,119.44 c 0,0 47.3,0.02 56.56,-53.5 9.26,-53.51 -35.89,-65.95 -35.89,-65.95 z"/><path id="Path_3623" data-name="Path 3623" class="cls-19" d="m 73.76,229.98 20.67,119.44 c 0,0 -47.3,0.02 -56.56,-53.5 -9.26,-53.51 35.89,-65.95 35.89,-65.95 z"/><path id="Path_3620" data-name="Path 3620" class="cls-13" d="M 310.03,451.53 C 102.3,450.18 70.46,380.69 70.46,262.79 70.46,144.89 120.08,50.02 310.03,49.32 499.98,48.61 549.6,144.9 549.6,262.8 c 0,117.9 -31.83,190.09 -239.57,188.74 z"/><ellipse id="Ellipse_555" data-name="Ellipse 555" class="cls-1" cx="193.8" cy="285.56" rx="59.299999" ry="80.650002"/><ellipse id="Ellipse_556" data-name="Ellipse 556" class="cls-17" cx="205.66" cy="290.29999" rx="37.950001" ry="52.18"/><circle id="Ellipse_557" data-name="Ellipse 557" class="cls-1" cx="186.67999" cy="261.84" r="4.7399998"/><ellipse id="Ellipse_558" data-name="Ellipse 558" class="cls-1" cx="426.25" cy="285.56" rx="59.299999" ry="80.650002"/><ellipse id="Ellipse_559" data-name="Ellipse 559" class="cls-17" cx="414.39001" cy="290.29999" rx="37.950001" ry="52.18"/><circle id="Ellipse_560" data-name="Ellipse 560" class="cls-1" cx="395.42001" cy="261.84" r="4.7399998"/><path id="Path_3621" data-name="Path 3621" class="cls-12" d="m 286.3,376.45 h 47.45 c 0,0 0.71,43.69 -23.2,43.69 -23.91,0 -24.25,-43.69 -24.25,-43.69 z"/><path id="Path_3622" data-name="Path 3622" class="cls-1" d="m 298.83,376.45 h 22.38 c 0,0 -0.01,9 -11.3,9 -11.29,0 -11.09,-9 -11.09,-9 z"/><path id="Path_3648" data-name="Path 3648" class="cls-19" d="m 310.03,349.42 c -16.43,-0.11 -18.95,-5.6 -18.95,-14.93 0,-9.33 3.92,-16.83 18.95,-16.88 15.03,-0.05 18.95,7.56 18.95,16.88 0,9.32 -2.52,15.03 -18.95,14.92 z"/><path id="Path_3685" data-name="Path 3685" class="cls-11" d="m 512.52,125.4 c 27.17,36.31 37.08,84.69 37.08,137.39 0,101.04 -23.38,168.51 -162.27,185.06 76.41,-34.86 152.34,-36.04 125.19,-322.45 z"/><path id="Path_3649" data-name="Path 3649" class="cls-14" d="m 100.59,196.34 c 0,0 -13.49,78.27 -22.72,82.12 -9.23,3.85 -14.19,-41.61 -14.19,-66.72 -20.78,1.74 7.33,-63.42 7.33,-63.42 0,0 -51.95,-6.77 63.18,-87.19 C 112.1,50.96 138.16,21.3 217.99,27.11 204.28,7 244.1,-4.6 310.03,16.63 c -10.54,-18.54 43.12,-28.57 94.49,8.38 31.37,-3.31 108.11,14.27 81.6,32.05 28.53,18.92 94.39,65.19 57.99,74.82 8.56,23.33 28.83,78.94 12.25,79.88 0,22.63 -1.87,81.49 -17.46,66.72 -15.59,-14.77 -44.91,-125.8 -44.91,-125.8 -2.47,18.95 -16.19,34.51 -34.68,39.33 -32.22,9.07 -91.59,-61.21 -91.59,-61.21 0,0 -88.51,59.4 -112.78,50.7 -14.95,-5.65 -27.84,-15.7 -36.96,-28.83 0,0 -57.76,62.68 -83.8,73.59 -26.04,10.91 -33.6,-29.92 -33.6,-29.92 z"/><ellipse id="Ellipse_561" data-name="Ellipse 561" class="cls-4" cx="139.98" cy="376.45001" rx="11.86" ry="16.6" transform="rotate(-48,139.97954,376.44741)"/><ellipse id="Ellipse_562" data-name="Ellipse 562" class="cls-4" cx="480.07001" cy="376.45001" rx="16.6" ry="11.86" transform="rotate(-42,480.06941,376.44118)"/><path id="Path_3688" data-name="Path 3688" class="cls-8" d="m 494,152.67 c 0,0 -6.67,37.56 -30.22,39.87 -23.55,2.31 -32.09,-3.39 -45.35,-14.35 51.81,6.08 75.58,-25.52 75.58,-25.52 z"/><path id="Path_3689" data-name="Path 3689" class="cls-8" d="m 367.72,130.79 c 0,0 -83.39,62.75 -117.76,49.93 -7.21,-2.32 -17.73,-11.63 -22.03,-16.42 41.41,10.93 139.79,-33.51 139.79,-33.51 z"/><path id="Path_3690" data-name="Path 3690" class="cls-8" d="m 217.99,152.67 c 0,0 -57.76,62.68 -83.8,73.6 -13.34,5.59 -21.82,-2.39 -27.62,-12.77 31.42,0.53 111.42,-60.82 111.42,-60.82 z"/><path id="Path_3691" data-name="Path 3691" class="cls-8" d="m 100.59,196.34 c 0,0 -13.49,78.27 -22.72,82.12 -3.69,1.54 -6.7,-4.81 -9.3,-16.01 12.97,-7.93 32.02,-66.12 32.02,-66.12 z"/><path id="Path_3692" data-name="Path 3692" class="cls-7" d="m 440.31,252.18 c 7.02,8.43 12.04,22.47 12.04,38.12 0,28.82 -16.99,52.18 -37.95,52.18 -9.31,0 -17.83,-4.6 -25.37,-13.37 56.87,10.32 62.52,-47.65 51.28,-76.94 z"/><path id="Path_3693" data-name="Path 3693" class="cls-7" d="m 231.57,252.18 c 7.02,8.43 12.04,22.47 12.04,38.12 0,28.82 -16.99,52.18 -37.95,52.18 -9.31,0 -17.83,-4.6 -25.37,-13.37 56.87,10.32 62.52,-47.65 51.28,-76.94 z"/><path id="Path_7444" data-name="Path 7444" class="cls-8" d="m 556.37,211.75 c 0,22.63 -1.87,81.49 -17.46,66.72 -2.7,-2.56 -5.81,-7.99 -9.68,-16.54 11.24,-4.43 21.31,-22.97 27.14,-50.18 z"/><path id="Path_7445" data-name="Path 7445" class="cls-8" d="m 559.34,178.85 c 4.27,16.73 5.77,32.41 -2.97,32.9 2.18,-7.97 2.45,-17.86 2.97,-32.9 z"/><path id="Path_7446" data-name="Path 7446" class="cls-8" d="m 516.43,78.69 c 36.83,28.44 48.79,47.59 27.69,53.17 4.13,-9.98 -11.3,-31.91 -27.69,-53.17 z"/><path id="Path_7447" data-name="Path 7447" class="cls-8" d="M 424.66,25.1 C 458.8,28.2 508.51,42 486.08,57.12 482.3,47 451.14,29.48 424.66,25.1 Z"/><path id="Path_7448" data-name="Path 7448" class="cls-8" d="M 387.23,14.23 C 361.41,-3.38 298.68,-6.78 310.07,16.52 315.91,7.2 362.49,4.09 387.23,14.23 Z"/><path id="Path_7449" data-name="Path 7449" class="cls-8" d="M 288.07,10.57 C 250.64,0.54 203.1,3.61 217.85,27.04 223.69,17.72 260.5,6.85 288.07,10.58 Z"/><path id="Path_7450" data-name="Path 7450" class="cls-8" d="m 198.27,26.42 c -44.48,-2.68 -90.81,19.56 -64.13,34.71 -2.2,-12.46 37.12,-30.71 64.13,-34.71 z"/><path id="Path_7451" data-name="Path 7451" class="cls-8" d="m 110.81,78.17 c -39.06,28.99 -69.17,62.91 -39.65,70.3 -2.2,-12.46 16.17,-44.79 39.65,-70.3 z"/><path id="Path_7452" data-name="Path 7452" class="cls-8" d="M 67.85,156.19 C 49.18,204 56.5,212.77 63.67,211.76 56.22,201.52 59.93,192.32 67.85,156.19 Z"/></g></g></svg><svg id="Laag_1" data-name="Laag 1" viewBox="0 0 373424.86 1078111.2" width="373424.88" height="1078111.1" xmlns="http://www.w3.org/2000/svg"><defs id="defs3094"><style id="style3092">
      .cls-1 {
        fill: #fff;
      }

      .cls-2 {
        fill: #e19e82;
      }

      .cls-3 {
        fill: #028151;
      }

      .cls-4 {
        fill: #e69674;
      }

      .cls-5 {
        fill: #ddd5d2;
      }

      .cls-6 {
        fill: #cf1915;
      }

      .cls-7 {
        fill: #3d3533;
      }

      .cls-8 {
        fill: #e5a451;
      }

      .cls-9 {
        fill: #333d63;
      }

      .cls-10 {
        fill: #039960;
      }

      .cls-11 {
        fill: #e8b29b;
      }

      .cls-12 {
        fill: #b57e67;
      }

      .cls-13 {
        fill: #edb9a3;
      }

      .cls-14 {
        fill: #ecac5a;
      }

      .cls-15 {
        fill: #df1a16;
      }

      .cls-16 {
        fill: #263056;
      }

      .cls-17 {
        fill: #322a28;
      }

      .cls-18 {
        fill: #ccb050;
      }

      .cls-19 {
        fill: #e8a68a;
      }
    </style></defs><g id="karakter-man_3" data-name="karakter-man 3" transform="translate(0,-6.9214784)"><path id="Union_15" data-name="Union 15" class="cls-9" d="m 328.95,960.02 c -5.11,-12.03 -0.17,-160.22 -16.1,-159.72 -0.99,0.02 -1.98,-0.01 -2.96,-0.1 -0.88,0.09 -1.76,0.12 -2.65,0.1 -15.94,-0.5 -11,147.69 -16.11,159.72 -5.11,12.03 -68.06,20.44 -73.71,0 -2.82,-10.17 -5.8,-71.59 -11.48,-121.14 -1.64,-14.18 -3.48,-27.9 -5.41,-41.76 -3.83,-27.87 -7.12,-50.14 -5,-54.96 4.92,-11.14 85.13,-4.12 114.5,-1.14 29.39,-2.97 109.58,-10.02 114.52,1.14 2.12,4.84 -1.17,27.08 -5,54.95 -1.94,13.87 -3.78,27.6 -5.41,41.76 -5.68,49.56 -8.66,110.98 -11.48,121.14 -2.47,8.96 -15.94,12.37 -30.74,12.37 -18.96,0.01 -40.1,-5.6 -42.97,-12.36 z"/><path id="Path_7453" data-name="Path 7453" class="cls-16" d="m 386.26,970.96 c 7.78,-1.29 14.64,-4.71 16.38,-11.01 2.81,-10.17 5.81,-72.46 11.5,-122 1.63,-14.18 3.48,-27.89 5.4,-41.77 3.84,-27.87 7.13,-50.13 5,-54.95 -1.41,-3.2 -0.02,-6.76 -12.26,-7.59 -13.04,42.74 -15.16,174.06 -26.02,237.32 z"/><path id="Path_7454" data-name="Path 7454" class="cls-16" d="m 289.58,813.99 c 4.03,-12.47 18.64,-18.18 15.53,-13.98 -2.17,2.95 -3.61,6.38 -4.21,10 -8.32,31.25 -5.47,139.92 -9.79,150.08 -2.28,5.04 -17.28,9.25 -17.28,9.25 0,0 11.73,-142.89 15.75,-155.36 z"/></g></svg><svg id="Laag_1" data-name="Laag 1" viewBox="0 0 373424.86 1078111.2" width="373424.88" height="1078111.1" xmlns="http://www.w3.org/2000/svg"><defs id="defs3094"><style id="style3092">
      .cls-1 {
        fill: #fff;
      }

      .cls-2 {
        fill: #e19e82;
      }

      .cls-3 {
        fill: #028151;
      }

      .cls-4 {
        fill: #e69674;
      }

      .cls-5 {
        fill: #ddd5d2;
      }

      .cls-6 {
        fill: #cf1915;
      }

      .cls-7 {
        fill: #3d3533;
      }

      .cls-8 {
        fill: #e5a451;
      }

      .cls-9 {
        fill: #333d63;
      }

      .cls-10 {
        fill: #039960;
      }

      .cls-11 {
        fill: #e8b29b;
      }

      .cls-12 {
        fill: #b57e67;
      }

      .cls-13 {
        fill: #edb9a3;
      }

      .cls-14 {
        fill: #ecac5a;
      }

      .cls-15 {
        fill: #df1a16;
      }

      .cls-16 {
        fill: #263056;
      }

      .cls-17 {
        fill: #322a28;
      }

      .cls-18 {
        fill: #ccb050;
      }

      .cls-19 {
        fill: #e8a68a;
      }
    </style></defs><g id="karakter-man_3" data-name="karakter-man 3" transform="translate(0,-6.9214784)"><g id="Group_8272" data-name="Group 8272"><path id="Path_3697" data-name="Path 3697" class="cls-15" d="m 396.54,964.69 -61.46,-4.9 c 0,0 -7.95,22.2 -6.38,31.62 1.57,9.42 2.31,40.73 6.38,44.18 6.58,5.59 78.07,0.99 83.27,0 5.2,-0.99 7.26,-12.37 6.08,-22.97 -1.18,-10.6 -27.89,-47.92 -27.89,-47.92 z"/><path id="Path_3699" data-name="Path 3699" class="cls-6" d="m 396.54,964.69 h -8.88 c 0,0 34.76,36.95 3.45,32.48 3.21,10.71 18.14,27.08 12.98,39.62 6.8,-0.42 12.87,-0.94 14.25,-1.21 5.19,-0.99 7.26,-12.37 6.08,-22.97 -1.18,-10.6 -27.88,-47.91 -27.88,-47.91 z"/><g id="Group_5091" data-name="Group 5091"><path id="Path_3695" data-name="Path 3695" class="cls-6" d="m 376.02,996.16 c -23.44,-0.11 -46.16,6.72 -45.37,16.04 0.81,9.68 2.05,21.35 4.43,23.38 6.58,5.59 78.07,0.99 83.27,0 5.2,-0.99 7.26,-12.37 6.08,-22.97 -1.18,-10.6 -24.96,-16.36 -48.41,-16.45 z"/></g><path id="Path_3698" data-name="Path 3698" class="cls-5" d="m 331.45,1020.47 c 0.77,8.58 1.53,13.29 3.68,15.12 6.58,5.59 78.07,0.99 83.27,0 3.61,-0.69 5.71,-6.39 6.35,-14.86 -19.36,3.68 -84.05,3.22 -93.3,-0.26 z"/><path id="Path_3673" data-name="Path 3673" class="cls-15" d="m 223.07,964.69 61.45,-4.91 c 0,0 7.96,22.2 6.38,31.62 -1.58,9.42 -2.32,40.73 -6.38,44.18 -6.58,5.59 -78.08,0.99 -83.27,0 -5.19,-0.99 -7.26,-12.37 -6.08,-22.97 1.18,-10.6 27.9,-47.92 27.9,-47.92 z"/><g id="Group_5090" data-name="Group 5090"><path id="Path_3695-2" data-name="Path 3695-2" class="cls-6" d="m 243.59,996.17 c 23.45,-0.1 46.16,6.73 45.38,16.06 -0.81,9.68 -2.05,21.35 -4.43,23.38 -6.58,5.59 -78.08,0.99 -83.27,0 -5.19,-0.99 -7.26,-12.37 -6.08,-22.97 1.18,-10.6 24.96,-16.37 48.41,-16.46 z"/><path id="Path_3696" data-name="Path 3696" class="cls-6" d="m 288.64,973.31 c 1.43,5.33 3.06,13.34 2.27,18.09 -1.58,9.43 -2.32,40.73 -6.37,44.18 -4.53,3.85 -16.55,-14.17 -13.56,-36.04 17.79,5.16 16.8,-18.32 17.66,-26.24 z"/></g><path id="Path_3674" data-name="Path 3674" class="cls-5" d="m 288.15,1020.47 c -0.77,8.58 -1.53,13.29 -3.68,15.12 -6.58,5.59 -78.08,0.99 -83.27,0 -3.61,-0.69 -5.71,-6.39 -6.34,-14.86 19.35,3.68 84.04,3.22 93.3,-0.26 z"/></g></g></svg><defs id="defs93"><style id="style91">
      .cls-1 {
        fill: #fff;
      }

      .cls-2 {
        fill: #e19e82;
      }

      .cls-3 {
        fill: #028151;
      }

      .cls-4 {
        fill: #e69674;
      }

      .cls-5 {
        fill: #ddd5d2;
      }

      .cls-6 {
        fill: #cf1915;
      }

      .cls-7 {
        fill: #3d3533;
      }

      .cls-8 {
        fill: #e5a451;
      }

      .cls-9 {
        fill: #333d63;
      }

      .cls-10 {
        fill: #039960;
      }

      .cls-11 {
        fill: #e8b29b;
      }

      .cls-12 {
        fill: #b57e67;
      }

      .cls-13 {
        fill: #edb9a3;
      }

      .cls-14 {
        fill: #ecac5a;
      }

      .cls-15 {
        fill: #df1a16;
      }

      .cls-16 {
        fill: #263056;
      }

      .cls-17 {
        fill: #322a28;
      }

      .cls-18 {
        fill: #ccb050;
      }

      .cls-19 {
        fill: #e8a68a;
      }
    </style></defs><g id="karakter-man_3" data-name="karakter-man 3"><g id="Group_8271" data-name="Group 8271" transform="translate(0,-0.00666604)"><g id="Group_5088" data-name="Group 5088"><g id="Group_5086" data-name="Group 5086"><g id="Group_5084" data-name="Group 5084"><path id="Path_3678" data-name="Path 3678" class="cls-13" d="M 552.86,663.9 C 529.61,643.06 505.9,587.97 476.78,576.38 447.66,564.79 447.72,542.95 447.72,542.95 l -35.94,29.93 c 0,0 19.12,9.2 26.34,35.22 7.22,26.02 67.99,63.71 84.3,87.43 2.95,4.28 2.06,22.74 6.6,27.93 15.24,0.39 49.98,-38.46 51.05,-52.83 0.39,-4.29 -21.44,-1.56 -27.21,-6.72 z"/><circle id="Ellipse_565" data-name="Ellipse 565" class="cls-13" cx="568.38" cy="710.31" r="42.700001"/></g></g><g id="Group_5085" data-name="Group 5085"><path id="Path_3678-2" data-name="Path 3678-2" class="cls-11" d="m 552.87,663.9 c -23.25,-20.84 -46.96,-75.93 -76.08,-87.52 -29.12,-11.59 -29.07,-33.43 -29.07,-33.43 l -19.03,20.95 c 0,0 48.6,26.95 60.19,38.17 20.33,19.72 47.39,63.61 52.46,71.83 10.87,-2.65 37.67,11.1 38.73,-3.27 0.4,-4.29 -21.44,-1.56 -27.19,-6.72 z"/><path id="Path_3686" data-name="Path 3686" class="cls-11" d="m 568.38,667.61 c 23.58,0 42.7,19.11 42.71,42.69 v 0 c -0.13,16.4 -9.51,31.32 -24.24,38.52 10.79,-17.87 14.83,-34.3 3.03,-53.7 -6.97,-11.44 -25.87,-15.22 -37.72,-13.08 -7.17,1.29 -20.75,4.93 -16.66,-1.27 4.09,-6.2 5.17,-9.04 6.9,-10.46 6.21,-5.17 15.68,-2.69 26,-2.69 z"/></g></g><g id="Group_5087" data-name="Group 5087"><g id="Group_5086-2" data-name="Group 5086-2"><g id="Group_5084-2" data-name="Group 5084-2"><path id="Path_3678-3" data-name="Path 3678-3" class="cls-13" d="m 89.11,694.78 c 20.84,-23.25 75.93,-46.96 87.52,-76.08 11.59,-29.12 33.43,-29.07 33.43,-29.07 l -29.93,-35.94 c 0,0 -9.2,19.12 -35.22,26.34 -26.02,7.22 -63.71,67.99 -87.43,84.3 -4.28,2.95 -22.74,2.06 -27.93,6.6 -0.39,15.24 38.46,49.98 52.83,51.05 4.29,0.39 1.56,-21.44 6.72,-27.21 z"/><circle id="Ellipse_565-2" data-name="Ellipse 565-2" class="cls-13" cx="42.700001" cy="710.31" r="42.700001"/></g></g><g id="Group_5085-2" data-name="Group 5085-2"><path id="Path_3678-4" data-name="Path 3678-4" class="cls-11" d="m 89.11,694.79 c 20.84,-23.25 75.93,-46.96 87.52,-76.08 11.59,-29.12 33.43,-29.07 33.43,-29.07 l -20.95,-19.03 c 0,0 -26.95,48.6 -38.17,60.19 -19.72,20.33 -63.61,47.39 -71.83,52.46 2.65,10.87 -11.1,37.67 3.27,38.73 4.29,0.4 1.56,-21.44 6.72,-27.19 z"/><path id="Path_3686-2" data-name="Path 3686-2" class="cls-11" d="m 85.39,710.3 c 0,23.58 -19.11,42.7 -42.69,42.71 v 0 C 26.31,752.88 11.39,743.5 4.19,728.77 c 17.87,10.79 34.3,14.83 53.7,3.03 11.44,-6.97 15.22,-25.87 13.08,-37.72 -1.29,-7.17 -4.93,-20.75 1.27,-16.66 6.2,4.09 9.04,5.17 10.46,6.9 5.17,6.21 2.69,15.68 2.69,26 z"/></g></g></g><g id="Group_8273" data-name="Group 8273" transform="translate(0,-0.00666604)"><path id="Path_3668" data-name="Path 3668" class="cls-10" d="m 232.46,463.27 c -26.44,15.49 -72.97,70.73 -92.82,77.01 -19.85,6.28 27.43,69.47 57.6,71.02 30.17,1.54 28.64,-12.81 32.97,-24.69 16.78,-46.06 28.69,-138.83 2.25,-123.34 z"/><path id="Path_3682" data-name="Path 3682" class="cls-3" d="m 174.96,602.06 c 6.88,4.98 15.06,8.87 22.27,9.24 30.17,1.53 28.65,-12.81 32.97,-24.69 10.44,-30.64 16.42,-62.63 17.74,-94.97 0.44,-20.77 -56.12,92.82 -72.98,110.43 z"/><path id="Path_3669" data-name="Path 3669" class="cls-10" d="m 387.61,463.27 c 26.44,15.49 72.97,70.73 92.82,77.01 19.85,6.28 -27.42,69.48 -57.58,71.02 -30.16,1.54 -28.64,-12.81 -32.97,-24.69 -16.79,-46.06 -28.71,-138.83 -2.27,-123.34 z"/><path id="Path_3667" data-name="Path 3667" class="cls-10" d="m 232.69,463.27 c 0,0 39.51,-20.05 77.56,-20.05 38.05,0 77.53,20.05 77.53,20.05 0,0 6.35,54.47 23.37,105.38 17.02,50.91 36.9,145.78 29.93,159.44 -6.97,13.66 -65.6,33.28 -130.84,33.28 C 245,761.37 186.82,742 180.15,728.09 173.48,714.18 193.46,614.71 210.23,568.65 227,522.59 232.67,463.27 232.67,463.27 Z"/><path id="Path_3680" data-name="Path 3680" class="cls-3" d="m 400.2,530.21 c 1.43,5.94 3.12,12.49 5.46,20.7 1.37,4.84 3.35,11.32 5.49,17.74 17.02,50.92 36.9,145.78 29.93,159.45 -3.15,6.15 -16.74,13.5 -38.02,20.14 15.24,-65.82 -11.83,-255.39 -2.85,-218.02 z"/><path id="Path_3681" data-name="Path 3681" class="cls-3" d="m 387.61,463.27 c 26.44,15.49 72.97,70.73 92.82,77.01 7.8,2.47 5.24,13.73 -3.32,27.77 -42.17,-14.58 -109.77,-88.24 -114.23,-101.84 -3.69,-16.41 15,-8.63 24.73,-2.93 z"/></g><g id="Group_8276" data-name="Group 8276" transform="translate(0,-0.00666604)"><path id="Path_3667-2" data-name="Path 3667-2" class="cls-18" d="m 245.72,457.54 c 13.12,-5.38 39.18,-14.33 64.6,-14.33 23.17,0 46.88,7.44 63.25,13.8 4.04,1.56 9.95,40.81 -63.25,41.12 -73.2,0.31 -69,-38.79 -64.6,-40.59 z"/></g></g><defs id="defs93"><style id="style91">
      .cls-1 {
        fill: #fff;
      }

      .cls-2 {
        fill: #e19e82;
      }

      .cls-3 {
        fill: #028151;
      }

      .cls-4 {
        fill: #e69674;
      }

      .cls-5 {
        fill: #ddd5d2;
      }

      .cls-6 {
        fill: #cf1915;
      }

      .cls-7 {
        fill: #3d3533;
      }

      .cls-8 {
        fill: #e5a451;
      }

      .cls-9 {
        fill: #333d63;
      }

      .cls-10 {
        fill: #039960;
      }

      .cls-11 {
        fill: #e8b29b;
      }

      .cls-12 {
        fill: #b57e67;
      }

      .cls-13 {
        fill: #edb9a3;
      }

      .cls-14 {
        fill: #ecac5a;
      }

      .cls-15 {
        fill: #df1a16;
      }

      .cls-16 {
        fill: #263056;
      }

      .cls-17 {
        fill: #322a28;
      }

      .cls-18 {
        fill: #ccb050;
      }

      .cls-19 {
        fill: #e8a68a;
      }
    </style></defs><g id="karakter-man_3" data-name="karakter-man 3" transform="translate(0,-6.9214784)"><g id="Group_8274" data-name="Group 8274"><path id="Path_3650" data-name="Path 3650" class="cls-19" d="m 310.05,483.26 c -30.97,-0.27 -50.46,-15.95 -48.52,-25.34 5.52,-9.15 5.43,-18.48 5.43,-29.05 0,-34.31 2.18,-62.45 43.09,-62.66 40.91,-0.2 43.26,28.35 43.26,62.66 0,9.09 -0.73,19.48 5.21,28.65 2.58,9.39 -15.58,26.03 -48.46,25.74 z"/><path id="Path_3694" data-name="Path 3694" class="cls-2" d="m 353.31,428.86 c 0,9.09 -0.73,19.48 5.21,28.65 1.45,5.29 -3.67,12.87 -15.6,19.1 -6.94,3.67 10.39,-82.06 10.39,-47.75 z"/><path id="Path_3624" data-name="Path 3624" class="cls-19" d="m 546.29,229.98 -20.67,119.44 c 0,0 47.3,0.02 56.56,-53.5 9.26,-53.51 -35.89,-65.95 -35.89,-65.95 z"/><path id="Path_3623" data-name="Path 3623" class="cls-19" d="m 73.76,229.98 20.67,119.44 c 0,0 -47.3,0.02 -56.56,-53.5 -9.26,-53.51 35.89,-65.95 35.89,-65.95 z"/><path id="Path_3620" data-name="Path 3620" class="cls-13" d="M 310.03,451.53 C 102.3,450.18 70.46,380.69 70.46,262.79 70.46,144.89 120.08,50.02 310.03,49.32 499.98,48.61 549.6,144.9 549.6,262.8 c 0,117.9 -31.83,190.09 -239.57,188.74 z"/><ellipse id="Ellipse_555" data-name="Ellipse 555" class="cls-1" cx="193.8" cy="285.56" rx="59.299999" ry="80.650002"/><ellipse id="Ellipse_556" data-name="Ellipse 556" class="cls-17" cx="205.66" cy="290.29999" rx="37.950001" ry="52.18"/><circle id="Ellipse_557" data-name="Ellipse 557" class="cls-1" cx="186.67999" cy="261.84" r="4.7399998"/><ellipse id="Ellipse_558" data-name="Ellipse 558" class="cls-1" cx="426.25" cy="285.56" rx="59.299999" ry="80.650002"/><ellipse id="Ellipse_559" data-name="Ellipse 559" class="cls-17" cx="414.39001" cy="290.29999" rx="37.950001" ry="52.18"/><circle id="Ellipse_560" data-name="Ellipse 560" class="cls-1" cx="395.42001" cy="261.84" r="4.7399998"/><path id="Path_3621" data-name="Path 3621" class="cls-12" d="m 286.3,376.45 h 47.45 c 0,0 0.71,43.69 -23.2,43.69 -23.91,0 -24.25,-43.69 -24.25,-43.69 z"/><path id="Path_3622" data-name="Path 3622" class="cls-1" d="m 298.83,376.45 h 22.38 c 0,0 -0.01,9 -11.3,9 -11.29,0 -11.09,-9 -11.09,-9 z"/><path id="Path_3648" data-name="Path 3648" class="cls-19" d="m 310.03,349.42 c -16.43,-0.11 -18.95,-5.6 -18.95,-14.93 0,-9.33 3.92,-16.83 18.95,-16.88 15.03,-0.05 18.95,7.56 18.95,16.88 0,9.32 -2.52,15.03 -18.95,14.92 z"/><path id="Path_3685" data-name="Path 3685" class="cls-11" d="m 512.52,125.4 c 27.17,36.31 37.08,84.69 37.08,137.39 0,101.04 -23.38,168.51 -162.27,185.06 76.41,-34.86 152.34,-36.04 125.19,-322.45 z"/><path id="Path_3649" data-name="Path 3649" class="cls-14" d="m 100.59,196.34 c 0,0 -13.49,78.27 -22.72,82.12 -9.23,3.85 -14.19,-41.61 -14.19,-66.72 -20.78,1.74 7.33,-63.42 7.33,-63.42 0,0 -51.95,-6.77 63.18,-87.19 C 112.1,50.96 138.16,21.3 217.99,27.11 204.28,7 244.1,-4.6 310.03,16.63 c -10.54,-18.54 43.12,-28.57 94.49,8.38 31.37,-3.31 108.11,14.27 81.6,32.05 28.53,18.92 94.39,65.19 57.99,74.82 8.56,23.33 28.83,78.94 12.25,79.88 0,22.63 -1.87,81.49 -17.46,66.72 -15.59,-14.77 -44.91,-125.8 -44.91,-125.8 -2.47,18.95 -16.19,34.51 -34.68,39.33 -32.22,9.07 -91.59,-61.21 -91.59,-61.21 0,0 -88.51,59.4 -112.78,50.7 -14.95,-5.65 -27.84,-15.7 -36.96,-28.83 0,0 -57.76,62.68 -83.8,73.59 -26.04,10.91 -33.6,-29.92 -33.6,-29.92 z"/><ellipse id="Ellipse_561" data-name="Ellipse 561" class="cls-4" cx="139.98" cy="376.45001" rx="11.86" ry="16.6" transform="rotate(-48,139.97954,376.44741)"/><ellipse id="Ellipse_562" data-name="Ellipse 562" class="cls-4" cx="480.07001" cy="376.45001" rx="16.6" ry="11.86" transform="rotate(-42,480.06941,376.44118)"/><path id="Path_3688" data-name="Path 3688" class="cls-8" d="m 494,152.67 c 0,0 -6.67,37.56 -30.22,39.87 -23.55,2.31 -32.09,-3.39 -45.35,-14.35 51.81,6.08 75.58,-25.52 75.58,-25.52 z"/><path id="Path_3689" data-name="Path 3689" class="cls-8" d="m 367.72,130.79 c 0,0 -83.39,62.75 -117.76,49.93 -7.21,-2.32 -17.73,-11.63 -22.03,-16.42 41.41,10.93 139.79,-33.51 139.79,-33.51 z"/><path id="Path_3690" data-name="Path 3690" class="cls-8" d="m 217.99,152.67 c 0,0 -57.76,62.68 -83.8,73.6 -13.34,5.59 -21.82,-2.39 -27.62,-12.77 31.42,0.53 111.42,-60.82 111.42,-60.82 z"/><path id="Path_3691" data-name="Path 3691" class="cls-8" d="m 100.59,196.34 c 0,0 -13.49,78.27 -22.72,82.12 -3.69,1.54 -6.7,-4.81 -9.3,-16.01 12.97,-7.93 32.02,-66.12 32.02,-66.12 z"/><path id="Path_3692" data-name="Path 3692" class="cls-7" d="m 440.31,252.18 c 7.02,8.43 12.04,22.47 12.04,38.12 0,28.82 -16.99,52.18 -37.95,52.18 -9.31,0 -17.83,-4.6 -25.37,-13.37 56.87,10.32 62.52,-47.65 51.28,-76.94 z"/><path id="Path_3693" data-name="Path 3693" class="cls-7" d="m 231.57,252.18 c 7.02,8.43 12.04,22.47 12.04,38.12 0,28.82 -16.99,52.18 -37.95,52.18 -9.31,0 -17.83,-4.6 -25.37,-13.37 56.87,10.32 62.52,-47.65 51.28,-76.94 z"/><path id="Path_7444" data-name="Path 7444" class="cls-8" d="m 556.37,211.75 c 0,22.63 -1.87,81.49 -17.46,66.72 -2.7,-2.56 -5.81,-7.99 -9.68,-16.54 11.24,-4.43 21.31,-22.97 27.14,-50.18 z"/><path id="Path_7445" data-name="Path 7445" class="cls-8" d="m 559.34,178.85 c 4.27,16.73 5.77,32.41 -2.97,32.9 2.18,-7.97 2.45,-17.86 2.97,-32.9 z"/><path id="Path_7446" data-name="Path 7446" class="cls-8" d="m 516.43,78.69 c 36.83,28.44 48.79,47.59 27.69,53.17 4.13,-9.98 -11.3,-31.91 -27.69,-53.17 z"/><path id="Path_7447" data-name="Path 7447" class="cls-8" d="M 424.66,25.1 C 458.8,28.2 508.51,42 486.08,57.12 482.3,47 451.14,29.48 424.66,25.1 Z"/><path id="Path_7448" data-name="Path 7448" class="cls-8" d="M 387.23,14.23 C 361.41,-3.38 298.68,-6.78 310.07,16.52 315.91,7.2 362.49,4.09 387.23,14.23 Z"/><path id="Path_7449" data-name="Path 7449" class="cls-8" d="M 288.07,10.57 C 250.64,0.54 203.1,3.61 217.85,27.04 223.69,17.72 260.5,6.85 288.07,10.58 Z"/><path id="Path_7450" data-name="Path 7450" class="cls-8" d="m 198.27,26.42 c -44.48,-2.68 -90.81,19.56 -64.13,34.71 -2.2,-12.46 37.12,-30.71 64.13,-34.71 z"/><path id="Path_7451" data-name="Path 7451" class="cls-8" d="m 110.81,78.17 c -39.06,28.99 -69.17,62.91 -39.65,70.3 -2.2,-12.46 16.17,-44.79 39.65,-70.3 z"/><path id="Path_7452" data-name="Path 7452" class="cls-8" d="M 67.85,156.19 C 49.18,204 56.5,212.77 63.67,211.76 56.22,201.52 59.93,192.32 67.85,156.19 Z"/></g></g><defs id="defs3094"><style id="style3092">
      .cls-1 {
        fill: #fff;
      }

      .cls-2 {
        fill: #e19e82;
      }

      .cls-3 {
        fill: #028151;
      }

      .cls-4 {
        fill: #e69674;
      }

      .cls-5 {
        fill: #ddd5d2;
      }

      .cls-6 {
        fill: #cf1915;
      }

      .cls-7 {
        fill: #3d3533;
      }

      .cls-8 {
        fill: #e5a451;
      }

      .cls-9 {
        fill: #333d63;
      }

      .cls-10 {
        fill: #039960;
      }

      .cls-11 {
        fill: #e8b29b;
      }

      .cls-12 {
        fill: #b57e67;
      }

      .cls-13 {
        fill: #edb9a3;
      }

      .cls-14 {
        fill: #ecac5a;
      }

      .cls-15 {
        fill: #df1a16;
      }

      .cls-16 {
        fill: #263056;
      }

      .cls-17 {
        fill: #322a28;
      }

      .cls-18 {
        fill: #ccb050;
      }

      .cls-19 {
        fill: #e8a68a;
      }
    </style></defs><g id="karakter-man_3" data-name="karakter-man 3" transform="translate(0,-6.9214784)"><path id="Union_15" data-name="Union 15" class="cls-9" d="m 328.95,960.02 c -5.11,-12.03 -0.17,-160.22 -16.1,-159.72 -0.99,0.02 -1.98,-0.01 -2.96,-0.1 -0.88,0.09 -1.76,0.12 -2.65,0.1 -15.94,-0.5 -11,147.69 -16.11,159.72 -5.11,12.03 -68.06,20.44 -73.71,0 -2.82,-10.17 -5.8,-71.59 -11.48,-121.14 -1.64,-14.18 -3.48,-27.9 -5.41,-41.76 -3.83,-27.87 -7.12,-50.14 -5,-54.96 4.92,-11.14 85.13,-4.12 114.5,-1.14 29.39,-2.97 109.58,-10.02 114.52,1.14 2.12,4.84 -1.17,27.08 -5,54.95 -1.94,13.87 -3.78,27.6 -5.41,41.76 -5.68,49.56 -8.66,110.98 -11.48,121.14 -2.47,8.96 -15.94,12.37 -30.74,12.37 -18.96,0.01 -40.1,-5.6 -42.97,-12.36 z"/><path id="Path_7453" data-name="Path 7453" class="cls-16" d="m 386.26,970.96 c 7.78,-1.29 14.64,-4.71 16.38,-11.01 2.81,-10.17 5.81,-72.46 11.5,-122 1.63,-14.18 3.48,-27.89 5.4,-41.77 3.84,-27.87 7.13,-50.13 5,-54.95 -1.41,-3.2 -0.02,-6.76 -12.26,-7.59 -13.04,42.74 -15.16,174.06 -26.02,237.32 z"/><path id="Path_7454" data-name="Path 7454" class="cls-16" d="m 289.58,813.99 c 4.03,-12.47 18.64,-18.18 15.53,-13.98 -2.17,2.95 -3.61,6.38 -4.21,10 -8.32,31.25 -5.47,139.92 -9.79,150.08 -2.28,5.04 -17.28,9.25 -17.28,9.25 0,0 11.73,-142.89 15.75,-155.36 z"/></g><defs id="defs3094"><style id="style3092">
      .cls-1 {
        fill: #fff;
      }

      .cls-2 {
        fill: #e19e82;
      }

      .cls-3 {
        fill: #028151;
      }

      .cls-4 {
        fill: #e69674;
      }

      .cls-5 {
        fill: #ddd5d2;
      }

      .cls-6 {
        fill: #cf1915;
      }

      .cls-7 {
        fill: #3d3533;
      }

      .cls-8 {
        fill: #e5a451;
      }

      .cls-9 {
        fill: #333d63;
      }

      .cls-10 {
        fill: #039960;
      }

      .cls-11 {
        fill: #e8b29b;
      }

      .cls-12 {
        fill: #b57e67;
      }

      .cls-13 {
        fill: #edb9a3;
      }

      .cls-14 {
        fill: #ecac5a;
      }

      .cls-15 {
        fill: #df1a16;
      }

      .cls-16 {
        fill: #263056;
      }

      .cls-17 {
        fill: #322a28;
      }

      .cls-18 {
        fill: #ccb050;
      }

      .cls-19 {
        fill: #e8a68a;
      }
    </style></defs><g id="karakter-man_3" data-name="karakter-man 3" transform="translate(0,-6.9214784)"><g id="Group_8272" data-name="Group 8272"><path id="Path_3697" data-name="Path 3697" class="cls-15" d="m 396.54,964.69 -61.46,-4.9 c 0,0 -7.95,22.2 -6.38,31.62 1.57,9.42 2.31,40.73 6.38,44.18 6.58,5.59 78.07,0.99 83.27,0 5.2,-0.99 7.26,-12.37 6.08,-22.97 -1.18,-10.6 -27.89,-47.92 -27.89,-47.92 z"/><path id="Path_3699" data-name="Path 3699" class="cls-6" d="m 396.54,964.69 h -8.88 c 0,0 34.76,36.95 3.45,32.48 3.21,10.71 18.14,27.08 12.98,39.62 6.8,-0.42 12.87,-0.94 14.25,-1.21 5.19,-0.99 7.26,-12.37 6.08,-22.97 -1.18,-10.6 -27.88,-47.91 -27.88,-47.91 z"/><g id="Group_5091" data-name="Group 5091"><path id="Path_3695" data-name="Path 3695" class="cls-6" d="m 376.02,996.16 c -23.44,-0.11 -46.16,6.72 -45.37,16.04 0.81,9.68 2.05,21.35 4.43,23.38 6.58,5.59 78.07,0.99 83.27,0 5.2,-0.99 7.26,-12.37 6.08,-22.97 -1.18,-10.6 -24.96,-16.36 -48.41,-16.45 z"/></g><path id="Path_3698" data-name="Path 3698" class="cls-5" d="m 331.45,1020.47 c 0.77,8.58 1.53,13.29 3.68,15.12 6.58,5.59 78.07,0.99 83.27,0 3.61,-0.69 5.71,-6.39 6.35,-14.86 -19.36,3.68 -84.05,3.22 -93.3,-0.26 z"/><path id="Path_3673" data-name="Path 3673" class="cls-15" d="m 223.07,964.69 61.45,-4.91 c 0,0 7.96,22.2 6.38,31.62 -1.58,9.42 -2.32,40.73 -6.38,44.18 -6.58,5.59 -78.08,0.99 -83.27,0 -5.19,-0.99 -7.26,-12.37 -6.08,-22.97 1.18,-10.6 27.9,-47.92 27.9,-47.92 z"/><g id="Group_5090" data-name="Group 5090"><path id="Path_3695-2" data-name="Path 3695-2" class="cls-6" d="m 243.59,996.17 c 23.45,-0.1 46.16,6.73 45.38,16.06 -0.81,9.68 -2.05,21.35 -4.43,23.38 -6.58,5.59 -78.08,0.99 -83.27,0 -5.19,-0.99 -7.26,-12.37 -6.08,-22.97 1.18,-10.6 24.96,-16.37 48.41,-16.46 z"/><path id="Path_3696" data-name="Path 3696" class="cls-6" d="m 288.64,973.31 c 1.43,5.33 3.06,13.34 2.27,18.09 -1.58,9.43 -2.32,40.73 -6.37,44.18 -4.53,3.85 -16.55,-14.17 -13.56,-36.04 17.79,5.16 16.8,-18.32 17.66,-26.24 z"/></g><path id="Path_3674" data-name="Path 3674" class="cls-5" d="m 288.15,1020.47 c -0.77,8.58 -1.53,13.29 -3.68,15.12 -6.58,5.59 -78.08,0.99 -83.27,0 -3.61,-0.69 -5.71,-6.39 -6.34,-14.86 19.35,3.68 84.04,3.22 93.3,-0.26 z"/></g></g></svg>